# https://github.com/mikedh/trimesh
v -0.02705035 0.02553056 0.01999905
v -0.01458904 0.03472010 0.01652978
v -0.01458904 0.03473877 0.02038903
v -0.01458904 0.03474624 0.02130067
v -0.02705035 0.02554177 0.02130067
v -0.02705035 0.02553430 -0.02291866
v -0.01458904 0.03460434 -0.02419496
v -0.01458904 0.03476491 0.02260228
v -0.02705035 0.02556044 0.02260228
v -0.02705035 0.02560151 -0.02419496
v -0.02705035 0.02574341 -0.02490907
v -0.01510262 0.03454833 -0.02507620
v -0.01458904 0.03530261 -0.02542060
v -0.01458904 0.03480225 0.02390389
v -0.02705035 0.02562018 0.02353923
v -0.02705035 0.02634832 -0.02530917
v -0.02651115 0.02757310 -0.02570422
v -0.01611148 0.03537356 -0.02584096
v -0.01458904 0.03667302 -0.02588148
v -0.01458904 0.03482092 0.02403050
v -0.02705035 0.02566126 0.02399505
v -0.02705035 0.02757310 -0.02581564
v -0.02651115 0.02887255 -0.02596758
v -0.02131070 0.03277465 -0.02596251
v -0.01481228 0.03667302 -0.02589161
v -0.01458904 0.06137013 -0.02557253
v -0.01524901 0.03462301 0.02470410
v -0.02705035 0.02573594 0.02438503
v -0.01458904 0.03536236 0.02508901
v -0.02705035 0.02887255 -0.02594732
v -0.02521073 0.03017574 -0.02597770
v -0.02705035 0.05541056 -0.02562318
v -0.02705035 0.05616858 -0.02561305
v -0.02651115 0.05747176 -0.02559786
v -0.02521073 0.05747176 -0.02560292
v -0.01871231 0.06007068 -0.02558773
v -0.01611148 0.06137013 -0.02557760
v -0.01458904 0.06266958 -0.02538515
v -0.02705035 0.02581435 0.02453697
v -0.01458904 0.03554160 0.02519537
v -0.02705035 0.05671001 -0.02560292
v -0.02705035 0.05747176 -0.02558773
v -0.02131070 0.06007068 -0.02557760
v -0.01741189 0.06137013 -0.02556241
v -0.01871231 0.06137013 -0.02550669
v -0.01871231 0.06230738 -0.02513698
v -0.01458904 0.06346867 -0.02502049
v -0.02705035 0.02639687 0.02486110
v -0.01458904 0.03667302 0.02571703
v -0.02705035 0.05878615 -0.02530411
v -0.02651115 0.05877122 -0.02541553
v -0.02521073 0.05877122 -0.02555734
v -0.02261112 0.06007068 -0.02554215
v -0.02261112 0.06110128 -0.02517243
v -0.02001151 0.06214308 -0.02499010
v -0.01481228 0.06344253 -0.02499517
v -0.01560156 0.06335292 -0.02489387
v -0.01458904 0.06362551 -0.02419496
v -0.02705035 0.02691964 0.02508901
v -0.01458904 0.03689706 0.02574235
v -0.01481228 0.03667302 0.02573222
v -0.02705035 0.02833485 0.02538276
v -0.02705035 0.02757310 0.02523589
v -0.02705035 0.05951056 -0.02493946
v -0.02651115 0.05963005 -0.02504582
v -0.02391032 0.06007068 -0.02535982
v -0.02391032 0.06086603 -0.02499517
v -0.02074467 0.06204226 -0.02487361
v -0.01871231 0.06261357 -0.02419496
v -0.01568695 0.06337532 -0.02419496
v -0.01481228 0.06357696 -0.02419496
v -0.01458904 0.06363671 -0.02289334
v -0.01458904 0.03797247 0.02576261
v -0.02001151 0.03407411 0.02565119
v -0.02651115 0.02887255 0.02541315
v -0.02705035 0.02887255 0.02539289
v -0.02705035 0.05962259 -0.02419496
v -0.02456662 0.06072413 -0.02484829
v -0.02261112 0.06150829 -0.02419496
v -0.02145831 0.06186676 -0.02419496
v -0.02080932 0.06206093 -0.02419496
v -0.02001151 0.06228124 -0.02419496
v -0.01871231 0.06262851 -0.02289334
v -0.01741189 0.06295711 -0.02289334
v -0.01635058 0.06322223 -0.02289334
v -0.01570037 0.06337906 -0.02289334
v -0.01481228 0.06358817 -0.02289334
v -0.01458904 0.06367778 0.02390389
v -0.02001151 0.03537356 0.02565119
v -0.02131070 0.03407411 0.02562586
v -0.01458904 0.04469379 0.02570690
v -0.02131070 0.06007068 0.02543341
v -0.02261112 0.05877122 0.02541315
v -0.02521073 0.05877122 0.02535237
v -0.02261112 0.03277465 0.02559041
v -0.02521073 0.03017574 0.02547899
v -0.02705035 0.02963430 0.02540302
v -0.02705035 0.05964873 -0.02289334
v -0.02458126 0.06072787 -0.02419496
v -0.02391032 0.06101913 -0.02419496
v -0.02261112 0.06152696 -0.02289334
v -0.02146929 0.06188169 -0.02289334
v -0.02081908 0.06206467 -0.02289334
v -0.02001151 0.06228498 -0.02289334
v -0.02086422 0.06207213 0.02390389
v -0.01644329 0.06323716 0.02390389
v -0.01579308 0.06339773 0.02390389
v -0.01481228 0.06362924 0.02390389
v -0.01571989 0.06337906 0.02465852
v -0.01458904 0.06355829 0.02465345
v -0.02705035 0.05097075 0.02536250
v -0.01458904 0.04576920 0.02569677
v -0.01458904 0.06137013 0.02553470
v -0.01611148 0.06137013 0.02550431
v -0.01741189 0.06137013 0.02546886
v -0.02261112 0.06007068 0.02538276
v -0.02651115 0.05877122 0.02526628
v -0.02705035 0.05822978 0.02527640
v -0.02705035 0.05747176 0.02531186
v -0.02705035 0.05693033 0.02531692
v -0.02651115 0.03537356 0.02543847
v -0.02705035 0.03407411 0.02541821
v -0.02705035 0.03223321 0.02541821
v -0.02705035 0.03093376 0.02541315
v -0.02705035 0.04967130 0.02536757
v -0.02705035 0.03017574 0.02540808
v -0.02523757 0.06044782 -0.02289334
v -0.02705035 0.05984663 0.02390389
v -0.02458736 0.06073160 -0.02289334
v -0.02391032 0.06102660 -0.02289334
v -0.02391032 0.06108260 0.02390389
v -0.02261112 0.06155310 0.02390389
v -0.02151321 0.06189663 0.02390389
v -0.02084958 0.06206840 0.02463320
v -0.02001151 0.06217295 0.02477500
v -0.01481228 0.06348361 0.02481046
v -0.01458904 0.06350975 0.02483072
v -0.01458904 0.06159417 0.02551444
v -0.01458904 0.06266958 0.02532198
v -0.01871231 0.06137013 0.02538782
v -0.02001151 0.06137013 0.02522576
v -0.02391032 0.06007068 0.02521056
v -0.02651115 0.05975328 0.02488136
v -0.02705035 0.05881603 0.02514472
v -0.02705035 0.03613531 0.02541315
v -0.02705035 0.05979809 0.02432932
v -0.02468617 0.06077268 0.02463320
v -0.02391032 0.06092578 0.02479526
v -0.02261112 0.06115729 0.02495227
v -0.01871231 0.06234472 0.02492695
v -0.01458904 0.06283388 0.02523589
v -0.01481228 0.06266958 0.02529666
v -0.02705035 0.05942095 0.02490669
v -0.02705035 0.05965619 0.02480033
f 1 2 3
f 1 3 4
f 1 4 5
f 1 5 9
f 1 9 15
f 1 15 21
f 1 21 28
f 1 28 39
f 1 39 48
f 1 48 59
f 1 59 63
f 1 63 62
f 1 62 76
f 1 76 97
f 1 97 126
f 1 126 124
f 1 124 123
f 1 123 122
f 1 122 145
f 1 145 125
f 1 125 111
f 1 111 120
f 1 120 119
f 1 119 118
f 1 118 144
f 1 144 153
f 1 153 154
f 1 154 146
f 1 146 128
f 1 128 98
f 1 98 77
f 1 77 64
f 1 64 50
f 1 50 42
f 1 42 41
f 1 41 33
f 1 33 32
f 1 32 30
f 1 30 22
f 1 22 16
f 1 16 11
f 1 11 10
f 1 10 6
f 1 6 7
f 1 7 2
f 2 7 13
f 2 13 19
f 2 19 26
f 2 26 38
f 2 38 47
f 2 47 58
f 2 58 72
f 2 72 88
f 2 88 110
f 2 110 137
f 2 137 151
f 2 151 139
f 2 139 138
f 2 138 113
f 2 113 112
f 2 112 91
f 2 91 73
f 2 73 60
f 2 60 49
f 2 49 40
f 2 40 29
f 2 29 20
f 2 20 14
f 2 14 8
f 2 8 4
f 2 4 3
f 4 8 9
f 4 9 5
f 6 10 7
f 7 10 11
f 7 11 12
f 7 12 13
f 8 14 9
f 9 14 15
f 11 16 13
f 11 13 12
f 13 16 17
f 13 17 18
f 13 18 19
f 14 20 21
f 14 21 15
f 16 22 17
f 17 22 18
f 18 22 19
f 19 22 23
f 19 23 24
f 19 24 25
f 19 25 26
f 20 27 28
f 20 28 21
f 20 29 27
f 22 30 23
f 23 31 24
f 23 30 32
f 23 32 31
f 24 31 33
f 24 33 34
f 24 34 35
f 24 35 36
f 24 36 37
f 24 37 25
f 25 37 26
f 26 37 38
f 27 39 28
f 27 29 39
f 29 40 39
f 31 32 33
f 33 41 34
f 34 41 42
f 34 42 43
f 34 43 36
f 34 36 35
f 36 43 37
f 37 43 44
f 37 44 38
f 38 44 45
f 38 45 46
f 38 46 47
f 39 40 48
f 40 49 48
f 42 50 51
f 42 51 52
f 42 52 43
f 43 52 53
f 43 53 44
f 44 53 45
f 45 53 54
f 45 54 46
f 46 55 56
f 46 56 47
f 46 54 55
f 47 56 57
f 47 57 58
f 48 49 59
f 49 60 61
f 49 61 62
f 49 62 63
f 49 63 59
f 50 54 51
f 50 64 65
f 50 65 54
f 51 54 66
f 51 66 53
f 51 53 52
f 53 66 54
f 54 65 67
f 54 67 68
f 54 68 55
f 55 68 57
f 55 57 56
f 57 68 69
f 57 69 70
f 57 70 71
f 57 71 58
f 58 71 87
f 58 87 72
f 60 73 74
f 60 74 61
f 61 74 75
f 61 75 62
f 62 75 76
f 64 77 78
f 64 78 67
f 64 67 65
f 67 78 68
f 68 78 79
f 68 79 80
f 68 80 81
f 68 81 82
f 68 82 69
f 69 82 83
f 69 83 84
f 69 84 70
f 70 84 85
f 70 85 86
f 70 86 87
f 70 87 71
f 72 87 108
f 72 108 88
f 73 89 90
f 73 90 74
f 73 91 92
f 73 92 93
f 73 93 94
f 73 94 89
f 74 90 95
f 74 95 96
f 74 96 75
f 75 96 97
f 75 97 76
f 77 98 78
f 78 99 100
f 78 100 79
f 78 98 99
f 79 100 101
f 79 101 80
f 80 101 102
f 80 102 81
f 81 102 103
f 81 103 82
f 82 103 104
f 82 104 83
f 83 104 105
f 83 105 106
f 83 106 84
f 84 106 85
f 85 106 107
f 85 107 86
f 86 107 108
f 86 108 87
f 88 108 109
f 88 109 110
f 89 94 111
f 89 111 90
f 90 111 95
f 91 112 92
f 92 112 113
f 92 113 114
f 92 114 115
f 92 115 116
f 92 116 94
f 92 94 93
f 94 117 118
f 94 118 119
f 94 119 120
f 94 120 111
f 94 116 117
f 95 121 122
f 95 122 123
f 95 123 124
f 95 124 96
f 95 111 125
f 95 125 121
f 96 124 126
f 96 126 97
f 98 127 99
f 98 128 127
f 99 127 129
f 99 129 130
f 99 130 100
f 100 130 101
f 101 130 131
f 101 131 132
f 101 132 133
f 101 133 102
f 102 133 103
f 103 133 104
f 104 133 105
f 105 133 134
f 105 134 106
f 106 134 109
f 106 109 107
f 107 109 108
f 109 134 135
f 109 135 136
f 109 136 110
f 110 136 137
f 113 138 114
f 114 138 115
f 115 138 139
f 115 139 140
f 115 140 116
f 116 140 141
f 116 141 142
f 116 142 117
f 117 142 143
f 117 143 144
f 117 144 118
f 121 145 122
f 121 125 145
f 127 128 129
f 128 146 147
f 128 147 131
f 128 131 130
f 128 130 129
f 131 147 132
f 132 147 134
f 132 134 133
f 134 147 148
f 134 148 135
f 135 148 149
f 135 149 150
f 135 150 136
f 136 150 137
f 137 150 151
f 139 151 152
f 139 152 140
f 140 152 141
f 141 152 150
f 141 150 149
f 141 149 142
f 142 149 143
f 143 153 144
f 143 149 148
f 143 148 154
f 143 154 153
f 146 154 147
f 147 154 148
f 150 152 151

