# https://github.com/mikedh/trimesh
v -0.05900898 0.00890726 -0.02611969
v -0.05511042 0.00890726 -0.02610960
v -0.06160924 0.00890726 -0.02610960
v -0.05771068 0.02497325 -0.02606924
v -0.05380846 0.02757612 -0.02606419
v -0.05120820 0.02627468 -0.02606419
v -0.04860794 0.02627468 -0.02605915
v -0.05380846 0.00937598 -0.02610455
v -0.05380846 0.00890726 -0.02610455
v -0.03171174 0.02237536 -0.02601374
v -0.06160924 0.01067243 -0.02608437
v -0.06031094 0.01847605 -0.02605915
v -0.05900898 0.02367680 -0.02605915
v -0.05900898 0.02237536 -0.02606924
v -0.06290753 0.00890726 -0.02579681
v -0.05771068 0.02627468 -0.02605410
v -0.05640872 0.02887256 -0.02604906
v -0.05380846 0.03277687 -0.02603897
v -0.05251016 0.03407331 -0.02603392
v -0.05120820 0.03277687 -0.02603897
v -0.04471305 0.04057051 -0.02599861
v -0.04471305 0.03926908 -0.02600365
v -0.05251016 0.00890726 -0.02609951
v -0.03821423 0.01067243 -0.02602383
v -0.03821423 0.01197386 -0.02602888
v -0.02781319 0.02757612 -0.02597338
v -0.06160924 0.01197386 -0.02606419
v -0.06160924 0.01327530 -0.02602383
v -0.06031094 0.01977250 -0.02600870
v -0.05900898 0.02497325 -0.02596834
v -0.05771068 0.02757612 -0.02598347
v -0.05640872 0.03017400 -0.02599861
v -0.05511042 0.03277687 -0.02600365
v -0.06160924 0.01457673 -0.02595320
v -0.06371439 0.00890726 -0.02516114
v -0.06270582 0.01327530 -0.02540834
v -0.06257746 0.01457673 -0.02534276
v -0.05380846 0.03407331 -0.02602888
v -0.05120820 0.03796765 -0.02597843
v -0.04990990 0.03926908 -0.02596329
v -0.04860794 0.04057051 -0.02594816
v -0.04730964 0.04187195 -0.02592798
v -0.02705035 0.05746921 -0.02558996
v -0.02705035 0.05616778 -0.02561519
v -0.05074609 0.00890726 -0.02608942
v -0.03951253 0.00890726 -0.02602383
v -0.03821423 0.00937598 -0.02598852
v -0.02705035 0.02887256 -0.02594816
v -0.02705035 0.02757612 -0.02581699
v -0.03821423 0.00890726 -0.02596329
v -0.06031094 0.02107393 -0.02588762
v -0.05511042 0.03407331 -0.02584221
v -0.06031094 0.02237536 -0.02567068
v -0.06004688 0.02497325 -0.02535789
v -0.05380846 0.03536976 -0.02597843
v -0.06160924 0.01587318 -0.02579176
v -0.06387943 0.00890726 -0.02419250
v -0.06367771 0.00937598 -0.02510564
v -0.06360069 0.01028349 -0.02494925
v -0.06243076 0.01587318 -0.02517627
v -0.06120581 0.02107393 -0.02527717
v -0.06134518 0.01977250 -0.02539321
v -0.05251016 0.03667120 -0.02597843
v -0.04860794 0.04187195 -0.02589266
v -0.04730964 0.04316840 -0.02588257
v -0.02781319 0.05746921 -0.02557987
v -0.02705035 0.05878561 -0.02530744
v -0.02705035 0.02634947 -0.02530744
v -0.03713232 0.00890726 -0.02537807
v -0.05251016 0.03796765 -0.02571608
v -0.05881827 0.02757612 -0.02538312
v -0.05603830 0.03407331 -0.02525195
v -0.05514710 0.03534483 -0.02539321
v -0.05390015 0.03674599 -0.02549411
v -0.06106278 0.02237536 -0.02506024
v -0.06097843 0.02311334 -0.02489375
v -0.05982683 0.02600043 -0.02513591
v -0.05120820 0.03926908 -0.02582708
v -0.04990990 0.04057051 -0.02587248
v -0.06380607 0.00937598 -0.02419250
v -0.06399312 0.00890726 -0.02029271
v -0.06232441 0.01679565 -0.02498961
v -0.06338431 0.01197386 -0.02419250
v -0.06316793 0.01327530 -0.02419250
v -0.04730964 0.04446983 -0.02561519
v -0.04600768 0.04577126 -0.02556474
v -0.04211279 0.04836915 -0.02567573
v -0.03561397 0.05356990 -0.02558996
v -0.03301371 0.05487133 -0.02560005
v -0.02911148 0.05746921 -0.02546384
v -0.02911148 0.05838670 -0.02508546
v -0.02774350 0.05880057 -0.02516114
v -0.02705035 0.05950863 -0.02494420
v -0.02705035 0.02574114 -0.02490889
v -0.03669588 0.00890726 -0.02419250
v -0.05121553 0.04054060 -0.02534780
v -0.05585126 0.03489606 -0.02502492
v -0.05473634 0.03636703 -0.02518131
v -0.06290753 0.01457673 -0.02419250
v -0.06117281 0.02237536 -0.02419250
v -0.06099310 0.02316819 -0.02419250
v -0.06083540 0.02382140 -0.02419250
v -0.06043564 0.02497325 -0.02419250
v -0.05835983 0.02953076 -0.02484835
v -0.04996491 0.04190685 -0.02540834
v -0.06391977 0.00937598 -0.02029271
v -0.06408480 0.00890726 -0.01685706
v -0.06337331 0.01327530 -0.01639293
v -0.06346500 0.01333513 -0.01249314
v -0.06319360 0.01457673 -0.01379475
v -0.04870696 0.04326314 -0.02544366
v -0.04825952 0.04446983 -0.02511573
v -0.04719228 0.04565159 -0.02507033
v -0.04600768 0.04673861 -0.02508546
v -0.03821423 0.05226846 -0.02546384
v -0.03951253 0.05097202 -0.02554456
v -0.04081449 0.04967058 -0.02561519
v -0.04446732 0.04806000 -0.02511573
v -0.04348077 0.04844394 -0.02532762
v -0.04213112 0.04970549 -0.02527717
v -0.03701129 0.05367461 -0.02528222
v -0.03431200 0.05487133 -0.02544870
v -0.03171174 0.05616778 -0.02546888
v -0.03038411 0.05751409 -0.02519141
v -0.03171174 0.05709524 -0.02508546
v -0.02992934 0.05820221 -0.02493916
v -0.02726306 0.05946375 -0.02489880
v -0.02705035 0.05962331 -0.02419250
v -0.02705035 0.02560153 -0.02419250
v -0.02705035 0.02553670 -0.02292116
v -0.03653084 0.00890726 -0.01115117
v -0.05079010 0.04149797 -0.02511573
v -0.04956516 0.04288916 -0.02515105
v -0.05630970 0.03407331 -0.02419250
v -0.05588793 0.03497085 -0.02419250
v -0.05552485 0.03562406 -0.02419250
v -0.05487204 0.03654155 -0.02419250
v -0.05318865 0.03865576 -0.02489880
v -0.05198938 0.04009182 -0.02504510
v -0.06322661 0.01457673 -0.01249314
v -0.06102611 0.02329784 -0.02029271
v -0.06325228 0.01457673 -0.01119153
v -0.06294788 0.01587318 -0.01119153
v -0.06296988 0.01587318 -0.00989497
v -0.06103711 0.02333274 -0.01899110
v -0.06087207 0.02398595 -0.01899110
v -0.05990752 0.02618493 -0.02419250
v -0.06087941 0.02402086 -0.01769454
v -0.06088674 0.02405077 -0.01639293
v -0.06050166 0.02497325 -0.01899110
v -0.05961778 0.02683315 -0.02419250
v -0.05928037 0.02757612 -0.02419250
v -0.06402246 0.00937598 -0.01639293
v -0.06411781 0.00890726 -0.01556050
v -0.06411415 0.00937598 -0.01249314
v -0.06347967 0.01341990 -0.01119153
v -0.06405547 0.00937598 -0.01509132
v -0.06408480 0.00937598 -0.01379475
v -0.04798079 0.04514299 -0.02487357
v -0.04667883 0.04643445 -0.02486853
v -0.04077781 0.05096205 -0.02520150
v -0.04308834 0.04929661 -0.02508546
v -0.04171303 0.05052823 -0.02504006
v -0.03664454 0.05446245 -0.02506528
v -0.03553328 0.05488629 -0.02516114
v -0.03296970 0.05620269 -0.02519141
v -0.03431200 0.05575890 -0.02506024
v -0.03251126 0.05689579 -0.02493916
v -0.03004303 0.05825706 -0.02419250
v -0.02911148 0.05869087 -0.02419250
v -0.02734008 0.05949866 -0.02419250
v -0.02705035 0.05964824 -0.02289593
v -0.03652351 0.00890726 -0.00993533
v -0.03652718 0.00890726 -0.01061135
v -0.02705035 0.02553172 0.01998153
v -0.05994419 0.02624476 -0.01769454
v -0.06104078 0.02450453 0.02259988
v -0.06073638 0.02515774 0.02259988
v -0.05588427 0.03496088 -0.00599518
v -0.06018991 0.02627468 0.02259988
v -0.05551751 0.03560911 -0.00469357
v -0.05486470 0.03653158 0.00179935
v -0.05486837 0.03653657 -0.00729175
v -0.05204806 0.04016662 -0.02419250
v -0.05154194 0.04081485 -0.02419250
v -0.05089279 0.04162762 -0.02419250
v -0.06327429 0.01457673 -0.00989497
v -0.06307991 0.01587318 -0.00209539
v -0.06105545 0.02340255 -0.01639293
v -0.06107745 0.02348233 -0.01249314
v -0.06091241 0.02415549 -0.01119153
v -0.05993686 0.02623479 -0.01899110
v -0.06093442 0.02423028 -0.00599518
v -0.06051266 0.02497325 -0.01769454
v -0.06412882 0.00890726 -0.01509132
v -0.06417649 0.00890726 -0.01295728
v -0.06420216 0.00890726 -0.01166072
v -0.06415816 0.00937598 -0.00989497
v -0.06415816 0.00890726 -0.01379475
v -0.06418016 0.00937598 -0.00859336
v -0.06349801 0.01353957 -0.00859336
v -0.05036100 0.04228083 -0.02419250
v -0.04917640 0.04372188 -0.02419250
v -0.04798813 0.04515296 -0.02419250
v -0.04733898 0.04580118 -0.02419250
v -0.03891472 0.05296156 -0.02489375
v -0.04031938 0.05174988 -0.02497952
v -0.04668983 0.04644442 -0.02419250
v -0.04531085 0.04767605 -0.02419250
v -0.04324605 0.04943124 -0.02419250
v -0.04248320 0.05007946 -0.02419250
v -0.03941350 0.05221860 -0.02511069
v -0.03821423 0.05324080 -0.02507033
v -0.03748073 0.05415829 -0.02419250
v -0.03504551 0.05556444 -0.02489880
v -0.03259928 0.05694565 -0.02419250
v -0.03072519 0.05794791 -0.02289593
v -0.03007237 0.05827700 -0.02289593
v -0.02911148 0.05873575 -0.02289593
v -0.02801857 0.05922939 -0.02289593
v -0.02832664 0.05935904 0.02390149
v -0.02767749 0.05961334 0.02390149
v -0.02705035 0.05984271 0.02390149
v -0.03652351 0.00890726 -0.00939551
v -0.02705035 0.02553172 0.02000171
v -0.06054566 0.02497325 -0.01379475
v -0.06056767 0.02497325 -0.01119153
v -0.06060801 0.02497325 -0.00599518
v -0.06129017 0.02367680 0.02259988
v -0.06101877 0.02445965 0.02353321
v -0.05846619 0.02974019 0.02259988
v -0.05630603 0.03407331 0.02259988
v -0.05586959 0.03493096 0.02259988
v -0.05550285 0.03558417 0.02259988
v -0.05551385 0.03560412 0.00179935
v -0.05973148 0.02706751 0.02359879
v -0.05485003 0.03651662 0.02259988
v -0.05433658 0.03716983 0.02259988
v -0.05317031 0.03863582 0.02259988
v -0.05265320 0.03928404 0.02259988
v -0.05200405 0.04009681 0.02259988
v -0.04794045 0.04509312 0.02259988
v -0.06353101 0.01375398 -0.00339196
v -0.06355669 0.01389859 0.00050278
v -0.06338065 0.01457673 -0.00209539
v -0.06348700 0.01487092 0.01090053
v -0.06349434 0.01491081 0.01220214
v -0.06321194 0.01587318 0.00830235
v -0.06135618 0.02237536 -0.01249314
v -0.06137085 0.02237536 -0.01119153
v -0.06327062 0.01587318 0.01350375
v -0.06108478 0.02350228 -0.01119153
v -0.06109579 0.02354217 -0.00859336
v -0.06266181 0.01847605 0.02259988
v -0.06163491 0.02237536 0.02259988
v -0.06422417 0.00890726 -0.01035910
v -0.06428285 0.00890726 -0.00645932
v -0.06421684 0.00937598 -0.00599518
v -0.06423151 0.00890726 -0.00989497
v -0.06427185 0.00937598 -0.00209539
v -0.04736099 0.04577126 0.02259988
v -0.04673384 0.04649429 0.02259988
v -0.04183039 0.05062796 -0.02419250
v -0.04104554 0.05127618 -0.02419250
v -0.04039639 0.05180972 -0.02419250
v -0.03959321 0.05245794 -0.02419250
v -0.03821423 0.05356990 -0.02419250
v -0.04541721 0.04777079 0.02390149
v -0.04471305 0.04838411 0.02390149
v -0.04401989 0.04898247 0.02259988
v -0.04337074 0.04953595 0.02259988
v -0.04260423 0.05018916 0.02259988
v -0.03683158 0.05458212 -0.02419250
v -0.04115557 0.05137092 0.02259988
v -0.04050275 0.05188950 0.02259988
v -0.03967756 0.05253773 0.02259988
v -0.03902842 0.05304633 0.02259988
v -0.03821423 0.05367960 0.02259988
v -0.03753941 0.05420316 0.02259988
v -0.03574233 0.05523035 -0.02419250
v -0.03509318 0.05558936 -0.02419250
v -0.03326310 0.05660159 -0.02289593
v -0.03261028 0.05695064 -0.02289593
v -0.03171174 0.05742932 -0.02289593
v -0.03007604 0.05828199 -0.02159432
v -0.03027408 0.05840166 0.02390149
v -0.02911148 0.05899504 0.02390149
v -0.02911148 0.05874572 -0.02159432
v -0.02755646 0.05956348 0.02472887
v -0.02705035 0.05979784 0.02433032
v -0.03652718 0.00890726 -0.00079378
v -0.02705035 0.02554169 0.02130332
v -0.06233907 0.01943342 0.02362906
v -0.06113613 0.02370173 0.02394185
v -0.06081339 0.02415050 0.02440095
v -0.05957378 0.02682318 0.02446653
v -0.05701752 0.03207878 0.02450689
v -0.05843318 0.02967536 0.02361393
v -0.05583659 0.03486614 0.02363915
v -0.05474000 0.03639196 0.02390149
v -0.05317031 0.03863083 0.02333141
v -0.04672651 0.04648930 0.02390149
v -0.06376573 0.01327530 0.00959892
v -0.06356035 0.01392352 0.00118890
v -0.06363003 0.01425761 0.01220214
v -0.06350534 0.01496068 0.01480031
v -0.06322661 0.01587318 0.00959892
v -0.06328162 0.01587318 0.01480031
v -0.06299556 0.01717461 0.02259988
v -0.06431952 0.00890726 -0.00385610
v -0.06435987 0.00890726 -0.00079378
v -0.06428652 0.00937598 -0.00079378
v -0.04606636 0.04714251 0.02390149
v -0.04195508 0.05072270 0.02259988
v -0.04540254 0.04775583 0.02458257
v -0.04402356 0.04898247 0.02390149
v -0.04260423 0.05016922 0.02390149
v -0.04195142 0.05071273 0.02390149
v -0.03688659 0.05462202 0.02259988
v -0.03584135 0.05526526 0.02390149
v -0.04114823 0.05136095 0.02390149
v -0.04049909 0.05187953 0.02390149
v -0.03966290 0.05253274 0.02390149
v -0.03901374 0.05303636 0.02390149
v -0.03752107 0.05418322 0.02390149
v -0.03687192 0.05461703 0.02390149
v -0.03509318 0.05559435 -0.02289593
v -0.03518854 0.05564920 0.02390149
v -0.03273865 0.05703042 0.02390149
v -0.03512252 0.05560931 0.02465320
v -0.03012371 0.05832188 0.02475410
v -0.02911148 0.05858117 0.02488022
v -0.02705035 0.05965323 0.02479950
v -0.03653451 0.00890726 0.00050278
v -0.02705035 0.02556164 0.02259988
v -0.03654552 0.00890726 0.00179935
v -0.03653818 0.00890726 0.00096692
v -0.06363737 0.01426758 0.02360888
v -0.06245277 0.01854087 0.02399735
v -0.06218504 0.01901457 0.02449680
v -0.06102244 0.02328786 0.02459770
v -0.05976448 0.02595556 0.02460275
v -0.05571556 0.03467168 0.02450689
v -0.05848086 0.02858834 0.02461788
v -0.05718256 0.03121116 0.02461788
v -0.05588427 0.03380904 0.02462293
v -0.05543683 0.03532987 0.02400239
v -0.05189769 0.03997215 0.02458257
v -0.05196370 0.04005193 0.02390149
v -0.04669717 0.04645938 0.02458257
v -0.06380974 0.01327530 0.01350375
v -0.06363370 0.01428752 0.01350375
v -0.06328896 0.01587318 0.01610192
v -0.06363737 0.01431245 0.01480031
v -0.06366671 0.01441218 0.02259988
v -0.06352368 0.01506040 0.02259988
v -0.06332196 0.01587318 0.02259988
v -0.06439288 0.00890726 0.00263682
v -0.06431219 0.00937598 0.00179935
v -0.04590132 0.04696300 0.02467842
v -0.04471305 0.04805002 0.02469356
v -0.04178271 0.05057311 0.02472887
v -0.04037806 0.05178479 0.02469356
v -0.03895506 0.05299148 0.02462293
v -0.03665554 0.05447741 0.02475410
v -0.03431200 0.05581874 0.02478941
v -0.03171174 0.05720993 0.02483986
v -0.02705035 0.05941887 0.02490545
v -0.03171174 0.05616778 0.02518292
v -0.02911148 0.05746921 0.02524346
v -0.02705035 0.05881553 0.02514256
v -0.02705035 0.02562147 0.02353825
v -0.03689760 0.00890726 0.02259988
v -0.03660786 0.00890726 0.00569913
v -0.03658586 0.00890726 0.00440257
v -0.06369972 0.01327530 0.02398726
v -0.06346133 0.01370911 0.02447662
v -0.06386475 0.01327530 0.02259988
v -0.06425718 0.01067243 0.02259988
v -0.06445156 0.00937598 0.02259988
v -0.06451757 0.00890726 0.02259988
v -0.06230973 0.01815193 0.02458761
v -0.06108112 0.02237536 0.02462293
v -0.06031094 0.02237536 0.02472383
v -0.05771068 0.02757612 0.02476419
v -0.05870825 0.02757612 0.02464815
v -0.05457130 0.03618254 0.02461788
v -0.05651508 0.03158014 0.02468347
v -0.05614833 0.03277687 0.02465824
v -0.05511042 0.03277687 0.02478437
v -0.05521311 0.03417803 0.02468851
v -0.05483536 0.03536976 0.02465320
v -0.05114585 0.04047079 0.02467842
v -0.05066907 0.04135836 0.02462797
v -0.04695389 0.04577126 0.02467842
v -0.06434887 0.00937598 0.00569913
v -0.06438187 0.00937598 0.00959892
v -0.06440388 0.00937598 0.01220214
v -0.06441488 0.00890726 0.00523499
v -0.04600768 0.04577126 0.02488527
v -0.04471305 0.04706771 0.02491049
v -0.04217514 0.04973042 0.02486509
v -0.03943918 0.05223855 0.02479950
v -0.04081449 0.05099196 0.02485500
v -0.03701862 0.05367461 0.02491554
v -0.03557729 0.05489627 0.02486004
v -0.03431200 0.05487133 0.02511229
v -0.03561397 0.05356990 0.02517283
v -0.03301371 0.05487133 0.02521824
v -0.03041345 0.05616778 0.02525860
v -0.02781319 0.05746921 0.02529391
v -0.02705035 0.05823213 0.02527878
v -0.02705035 0.02566136 0.02399735
v -0.03694894 0.00890726 0.02306402
v -0.06386842 0.01197386 0.02390149
v -0.06357869 0.01284148 0.02456743
v -0.06441855 0.00937598 0.01480031
v -0.06448823 0.00890726 0.01563778
v -0.06431219 0.00890726 0.02343735
v -0.06236841 0.01717461 0.02461284
v -0.06160924 0.01717461 0.02470869
v -0.06160924 0.01587318 0.02472383
v -0.05900898 0.02237536 0.02476419
v -0.04081449 0.04967058 0.02508707
v -0.04211279 0.04836915 0.02505680
v -0.05378279 0.03663629 0.02468347
v -0.05120820 0.03926908 0.02478941
v -0.05380846 0.03536976 0.02477932
v -0.04730964 0.04316840 0.02491554
v -0.06444789 0.00890726 0.00913478
v -0.06445156 0.00890726 0.00959892
v -0.06446989 0.00890726 0.01220214
v -0.04990990 0.04057051 0.02483986
v -0.03951253 0.05097202 0.02508707
v -0.03821423 0.05226846 0.02505175
v -0.03821423 0.05097202 0.02514256
v -0.02705035 0.05042851 0.02536454
v -0.03171174 0.05487133 0.02524346
v -0.02705035 0.05693069 0.02531914
v -0.02705035 0.05746921 0.02531409
v -0.02705035 0.02573616 0.02438581
v -0.03704796 0.00890726 0.02390149
v -0.06400779 0.01067243 0.02390149
v -0.06413982 0.00937598 0.02390149
v -0.06418750 0.00890726 0.02390149
v -0.06361170 0.01197386 0.02458761
v -0.06448456 0.00890726 0.01480031
v -0.06290753 0.01067243 0.02468851
v -0.06290753 0.00937598 0.02470365
v -0.06290753 0.01197386 0.02466833
v -0.06160924 0.01457673 0.02472887
v -0.06031094 0.01717461 0.02475410
v -0.06031094 0.01457673 0.02476419
v -0.02705035 0.03353479 0.02542004
v -0.02705035 0.03536976 0.02541499
v -0.02705035 0.04913206 0.02536959
v -0.02705035 0.02581095 0.02453716
v -0.03712865 0.00890726 0.02416888
v -0.06389409 0.00890726 0.02436059
v -0.06365204 0.01067243 0.02460779
v -0.06290753 0.00890726 0.02470365
v -0.06207501 0.00890726 0.02472887
v -0.06160924 0.01327530 0.02473392
v -0.06368505 0.00937598 0.02461788
v -0.06320460 0.00890726 0.02467338
v -0.06160924 0.00937598 0.02473896
v -0.02705035 0.03147543 0.02541499
v -0.06160924 0.00890726 0.02473896
v -0.06031094 0.00890726 0.02476419
v -0.03737437 0.00890726 0.02471878
v -0.02705035 0.02639934 0.02486004
v -0.06370339 0.00890726 0.02461788
v -0.02705035 0.03017400 0.02540995
v -0.05947475 0.00890726 0.02477428
v -0.02705035 0.02963547 0.02540490
v -0.03764210 0.00890726 0.02479950
v -0.02705035 0.02692290 0.02509211
v -0.02705035 0.02757612 0.02523842
v -0.03951253 0.00890726 0.02499121
v -0.03821423 0.01067243 0.02503157
v -0.02705035 0.02887256 0.02539481
v -0.02705035 0.02833404 0.02538472
v -0.03821423 0.00890726 0.02494581
v -0.03867634 0.00890726 0.02498112
v -0.03821423 0.00937598 0.02498112
f 1 2 9
f 1 9 23
f 1 23 45
f 1 45 46
f 1 46 50
f 1 50 69
f 1 69 95
f 1 95 131
f 1 131 174
f 1 174 173
f 1 173 224
f 1 224 291
f 1 291 334
f 1 334 337
f 1 337 336
f 1 336 375
f 1 375 374
f 1 374 373
f 1 373 414
f 1 414 442
f 1 442 458
f 1 458 470
f 1 470 476
f 1 476 483
f 1 483 484
f 1 484 479
f 1 479 474
f 1 474 469
f 1 469 468
f 1 468 462
f 1 462 461
f 1 461 465
f 1 465 472
f 1 472 459
f 1 459 445
f 1 445 419
f 1 419 381
f 1 381 418
f 1 418 447
f 1 447 432
f 1 432 431
f 1 431 430
f 1 430 399
f 1 399 358
f 1 358 311
f 1 311 310
f 1 310 257
f 1 257 259
f 1 259 256
f 1 256 197
f 1 197 196
f 1 196 199
f 1 199 195
f 1 195 154
f 1 154 107
f 1 107 81
f 1 81 57
f 1 57 35
f 1 35 15
f 1 15 3
f 1 3 4
f 1 4 5
f 1 5 6
f 1 6 7
f 1 7 2
f 2 8 9
f 2 7 10
f 2 10 8
f 3 11 12
f 3 12 13
f 3 13 14
f 3 14 4
f 3 15 11
f 4 14 13
f 4 13 16
f 4 16 17
f 4 17 18
f 4 18 5
f 5 18 19
f 5 19 20
f 5 20 21
f 5 21 22
f 5 22 6
f 6 22 7
f 7 22 10
f 8 23 9
f 8 10 23
f 10 24 25
f 10 25 23
f 10 22 21
f 10 21 26
f 10 26 24
f 11 15 27
f 11 27 12
f 12 27 28
f 12 28 29
f 12 29 13
f 13 29 30
f 13 30 31
f 13 31 32
f 13 32 33
f 13 33 16
f 15 34 28
f 15 28 27
f 15 35 36
f 15 36 37
f 15 37 34
f 16 33 17
f 17 33 38
f 17 38 18
f 18 38 19
f 19 38 21
f 19 21 20
f 21 38 39
f 21 39 40
f 21 40 41
f 21 41 42
f 21 42 43
f 21 43 44
f 21 44 26
f 23 25 45
f 24 46 45
f 24 45 25
f 24 26 47
f 24 47 46
f 26 44 48
f 26 48 49
f 26 49 50
f 26 50 47
f 28 34 29
f 29 34 51
f 29 51 30
f 30 52 31
f 30 51 53
f 30 53 54
f 30 54 52
f 31 52 32
f 32 52 33
f 33 52 55
f 33 55 38
f 34 37 56
f 34 56 51
f 35 57 58
f 35 58 37
f 35 37 36
f 37 58 59
f 37 59 60
f 37 60 61
f 37 61 62
f 37 62 51
f 37 51 56
f 38 55 63
f 38 63 39
f 39 63 64
f 39 64 65
f 39 65 40
f 40 65 41
f 41 65 42
f 42 65 43
f 43 65 66
f 43 66 67
f 43 67 93
f 43 93 128
f 43 128 172
f 43 172 223
f 43 223 290
f 43 290 333
f 43 333 368
f 43 368 371
f 43 371 412
f 43 412 440
f 43 440 439
f 43 439 437
f 43 437 456
f 43 456 455
f 43 455 454
f 43 454 467
f 43 467 473
f 43 473 475
f 43 475 481
f 43 481 482
f 43 482 478
f 43 478 477
f 43 477 471
f 43 471 457
f 43 457 441
f 43 441 413
f 43 413 372
f 43 372 335
f 43 335 292
f 43 292 225
f 43 225 175
f 43 175 130
f 43 130 129
f 43 129 94
f 43 94 68
f 43 68 49
f 43 49 48
f 43 48 44
f 46 47 50
f 49 68 69
f 49 69 50
f 51 62 61
f 51 61 53
f 52 70 55
f 52 54 71
f 52 71 72
f 52 72 73
f 52 73 74
f 52 74 70
f 53 61 54
f 54 61 75
f 54 75 76
f 54 76 77
f 54 77 72
f 54 72 71
f 55 70 78
f 55 78 79
f 55 79 64
f 55 64 63
f 57 80 59
f 57 59 58
f 57 81 106
f 57 106 80
f 59 82 60
f 59 80 83
f 59 83 84
f 59 84 82
f 60 82 75
f 60 75 61
f 64 79 85
f 64 85 65
f 65 85 86
f 65 86 87
f 65 87 88
f 65 88 89
f 65 89 66
f 66 89 90
f 66 90 67
f 67 90 91
f 67 91 92
f 67 92 93
f 68 94 69
f 69 94 95
f 70 74 96
f 70 96 78
f 72 77 97
f 72 97 73
f 73 97 98
f 73 98 74
f 74 98 96
f 75 82 76
f 76 99 100
f 76 100 101
f 76 101 102
f 76 102 103
f 76 103 77
f 76 82 99
f 77 103 104
f 77 104 97
f 78 96 105
f 78 105 85
f 78 85 79
f 80 106 83
f 81 107 106
f 82 84 99
f 83 106 84
f 84 106 153
f 84 153 108
f 84 108 109
f 84 109 110
f 84 110 99
f 85 105 111
f 85 111 112
f 85 112 113
f 85 113 114
f 85 114 86
f 86 115 116
f 86 116 117
f 86 117 87
f 86 114 118
f 86 118 119
f 86 119 120
f 86 120 115
f 87 117 88
f 88 117 116
f 88 116 115
f 88 115 121
f 88 121 122
f 88 122 123
f 88 123 89
f 89 123 90
f 90 123 124
f 90 124 91
f 91 125 126
f 91 126 93
f 91 93 92
f 91 124 125
f 93 126 127
f 93 127 128
f 94 129 95
f 95 129 130
f 95 130 131
f 96 98 132
f 96 132 133
f 96 133 105
f 97 104 134
f 97 134 135
f 97 135 136
f 97 136 137
f 97 137 138
f 97 138 98
f 98 138 139
f 98 139 132
f 99 110 100
f 100 110 140
f 100 140 101
f 101 141 102
f 101 140 142
f 101 142 143
f 101 143 144
f 101 144 141
f 102 141 145
f 102 145 146
f 102 146 103
f 103 147 104
f 103 146 148
f 103 148 149
f 103 149 150
f 103 150 147
f 104 147 151
f 104 151 152
f 104 152 134
f 105 133 112
f 105 112 111
f 106 107 153
f 107 154 153
f 108 153 109
f 109 155 156
f 109 156 140
f 109 140 110
f 109 153 157
f 109 157 158
f 109 158 155
f 112 133 159
f 112 159 113
f 113 159 160
f 113 160 114
f 114 160 118
f 115 120 161
f 115 161 121
f 118 160 162
f 118 162 120
f 118 120 119
f 120 162 163
f 120 163 161
f 121 161 164
f 121 164 165
f 121 165 122
f 122 165 166
f 122 166 123
f 123 166 124
f 124 166 125
f 125 167 168
f 125 168 126
f 125 166 167
f 126 168 169
f 126 169 127
f 127 169 170
f 127 170 171
f 127 171 128
f 128 171 172
f 130 173 174
f 130 174 131
f 130 175 173
f 132 139 159
f 132 159 133
f 134 152 176
f 134 176 177
f 134 177 178
f 134 178 135
f 135 179 136
f 135 178 180
f 135 180 179
f 136 179 181
f 136 181 182
f 136 182 183
f 136 183 137
f 137 184 138
f 137 183 184
f 138 184 185
f 138 185 186
f 138 186 159
f 138 159 139
f 140 156 142
f 141 144 145
f 142 156 187
f 142 187 144
f 142 144 143
f 144 187 188
f 144 188 145
f 145 188 189
f 145 189 146
f 146 189 148
f 147 150 151
f 148 189 149
f 149 189 190
f 149 190 191
f 149 191 150
f 150 192 151
f 150 191 193
f 150 193 194
f 150 194 176
f 150 176 192
f 151 192 176
f 151 176 152
f 153 154 157
f 154 195 157
f 155 196 197
f 155 197 198
f 155 198 156
f 155 158 199
f 155 199 196
f 156 198 200
f 156 200 201
f 156 201 187
f 157 195 199
f 157 199 158
f 159 186 202
f 159 202 203
f 159 203 204
f 159 204 205
f 159 205 160
f 160 206 207
f 160 207 163
f 160 163 162
f 160 205 208
f 160 208 209
f 160 209 210
f 160 210 211
f 160 211 206
f 161 163 212
f 161 212 213
f 161 213 164
f 163 207 212
f 164 167 165
f 164 213 207
f 164 207 206
f 164 206 214
f 164 214 215
f 164 215 167
f 165 167 166
f 167 215 168
f 168 215 216
f 168 216 169
f 169 216 217
f 169 217 218
f 169 218 219
f 169 219 170
f 170 219 171
f 171 219 220
f 171 220 172
f 172 220 221
f 172 221 222
f 172 222 223
f 173 175 225
f 173 225 224
f 176 194 226
f 176 226 227
f 176 227 228
f 176 228 177
f 177 229 230
f 177 230 178
f 177 228 227
f 177 227 193
f 177 193 229
f 178 230 180
f 179 180 231
f 179 231 232
f 179 232 233
f 179 233 234
f 179 234 235
f 179 235 181
f 180 230 236
f 180 236 231
f 181 235 182
f 182 235 234
f 182 234 237
f 182 237 185
f 182 185 183
f 183 185 184
f 185 237 238
f 185 238 239
f 185 239 240
f 185 240 241
f 185 241 186
f 186 241 242
f 186 242 202
f 187 201 243
f 187 243 244
f 187 244 245
f 187 245 188
f 188 245 246
f 188 246 247
f 188 247 248
f 188 248 189
f 189 248 249
f 189 249 250
f 189 250 190
f 190 250 251
f 190 251 252
f 190 252 191
f 191 252 253
f 191 253 193
f 193 227 226
f 193 226 194
f 193 253 254
f 193 254 255
f 193 255 229
f 197 256 200
f 197 200 198
f 200 257 258
f 200 258 201
f 200 256 259
f 200 259 257
f 201 258 260
f 201 260 243
f 202 242 203
f 203 242 204
f 204 242 261
f 204 261 262
f 204 262 205
f 205 262 208
f 206 211 263
f 206 263 264
f 206 264 265
f 206 265 266
f 206 266 267
f 206 267 214
f 207 213 212
f 208 262 268
f 208 268 209
f 209 268 269
f 209 269 270
f 209 270 271
f 209 271 272
f 209 272 210
f 210 272 211
f 211 272 263
f 214 273 215
f 214 267 274
f 214 274 275
f 214 275 276
f 214 276 277
f 214 277 278
f 214 278 279
f 214 279 273
f 215 273 280
f 215 280 281
f 215 281 216
f 216 281 282
f 216 282 283
f 216 283 284
f 216 284 217
f 217 285 218
f 217 284 286
f 217 286 287
f 217 287 285
f 218 285 287
f 218 287 288
f 218 288 219
f 219 288 220
f 220 288 221
f 221 287 289
f 221 289 222
f 221 288 287
f 222 289 290
f 222 290 223
f 224 225 291
f 225 292 291
f 229 255 230
f 230 255 293
f 230 293 294
f 230 294 295
f 230 295 296
f 230 296 297
f 230 297 236
f 231 236 298
f 231 298 232
f 232 298 299
f 232 299 233
f 233 299 234
f 234 299 300
f 234 300 237
f 236 297 298
f 237 300 301
f 237 301 238
f 238 301 239
f 239 301 240
f 240 301 241
f 241 301 242
f 242 301 302
f 242 302 261
f 243 260 244
f 244 303 304
f 244 304 245
f 244 260 303
f 245 304 246
f 246 304 305
f 246 305 247
f 247 305 306
f 247 306 251
f 247 251 307
f 247 307 248
f 248 307 249
f 249 307 251
f 249 251 250
f 251 306 308
f 251 308 252
f 252 308 253
f 253 308 254
f 254 308 309
f 254 309 293
f 254 293 255
f 257 310 260
f 257 260 258
f 260 310 311
f 260 311 312
f 260 312 351
f 260 351 303
f 261 302 262
f 262 302 313
f 262 313 268
f 263 272 264
f 264 272 314
f 264 314 265
f 265 314 274
f 265 274 266
f 266 274 267
f 268 313 315
f 268 315 269
f 269 316 270
f 269 315 316
f 270 316 271
f 271 316 272
f 272 316 317
f 272 317 318
f 272 318 314
f 273 279 319
f 273 319 320
f 273 320 280
f 274 314 318
f 274 318 321
f 274 321 322
f 274 322 275
f 275 322 276
f 276 322 277
f 277 322 323
f 277 323 278
f 278 323 279
f 279 323 324
f 279 324 325
f 279 325 326
f 279 326 319
f 280 327 281
f 280 320 328
f 280 328 329
f 280 329 286
f 280 286 327
f 281 327 282
f 282 327 286
f 282 286 283
f 283 286 284
f 286 329 330
f 286 330 331
f 286 331 287
f 287 331 289
f 289 331 332
f 289 332 333
f 289 333 290
f 291 292 334
f 292 335 336
f 292 336 337
f 292 337 334
f 293 338 339
f 293 339 340
f 293 340 294
f 293 309 338
f 294 340 341
f 294 341 295
f 295 341 296
f 296 341 342
f 296 342 297
f 297 343 299
f 297 299 298
f 297 342 344
f 297 344 345
f 297 345 346
f 297 346 343
f 299 343 347
f 299 347 300
f 300 347 343
f 300 343 348
f 300 348 301
f 301 348 349
f 301 349 350
f 301 350 302
f 302 350 315
f 302 315 313
f 303 351 305
f 303 305 304
f 305 351 352
f 305 352 306
f 306 353 308
f 306 352 354
f 306 354 355
f 306 355 356
f 306 356 353
f 308 353 309
f 309 357 338
f 309 353 357
f 311 358 359
f 311 359 312
f 312 359 351
f 315 360 361
f 315 361 362
f 315 362 363
f 315 363 364
f 315 364 318
f 315 318 317
f 315 317 316
f 315 350 360
f 318 364 321
f 319 326 320
f 320 326 330
f 320 330 328
f 321 364 322
f 322 364 323
f 323 364 324
f 324 364 325
f 325 364 330
f 325 330 326
f 328 330 329
f 330 364 365
f 330 365 366
f 330 366 331
f 331 366 367
f 331 367 332
f 332 368 333
f 332 367 369
f 332 369 370
f 332 370 371
f 332 371 368
f 335 372 373
f 335 373 374
f 335 374 375
f 335 375 336
f 338 376 377
f 338 377 340
f 338 340 339
f 338 357 356
f 338 356 355
f 338 355 378
f 338 378 379
f 338 379 380
f 338 380 381
f 338 381 376
f 340 377 382
f 340 382 341
f 341 382 383
f 341 383 384
f 341 384 385
f 341 385 386
f 341 386 344
f 341 344 342
f 343 346 387
f 343 387 348
f 344 388 389
f 344 389 346
f 344 346 345
f 344 386 390
f 344 390 388
f 346 389 391
f 346 391 392
f 346 392 387
f 348 350 349
f 348 387 393
f 348 393 394
f 348 394 350
f 350 394 395
f 350 395 360
f 351 354 352
f 351 359 396
f 351 396 397
f 351 397 398
f 351 398 378
f 351 378 354
f 353 356 357
f 354 378 355
f 358 399 396
f 358 396 359
f 360 395 400
f 360 400 401
f 360 401 361
f 361 401 402
f 361 402 362
f 362 403 363
f 362 402 404
f 362 404 403
f 363 365 364
f 363 403 365
f 365 403 405
f 365 405 406
f 365 406 366
f 366 406 367
f 367 406 407
f 367 407 369
f 369 407 408
f 369 408 370
f 370 409 410
f 370 410 411
f 370 411 412
f 370 412 371
f 370 408 409
f 372 413 373
f 373 413 414
f 376 415 416
f 376 416 377
f 376 381 415
f 377 416 382
f 378 398 417
f 378 417 379
f 379 417 380
f 380 417 418
f 380 418 381
f 381 419 415
f 382 420 383
f 382 416 420
f 383 420 384
f 384 420 421
f 384 421 422
f 384 422 423
f 384 423 385
f 385 390 386
f 385 423 424
f 385 424 425
f 385 425 390
f 387 392 426
f 387 426 427
f 387 427 400
f 387 400 393
f 388 390 389
f 389 390 391
f 390 428 391
f 390 425 429
f 390 429 428
f 391 428 392
f 392 428 426
f 393 395 394
f 393 400 395
f 396 399 430
f 396 430 397
f 397 430 398
f 398 430 431
f 398 431 432
f 398 432 447
f 398 447 417
f 400 433 429
f 400 429 425
f 400 425 424
f 400 424 401
f 400 427 433
f 401 424 434
f 401 434 402
f 402 434 404
f 403 404 405
f 404 434 435
f 404 435 405
f 405 435 407
f 405 407 406
f 407 435 408
f 408 435 434
f 408 434 424
f 408 424 436
f 408 436 409
f 409 437 438
f 409 438 439
f 409 439 410
f 409 436 437
f 410 439 440
f 410 440 411
f 411 440 412
f 413 441 414
f 414 441 442
f 415 419 443
f 415 443 416
f 416 443 444
f 416 444 445
f 416 445 446
f 416 446 420
f 417 447 418
f 419 445 444
f 419 444 443
f 420 446 421
f 421 448 449
f 421 449 422
f 421 446 450
f 421 450 448
f 422 451 452
f 422 452 423
f 422 449 451
f 423 452 424
f 424 452 453
f 424 453 436
f 426 428 427
f 427 428 433
f 428 429 433
f 436 454 455
f 436 455 456
f 436 456 437
f 436 453 454
f 437 439 438
f 441 457 442
f 442 457 458
f 445 459 446
f 446 460 450
f 446 459 460
f 448 450 460
f 448 460 449
f 449 461 462
f 449 462 463
f 449 463 451
f 449 460 464
f 449 464 465
f 449 465 461
f 451 463 453
f 451 453 452
f 453 463 462
f 453 462 466
f 453 466 454
f 454 466 468
f 454 468 469
f 454 469 467
f 457 470 458
f 457 471 470
f 459 472 460
f 460 472 464
f 462 468 466
f 464 472 465
f 467 469 473
f 469 474 475
f 469 475 473
f 470 471 477
f 470 477 478
f 470 478 476
f 474 479 480
f 474 480 475
f 475 480 481
f 476 478 482
f 476 482 483
f 479 484 480
f 480 484 482
f 480 482 481
f 482 484 485
f 482 485 483
f 483 485 484

