# https://github.com/mikedh/trimesh
v 0.02808887 0.02757570 0.02591186
v 0.02939052 0.02627769 0.02590684
v 0.03589084 0.05096928 0.02554560
v 0.02939052 0.05486920 0.02557571
v 0.02679118 0.05357119 0.02561584
v 0.02679118 0.02887370 0.02590684
v 0.02547366 0.02886780 0.02589179
v 0.03849018 -0.00007771 0.02582155
v 0.03649802 0.00937413 0.02586670
v 0.03719250 0.00937413 0.02586670
v 0.03849018 0.04836737 0.02553557
v 0.03719250 0.04967128 0.02554059
v 0.04368886 0.01587595 0.02576636
v 0.04368886 0.01847786 0.02575632
v 0.04368886 0.02107387 0.02574629
v 0.03719250 0.05096928 0.02552052
v 0.03069217 0.05486920 0.02555564
v 0.02939052 0.05616721 0.02555062
v 0.02548953 0.05747111 0.02557571
v 0.02548953 0.05357119 0.02562588
v 0.02520777 0.03017171 0.02588677
v 0.02520777 0.05328799 0.02563090
v 0.02520777 0.05198999 0.02564595
v 0.02520777 0.02899760 0.02588677
v 0.03722821 -0.00007771 0.02519440
v 0.06283664 -0.00007771 0.02541516
v 0.06188818 0.00287230 0.02544024
v 0.04499051 0.01327404 0.02575131
v 0.02520777 0.02861410 0.02584663
v 0.04499051 0.01457794 0.02575131
v 0.04108952 0.04706937 0.02550547
v 0.05148687 0.03407162 0.02549042
v 0.05148687 0.03536962 0.02547536
v 0.04888753 0.03926954 0.02547035
v 0.03849018 0.04967128 0.02551550
v 0.04499051 0.01847786 0.02573626
v 0.04499051 0.01977587 0.02573124
v 0.05538786 0.02497379 0.02549543
v 0.05538786 0.02627769 0.02548540
v 0.05538786 0.02757570 0.02547536
v 0.04368886 0.04577136 0.02546031
v 0.04239117 0.04706937 0.02545530
v 0.03589084 0.05226729 0.02550547
v 0.02808887 0.05747111 0.02550045
v 0.02679118 0.05747111 0.02555564
v 0.02520777 0.05747111 0.02557571
v 0.02520777 0.05718791 0.02558072
v 0.02520777 0.05876912 0.02548540
v 0.03662104 -0.00007771 0.02389998
v 0.02520777 0.02799460 0.02561083
v 0.02520777 0.02758750 0.02528471
v 0.06318587 -0.00007771 0.02540513
v 0.06318587 0.00027629 0.02541014
v 0.06188818 0.00677222 0.02545028
v 0.04628820 0.01457794 0.02572622
v 0.04888753 0.01587595 0.02567103
v 0.04888753 0.01847786 0.02566100
v 0.04628820 0.04316945 0.02545028
v 0.05278852 0.03407162 0.02546533
v 0.05018522 0.03797154 0.02546031
v 0.04628820 0.01977587 0.02570615
v 0.05798720 0.02107387 0.02547035
v 0.05798720 0.02237778 0.02546031
v 0.05668554 0.02757570 0.02544526
v 0.04628820 0.04446746 0.02522952
v 0.04108952 0.04836737 0.02544024
v 0.03979184 0.04967128 0.02541516
v 0.03849018 0.05096928 0.02538004
v 0.03458919 0.05357119 0.02542519
v 0.03069217 0.05616721 0.02540513
v 0.02947783 0.05757141 0.02510410
v 0.02808887 0.05860982 0.02499372
v 0.02548953 0.05876912 0.02546533
v 0.02520777 0.05983702 0.02496362
v 0.03664485 -0.00007771 -0.02029595
v 0.02520777 0.02683819 0.02389998
v 0.06448752 -0.00007771 0.02524959
v 0.06318587 0.00417621 0.02542018
v 0.06318587 0.00677222 0.02542018
v 0.06188818 0.00807612 0.02544526
v 0.05018522 0.01717395 0.02564093
v 0.04758588 0.04187145 0.02544024
v 0.05278852 0.03536962 0.02542519
v 0.05148687 0.03666763 0.02545028
v 0.05538786 0.03017171 0.02544526
v 0.05408620 0.03276772 0.02544024
v 0.05928488 0.02107387 0.02544024
v 0.06058653 0.01587595 0.02544024
v 0.05798720 0.02627769 0.02540011
v 0.05928488 0.02237778 0.02542519
v 0.04724856 0.04446746 0.02478802
v 0.04628820 0.04545866 0.02478802
v 0.04476828 0.04679797 0.02483819
v 0.04378410 0.04716967 0.02506898
v 0.04244276 0.04843227 0.02504891
v 0.04888753 0.04056755 0.02541516
v 0.05018522 0.03926954 0.02537502
v 0.05148687 0.03797154 0.02532987
v 0.05021299 0.04057934 0.02499874
v 0.04895103 0.04192455 0.02503887
v 0.04856212 0.04290986 0.02482314
v 0.03975612 0.05095749 0.02495860
v 0.03719250 0.05226729 0.02529976
v 0.04109746 0.04969488 0.02500877
v 0.03591862 0.05363610 0.02503887
v 0.03069217 0.05718791 0.02490843
v 0.02910479 0.05835021 0.02481812
v 0.02655704 0.05957152 0.02477798
v 0.02548953 0.05976032 0.02496362
v 0.02520777 0.06019692 0.02389998
v 0.03664882 -0.00007771 -0.02159539
v 0.02520777 0.02686769 0.00700228
v 0.02520777 0.02690309 -0.00859600
v 0.02520777 0.02698569 -0.02159539
v 0.06511851 -0.00007771 0.02494355
v 0.06448752 0.00027629 0.02524959
v 0.06318587 0.00807612 0.02541516
v 0.06188818 0.00937413 0.02544024
v 0.05668554 0.02887370 0.02540011
v 0.05538786 0.03146971 0.02537502
v 0.05408620 0.03407162 0.02531983
v 0.06058653 0.01717395 0.02543021
v 0.05798720 0.02757570 0.02526966
v 0.05928488 0.02367578 0.02538004
v 0.06188818 0.01457794 0.02540513
v 0.06188818 0.01587595 0.02538004
v 0.04695886 0.04514596 0.02458231
v 0.04341107 0.04804288 0.02482314
v 0.05278852 0.03666763 0.02520444
v 0.05147893 0.03924004 0.02494355
v 0.04980028 0.04152925 0.02479303
v 0.04204592 0.04927598 0.02479805
v 0.04066886 0.05051498 0.02475791
v 0.03929975 0.05175399 0.02471276
v 0.03839891 0.05222009 0.02487331
v 0.03719250 0.05319949 0.02482314
v 0.03458919 0.05466270 0.02493853
v 0.02929528 0.05846231 0.02389998
v 0.02808887 0.05909362 0.02389998
v 0.03550194 0.05437950 0.02475290
v 0.03790682 0.05296939 0.02462245
v 0.03150570 0.05692241 0.02470273
v 0.02738248 0.05939452 0.02389998
v 0.02673165 0.05963642 0.02389998
v 0.02520777 0.06006712 -0.02289483
v 0.03668851 -0.00007771 -0.02289483
v 0.02520777 0.02703879 -0.02289483
v 0.06535265 -0.00007771 0.02482815
v 0.06534868 0.00027629 0.02482815
v 0.06448752 0.00157430 0.02520946
v 0.06318587 0.01067213 0.02538004
v 0.06318587 0.00937413 0.02540011
v 0.05412192 0.03534603 0.02496863
v 0.05668554 0.03017171 0.02518437
v 0.05547516 0.03283852 0.02502884
v 0.05892772 0.02757570 0.02483317
v 0.05801101 0.02882650 0.02493853
v 0.05928488 0.02497379 0.02523454
v 0.05934043 0.02624229 0.02493853
v 0.06188818 0.01717395 0.02527468
v 0.06058653 0.02107387 0.02525963
v 0.06318587 0.01197603 0.02531482
v 0.05103843 0.04015454 0.02475290
v 0.05227262 0.03878574 0.02470774
v 0.05234802 0.03887424 0.02389998
v 0.05179641 0.03952324 0.02389998
v 0.04818908 0.04376536 0.02389998
v 0.04698267 0.04516956 0.02389998
v 0.04562943 0.04641447 0.02428129
v 0.05365364 0.03666763 0.02476293
v 0.05273693 0.03785354 0.02482815
v 0.03393440 0.05551230 0.02434149
v 0.02994610 0.05805521 0.02389998
v 0.02995801 0.05806701 0.02260055
v 0.02997388 0.05807881 0.02000167
v 0.02930718 0.05846231 0.02260055
v 0.02932306 0.05846231 0.02000167
v 0.02932702 0.05846231 0.01870223
v 0.03004531 0.05812011 -0.02328617
v 0.03004531 0.05812011 -0.02356211
v 0.02951751 0.05837382 -0.02286974
v 0.02808887 0.05899332 -0.02289483
v 0.03795444 0.05300479 0.02389998
v 0.03719250 0.05350039 0.02389998
v 0.03939102 0.05183069 0.02389998
v 0.03860527 0.05247969 0.02389998
v 0.02719200 0.05932961 -0.02289483
v 0.02520777 0.05999042 -0.02391331
v 0.02645783 0.05953612 -0.02419427
v 0.03724806 -0.00007771 -0.02419427
v 0.02520777 0.02708599 -0.02303029
v 0.02520777 0.02766420 -0.02417922
v 0.02520777 0.02777040 -0.02429461
v 0.02520777 0.02800640 -0.02454045
v 0.06557091 -0.00007771 0.02389998
v 0.06557091 0.00027629 0.02389998
v 0.06530899 0.00157430 0.02478802
v 0.06425338 0.01067213 0.02494857
v 0.06448752 0.00287230 0.02516430
v 0.05509419 0.03407162 0.02486829
v 0.05871739 0.02836040 0.02465757
v 0.05623314 0.03244911 0.02476795
v 0.06016191 0.02497379 0.02481310
v 0.06001111 0.02579389 0.02465757
v 0.06038017 0.02367578 0.02494355
v 0.06318587 0.01327404 0.02516932
v 0.06297554 0.01587595 0.02494355
v 0.06278505 0.01717395 0.02484320
v 0.06414227 0.01197603 0.02489338
v 0.05345125 0.03734023 0.02457228
v 0.05299885 0.03801874 0.02389998
v 0.05301076 0.03803644 0.02260055
v 0.05235993 0.03888604 0.02260055
v 0.04820496 0.04377716 0.02260055
v 0.04761366 0.04446746 0.02260055
v 0.04699855 0.04518136 0.02260055
v 0.04615724 0.04593656 0.02386988
v 0.04564133 0.04642037 0.02341332
v 0.04511750 0.04688057 0.02386988
v 0.04425635 0.04764167 0.02389998
v 0.04360552 0.04820808 0.02389998
v 0.04220465 0.04941758 0.02389998
v 0.05484418 0.03489763 0.02469269
v 0.03629166 0.05406680 0.02389998
v 0.03719250 0.05352400 0.02260055
v 0.02998182 0.05808471 0.01610336
v 0.03719250 0.05354169 0.01870223
v 0.03801794 0.05304609 0.00309894
v 0.02993023 0.05803162 -0.02443007
v 0.02945401 0.05832661 -0.02407386
v 0.03801794 0.05304609 0.00179951
v 0.03719250 0.05357119 -0.02159539
v 0.03719250 0.05356530 -0.02289483
v 0.03794650 0.05299299 -0.02396348
v 0.03783142 0.05291039 -0.02483144
v 0.03862511 0.05249739 0.02260055
v 0.03797429 0.05301660 0.02260055
v 0.03940293 0.05184249 0.02260055
v 0.02520777 0.05996682 -0.02419427
v 0.02629513 0.05947712 -0.02489667
v 0.03739489 -0.00007771 -0.02437488
v 0.02520777 0.02828960 -0.02479131
v 0.06574155 -0.00007771 -0.02289483
v 0.06574949 0.00027629 -0.02289483
v 0.06547963 0.00157430 0.02389998
v 0.06516613 0.00511431 0.02460238
v 0.06520978 0.00417621 0.02466761
v 0.06526533 0.00287230 0.02474286
v 0.05975316 0.02653139 0.02389998
v 0.05922535 0.02757570 0.02389998
v 0.05875707 0.02843710 0.02389998
v 0.05734827 0.03083841 0.02456726
v 0.06132467 0.02198837 0.02467764
v 0.06039208 0.02497379 0.02389998
v 0.06004682 0.02588239 0.02389998
v 0.06398750 0.01327404 0.02474788
v 0.06388035 0.01408824 0.02461743
v 0.06263425 0.01810616 0.02468767
v 0.06468594 0.01067213 0.02389998
v 0.05389175 0.03666763 0.02389998
v 0.05346713 0.03736383 0.02389998
v 0.05634822 0.03263792 0.02389998
v 0.05347903 0.03738743 0.02260055
v 0.05301869 0.03804233 0.02130111
v 0.05236787 0.03889194 0.02130111
v 0.04821289 0.04379486 0.02000167
v 0.04700648 0.04519316 0.02130111
v 0.04629613 0.04583037 0.02260055
v 0.04564531 0.04642627 0.02260055
v 0.04630010 0.04584216 0.02130111
v 0.04499051 0.04701627 0.02130111
v 0.04426428 0.04765347 0.02130111
v 0.04360949 0.04821397 0.02260055
v 0.04285945 0.04886298 0.02260055
v 0.03941086 0.05184839 0.02130111
v 0.03798619 0.05302249 0.02130111
v 0.03799413 0.05303429 0.01870223
v 0.03799809 0.05303429 0.01740279
v 0.03866876 0.05253279 0.00309894
v 0.02906114 0.05824991 -0.02494684
v 0.03146602 0.05689881 -0.02490670
v 0.03866876 0.05253279 0.00179951
v 0.03866479 0.05253279 -0.02029595
v 0.03801397 0.05304609 -0.00599210
v 0.03801397 0.05304019 -0.02029595
v 0.03801000 0.05304019 -0.02159539
v 0.03800206 0.05303429 -0.02289483
v 0.03865289 0.05252689 -0.02289483
v 0.03943468 0.05187789 -0.02289483
v 0.03934340 0.05179529 -0.02419427
v 0.03842272 0.05253279 -0.02431468
v 0.03696630 0.05313459 -0.02495687
v 0.03541463 0.05432050 -0.02492175
v 0.03921641 0.05168319 -0.02489165
v 0.03849018 0.05198999 -0.02496691
v 0.03863305 0.05250329 0.02130111
v 0.02520777 0.05974852 -0.02481138
v 0.02548953 0.05959512 -0.02498196
v 0.03780364 -0.00007771 -0.02486656
v 0.02520777 0.02893270 -0.02501708
v 0.06555901 -0.00007771 -0.02384307
v 0.06538439 0.00287230 0.02389998
v 0.06549551 0.00027629 -0.02419427
v 0.06534074 0.00287230 -0.02410898
v 0.06527328 0.00417621 -0.02398355
v 0.06520581 0.00547421 -0.02378788
v 0.06515819 0.00633561 -0.02362733
v 0.06564234 0.00157430 -0.02289483
v 0.06486056 0.00937413 0.02130111
v 0.06527724 0.00417621 0.02389998
v 0.06482484 0.00937413 0.02389998
v 0.05976109 0.02653729 0.02260055
v 0.05923726 0.02757570 0.02260055
v 0.05876104 0.02844890 0.02260055
v 0.05739986 0.03092691 0.02130111
v 0.05738796 0.03090921 0.02260055
v 0.05736812 0.03087381 0.02389998
v 0.05699508 0.03152281 0.02389998
v 0.06136832 0.02212407 0.02389998
v 0.06268187 0.01825366 0.02389998
v 0.06084448 0.02367578 0.02260055
v 0.06039605 0.02497379 0.02000167
v 0.06005079 0.02588829 0.02260055
v 0.06445180 0.01197603 0.02389998
v 0.06413830 0.01327404 0.02389998
v 0.06390019 0.01417084 0.02389998
v 0.06371764 0.01481985 0.02389998
v 0.06342000 0.01587595 0.02389998
v 0.06303110 0.01717395 0.02389998
v 0.06470578 0.01067213 0.02260055
v 0.06485262 0.00937413 0.02260055
v 0.05597122 0.03331052 0.02260055
v 0.05701492 0.03155821 0.02260055
v 0.05636410 0.03266151 0.02260055
v 0.05348300 0.03738743 0.02130111
v 0.05348300 0.03739333 0.02000167
v 0.05637600 0.03267332 0.02130111
v 0.05638394 0.03267922 0.02000167
v 0.05302266 0.03804233 0.02000167
v 0.05237183 0.03889784 0.01870223
v 0.04770890 0.04447926 0.00440340
v 0.04705807 0.04524626 0.00440340
v 0.04764937 0.04446746 0.01870223
v 0.04701442 0.04520496 0.01870223
v 0.04630804 0.04584807 0.02000167
v 0.04565721 0.04643807 0.02000167
v 0.04566515 0.04644397 0.01740279
v 0.04569690 0.04646757 0.00440340
v 0.04426825 0.04765937 0.01870223
v 0.04361743 0.04821988 0.02000167
v 0.03941880 0.05186019 0.01870223
v 0.04006566 0.05129379 0.02000167
v 0.03864495 0.05250919 0.01870223
v 0.03866479 0.05253279 0.00440340
v 0.03944658 0.05188379 0.00309894
v 0.03069217 0.05713481 -0.02499199
v 0.02945401 0.05754781 -0.02507227
v 0.02808887 0.05841512 -0.02502711
v 0.03944658 0.05188379 -0.02029595
v 0.03866083 0.05253279 -0.02159539
v 0.03943864 0.05188379 -0.02159539
v 0.04567308 0.04644987 -0.02289483
v 0.04566118 0.04643807 -0.02363235
v 0.03586307 0.05357119 -0.02503213
v 0.03458919 0.05456240 -0.02499701
v 0.03193430 0.05615541 -0.02503715
v 0.04056171 0.05042648 -0.02491674
v 0.03970453 0.05090439 -0.02498697
v 0.04701045 0.04519316 -0.02379791
v 0.04681203 0.04499256 -0.02466588
v 0.03849018 0.05096928 -0.02514752
v 0.03731552 0.05239709 -0.02505220
v 0.02520777 0.05964232 -0.02499701
v 0.02520777 0.05899332 -0.02517261
v 0.03849018 -0.00007771 -0.02499701
v 0.02520777 0.02906250 -0.02504718
v 0.02520777 0.03014811 -0.02519769
v 0.02520777 0.03044901 -0.02523783
v 0.06548757 -0.00007771 -0.02419427
v 0.06517803 0.00027629 -0.02487158
v 0.06515819 0.00120849 -0.02486155
v 0.06536455 0.00161560 -0.02430966
v 0.06517406 -0.00007771 -0.02487158
v 0.06508279 0.00207580 -0.02482141
v 0.06432878 0.01067213 -0.02419427
v 0.06470975 0.01067213 -0.02289483
v 0.06488040 0.00937413 -0.02289483
v 0.06539233 0.00417621 -0.02289483
v 0.06551932 0.00287230 -0.02289483
v 0.06486849 0.00937413 0.01740279
v 0.06486452 0.00937413 0.02000167
v 0.06471769 0.01067213 0.02130111
v 0.05976109 0.02654319 0.02130111
v 0.05923726 0.02757570 0.01740279
v 0.05876104 0.02845480 0.02000167
v 0.05782846 0.03017171 0.01870223
v 0.05782449 0.03017171 0.02000167
v 0.05740383 0.03093871 0.02000167
v 0.05703476 0.03158771 0.02000167
v 0.05702683 0.03157591 0.02130111
v 0.06172945 0.02107387 0.02260055
v 0.06137229 0.02212407 0.02260055
v 0.06247154 0.01891446 0.01740279
v 0.06218185 0.01977587 0.01870223
v 0.06216995 0.01977587 0.02260055
v 0.06084448 0.02367578 0.01740279
v 0.06039605 0.02497379 0.01740279
v 0.06005079 0.02588829 0.01349946
v 0.06445974 0.01197603 0.02130111
v 0.06445974 0.01197603 0.01870223
v 0.06444387 0.01197603 -0.02159539
v 0.06390019 0.01415314 0.01870223
v 0.06372161 0.01480805 0.02130111
v 0.06372161 0.01480805 0.02260055
v 0.06370177 0.01473725 -0.01379375
v 0.06337636 0.01587595 -0.01379375
v 0.06298745 0.01717395 -0.01249431
v 0.06266203 0.01820646 -0.01379375
v 0.06247154 0.01891446 0.01610336
v 0.05638791 0.03267922 0.01870223
v 0.05598710 0.03334002 -0.00989543
v 0.05348300 0.03739333 0.01480392
v 0.05638791 0.03268512 0.01740279
v 0.05638791 0.03269102 -0.00989543
v 0.05703874 0.03159361 0.01870223
v 0.05302266 0.03804233 0.01480392
v 0.05237580 0.03889784 0.01610336
v 0.04770890 0.04447926 -0.00079435
v 0.04634772 0.04589526 0.00309894
v 0.04634375 0.04589526 0.00440340
v 0.04631200 0.04585396 0.01870223
v 0.04702236 0.04520496 0.01740279
v 0.04705807 0.04524626 -0.00339323
v 0.04569690 0.04646757 0.00179951
v 0.03944261 0.05188379 0.00440340
v 0.04007360 0.05129969 0.01740279
v 0.03069217 0.05616721 -0.02520271
v 0.02808887 0.05747111 -0.02524285
v 0.02548953 0.05876912 -0.02520271
v 0.04569292 0.04646757 -0.00469267
v 0.04567705 0.04644987 -0.02159539
v 0.04632391 0.04588346 -0.02289483
v 0.04704617 0.04522856 -0.02289483
v 0.03458919 0.05357119 -0.02518766
v 0.04190702 0.04916388 -0.02493179
v 0.04103396 0.04962408 -0.02500704
v 0.04824861 0.04383026 -0.02358719
v 0.04718109 0.04412526 -0.02493680
v 0.04594691 0.04538786 -0.02494182
v 0.04325630 0.04790127 -0.02494182
v 0.04984790 0.04160005 -0.02419427
v 0.05087176 0.03996574 -0.02486656
v 0.04965344 0.04136405 -0.02490670
v 0.03589084 0.05226729 -0.02520773
v 0.04235943 0.04834967 -0.02502209
v 0.03979184 0.04967128 -0.02515756
v 0.02520777 0.05876912 -0.02522278
v 0.03979184 -0.00007771 -0.02510237
v 0.02520777 0.03146971 -0.02526292
v 0.06448752 0.00027629 -0.02496189
v 0.06401528 0.00807612 -0.02492677
v 0.06396765 0.00937413 -0.02490670
v 0.06389622 0.01067213 -0.02487660
v 0.06384860 0.01139783 -0.02485151
v 0.06448752 -0.00007771 -0.02495687
v 0.06407877 0.01188753 -0.02426953
v 0.06396369 0.01327404 -0.02386815
v 0.06443196 0.01197603 -0.02289483
v 0.06471372 0.01067213 -0.02159539
v 0.06386447 0.01401744 -0.02363235
v 0.06472166 0.01067213 0.01870223
v 0.06472166 0.01067213 0.02000167
v 0.05976109 0.02654319 0.01870223
v 0.05922139 0.02757570 -0.02289483
v 0.05876104 0.02845480 0.01610336
v 0.05975712 0.02652549 -0.02289483
v 0.05782846 0.03017171 0.01740279
v 0.05740383 0.03094461 0.01870223
v 0.06218185 0.01977587 0.01740279
v 0.06036827 0.02497379 -0.02289483
v 0.06004285 0.02587649 -0.02289483
v 0.06409068 0.01327404 -0.02289483
v 0.06409464 0.01327404 -0.02159539
v 0.06387638 0.01406464 -0.02289483
v 0.06369383 0.01471955 -0.02289483
v 0.06336048 0.01587595 -0.02159539
v 0.06297157 0.01717395 -0.02159539
v 0.06298348 0.01717395 -0.01509319
v 0.06266203 0.01820056 -0.01509319
v 0.06244377 0.01884366 -0.02029595
v 0.06213423 0.01977587 -0.02029595
v 0.06081273 0.02367578 -0.02289483
v 0.05598710 0.03334002 -0.01509319
v 0.05347506 0.03737563 -0.02159539
v 0.05302266 0.03803644 -0.00469267
v 0.05638791 0.03269102 -0.01509319
v 0.05703874 0.03158181 -0.01379375
v 0.05740383 0.03094461 0.01740279
v 0.05237183 0.03889784 -0.00599210
v 0.04633978 0.04589526 -0.00469267
v 0.04769303 0.04448516 -0.02289483
v 0.03198986 0.05486920 -0.02523783
v 0.02679118 0.05747111 -0.02527797
v 0.02939052 0.05616721 -0.02526793
v 0.04880023 0.04316945 -0.02289483
v 0.04943915 0.04240245 -0.02289483
v 0.05182022 0.03954094 -0.02289483
v 0.05235993 0.03889194 -0.02289483
v 0.05228850 0.03880344 -0.02389324
v 0.04760175 0.04317536 -0.02500704
v 0.04634375 0.04452056 -0.02501708
v 0.04885578 0.04182425 -0.02498697
v 0.04501829 0.04580086 -0.02502209
v 0.04368886 0.04706347 -0.02502711
v 0.05049872 0.04080945 -0.02419427
v 0.05012569 0.04046724 -0.02494684
v 0.05202261 0.03848484 -0.02476120
v 0.05349094 0.03612483 -0.02487660
v 0.05230834 0.03762343 -0.02490670
v 0.04108952 0.04836737 -0.02516759
v 0.04239117 0.04706937 -0.02517261
v 0.03719250 0.05096928 -0.02520773
v 0.02520777 0.05774841 -0.02529302
v 0.02520777 0.04085075 -0.02533316
v 0.05278852 0.00027629 -0.02506725
v 0.05018522 -0.00007771 -0.02507227
v 0.02520777 0.03175291 -0.02526793
v 0.02520777 0.03276772 -0.02527797
v 0.02520777 0.03926954 -0.02532312
v 0.06318587 -0.00007771 -0.02502209
v 0.06318587 0.00027629 -0.02502209
v 0.06318587 0.00677222 -0.02501708
v 0.06318587 0.00807612 -0.02501206
v 0.06318587 0.00937413 -0.02499701
v 0.06270965 0.01457794 -0.02491674
v 0.06259854 0.01587595 -0.02487660
v 0.06253901 0.01653675 -0.02484649
v 0.06335651 0.01587595 -0.02289483
v 0.06270568 0.01705596 -0.02418925
v 0.06261044 0.01804716 -0.02374774
v 0.06296364 0.01717395 -0.02289483
v 0.05871342 0.02836040 -0.02374774
v 0.05736812 0.03087381 -0.02362733
v 0.05875311 0.02843120 -0.02289483
v 0.05739590 0.03092101 -0.02029595
v 0.05739986 0.03093281 -0.01249431
v 0.05840785 0.02910380 0.01480392
v 0.06000714 0.02579389 -0.02373269
v 0.06265409 0.01818876 -0.02159539
v 0.06244377 0.01883776 -0.02159539
v 0.06213026 0.01977587 -0.02159539
v 0.06135245 0.02207098 -0.02289483
v 0.06131276 0.02195297 -0.02376279
v 0.05598313 0.03333412 -0.02029595
v 0.05347109 0.03737563 -0.02289483
v 0.05301076 0.03802464 -0.02289483
v 0.05703080 0.03157591 -0.02029595
v 0.05637997 0.03267922 -0.02029595
v 0.03329151 0.05357119 -0.02523783
v 0.02520777 0.05747111 -0.02530305
v 0.03849018 0.04967128 -0.02520773
v 0.03069217 0.05486920 -0.02526292
v 0.02548953 0.05616721 -0.02531810
v 0.02520777 0.05645040 -0.02531810
v 0.05345919 0.03735793 -0.02361730
v 0.04628820 0.04316945 -0.02514251
v 0.04888753 0.04056755 -0.02510237
v 0.04758588 0.04187145 -0.02512244
v 0.04499051 0.04446746 -0.02515756
v 0.05276074 0.03660273 -0.02494684
v 0.05317743 0.03699213 -0.02448526
v 0.05365364 0.03660273 -0.02410898
v 0.05602281 0.03210101 -0.02483646
v 0.05736812 0.02959350 -0.02486656
v 0.05618948 0.03123371 -0.02490168
v 0.04108952 0.04706937 -0.02519769
v 0.02520777 0.04706937 -0.02534319
v 0.03458919 0.04316945 -0.02527797
v 0.05278852 0.01067213 -0.02510739
v 0.05443543 -0.00007771 -0.02505722
v 0.05313774 -0.00007771 -0.02506223
v 0.05183609 -0.00007771 -0.02506725
v 0.05668554 0.01067213 -0.02508230
v 0.05798720 0.01067213 -0.02507227
v 0.05928488 0.01067213 -0.02506223
v 0.05928488 0.01197603 -0.02506223
v 0.06058653 0.01067213 -0.02504718
v 0.05408620 0.02497379 -0.02511240
v 0.05538786 0.02497379 -0.02509233
v 0.06188818 0.01067213 -0.02502711
v 0.06188818 0.01197603 -0.02502209
v 0.06188818 0.01327404 -0.02501708
v 0.06188818 0.01457794 -0.02500203
v 0.06188818 0.01587595 -0.02496189
v 0.06015397 0.02237778 -0.02492175
v 0.06001111 0.02367578 -0.02488161
v 0.05993967 0.02433658 -0.02484649
v 0.06212232 0.01977587 -0.02289483
v 0.06265013 0.01817106 -0.02289483
v 0.05889994 0.02750489 -0.02418423
v 0.05637203 0.03266741 -0.02289483
v 0.05701889 0.03155821 -0.02289483
v 0.05738399 0.03090921 -0.02289483
v 0.05625695 0.03248451 -0.02397351
v 0.05485609 0.03490942 -0.02383303
v 0.05739192 0.03092101 -0.02159539
v 0.06011429 0.02485578 -0.02417922
v 0.05868167 0.02702699 -0.02486656
v 0.05637600 0.03267922 -0.02159539
v 0.05597916 0.03332822 -0.02159539
v 0.05597519 0.03331642 -0.02289483
v 0.05702683 0.03157001 -0.02159539
v 0.03198986 0.05357119 -0.02525790
v 0.02679118 0.05486920 -0.02531309
v 0.02520777 0.05486920 -0.02533316
v 0.04499051 0.04316945 -0.02517261
v 0.04888753 0.03926954 -0.02512244
v 0.04758588 0.04056755 -0.02514251
v 0.05278852 0.03536962 -0.02502711
v 0.05408620 0.03276772 -0.02504216
v 0.05538786 0.03017171 -0.02505220
v 0.04368886 0.04446746 -0.02518264
v 0.05512991 0.03276772 -0.02492677
v 0.05664983 0.03007730 -0.02493179
v 0.05750304 0.02887370 -0.02490168
v 0.04108952 0.04577136 -0.02520773
v 0.02520777 0.05384850 -0.02533817
v 0.03458919 0.04446746 -0.02527797
v 0.05408620 0.02367578 -0.02511240
v 0.05278852 0.02367578 -0.02512244
v 0.04628820 0.03666763 -0.02517762
v 0.04758588 0.03666763 -0.02516257
v 0.05408620 0.02627769 -0.02510739
v 0.05538786 0.02627769 -0.02508732
v 0.05668554 0.02497379 -0.02506725
v 0.05798720 0.02367578 -0.02504216
v 0.05798720 0.02497379 -0.02503213
v 0.05928488 0.02237778 -0.02501708
v 0.05928488 0.02367578 -0.02497192
v 0.05798720 0.02627769 -0.02500203
v 0.05879279 0.02627769 -0.02490168
v 0.05796735 0.02750489 -0.02493179
v 0.04239117 0.04446746 -0.02519769
v 0.04888753 0.03666763 -0.02514251
v 0.04758588 0.03797154 -0.02515756
v 0.04499051 0.04187145 -0.02517762
v 0.05538786 0.02887370 -0.02506725
v 0.05668554 0.02887370 -0.02500704
v 0.05668554 0.02757570 -0.02504718
v 0.03979184 0.04446746 -0.02522780
v 0.03589084 0.04577136 -0.02526292
v 0.03719250 0.04446746 -0.02525288
v 0.03849018 0.04316945 -0.02524285
v 0.04108952 0.04316945 -0.02521776
v 0.04499051 0.04056755 -0.02518264
v 0.05408620 0.02757570 -0.02510237
v 0.05668554 0.02627769 -0.02505722
f 1 2 12
f 1 12 3
f 1 3 4
f 1 4 5
f 1 5 6
f 1 6 7
f 1 7 8
f 1 8 9
f 1 9 10
f 1 10 2
f 2 11 12
f 2 10 13
f 2 13 14
f 2 14 15
f 2 15 11
f 3 12 16
f 3 16 17
f 3 17 4
f 4 17 18
f 4 18 19
f 4 19 5
f 5 19 20
f 5 20 6
f 6 21 7
f 6 20 22
f 6 22 23
f 6 23 21
f 7 21 24
f 7 24 8
f 8 25 49
f 8 49 75
f 8 75 111
f 8 111 146
f 8 146 190
f 8 190 241
f 8 241 299
f 8 299 375
f 8 375 458
f 8 458 526
f 8 526 582
f 8 582 581
f 8 581 580
f 8 580 530
f 8 530 465
f 8 465 383
f 8 383 379
f 8 379 301
f 8 301 243
f 8 243 195
f 8 195 148
f 8 148 115
f 8 115 77
f 8 77 52
f 8 52 26
f 8 26 27
f 8 27 28
f 8 28 10
f 8 10 9
f 8 24 29
f 8 29 25
f 10 28 30
f 10 30 13
f 11 31 12
f 11 15 32
f 11 32 33
f 11 33 34
f 11 34 31
f 12 31 35
f 12 35 16
f 13 30 14
f 14 30 36
f 14 36 37
f 14 37 15
f 15 37 38
f 15 38 39
f 15 39 40
f 15 40 32
f 16 35 41
f 16 41 42
f 16 42 66
f 16 66 43
f 16 43 18
f 16 18 17
f 18 44 45
f 18 45 19
f 18 43 44
f 19 46 47
f 19 47 22
f 19 22 20
f 19 45 48
f 19 48 46
f 21 23 22
f 21 22 47
f 21 47 46
f 21 46 48
f 21 48 74
f 21 74 110
f 21 110 145
f 21 145 188
f 21 188 239
f 21 239 297
f 21 297 373
f 21 373 374
f 21 374 457
f 21 457 523
f 21 523 560
f 21 560 564
f 21 564 615
f 21 615 627
f 21 627 577
f 21 577 524
f 21 524 529
f 21 529 528
f 21 528 527
f 21 527 459
f 21 459 378
f 21 378 377
f 21 377 376
f 21 376 300
f 21 300 242
f 21 242 194
f 21 194 193
f 21 193 192
f 21 192 191
f 21 191 147
f 21 147 114
f 21 114 113
f 21 113 112
f 21 112 76
f 21 76 51
f 21 51 50
f 21 50 29
f 21 29 24
f 25 29 50
f 25 50 51
f 25 51 49
f 26 52 53
f 26 53 27
f 27 53 78
f 27 78 54
f 27 54 28
f 28 54 30
f 30 54 55
f 30 55 56
f 30 56 57
f 30 57 36
f 31 58 41
f 31 41 35
f 31 34 58
f 32 40 59
f 32 59 33
f 33 59 34
f 34 59 60
f 34 60 82
f 34 82 58
f 36 57 37
f 37 61 38
f 37 57 61
f 38 61 62
f 38 62 63
f 38 63 39
f 39 63 40
f 40 63 64
f 40 64 59
f 41 58 65
f 41 65 42
f 42 65 66
f 43 66 67
f 43 67 68
f 43 68 69
f 43 69 44
f 44 69 70
f 44 70 71
f 44 71 72
f 44 72 73
f 44 73 48
f 44 48 45
f 48 73 74
f 49 51 76
f 49 76 75
f 52 77 53
f 53 77 78
f 54 78 79
f 54 79 117
f 54 117 80
f 54 80 81
f 54 81 56
f 54 56 55
f 56 81 57
f 57 81 62
f 57 62 61
f 58 82 65
f 59 83 84
f 59 84 60
f 59 64 85
f 59 85 86
f 59 86 83
f 60 84 82
f 62 87 63
f 62 81 88
f 62 88 87
f 63 87 64
f 64 89 85
f 64 87 90
f 64 90 89
f 65 91 92
f 65 92 93
f 65 93 94
f 65 94 95
f 65 95 68
f 65 68 67
f 65 67 66
f 65 82 96
f 65 96 97
f 65 97 98
f 65 98 99
f 65 99 100
f 65 100 101
f 65 101 91
f 68 102 103
f 68 103 69
f 68 95 104
f 68 104 102
f 69 103 70
f 70 103 105
f 70 105 71
f 71 105 106
f 71 106 107
f 71 107 72
f 72 107 108
f 72 108 109
f 72 109 73
f 73 109 74
f 74 109 108
f 74 108 110
f 75 76 112
f 75 112 113
f 75 113 114
f 75 114 111
f 77 115 116
f 77 116 79
f 77 79 78
f 79 116 117
f 80 117 118
f 80 118 81
f 81 118 88
f 82 84 83
f 82 83 96
f 83 86 119
f 83 119 120
f 83 120 121
f 83 121 98
f 83 98 97
f 83 97 96
f 85 89 119
f 85 119 86
f 87 88 122
f 87 122 125
f 87 125 90
f 88 118 117
f 88 117 122
f 89 123 119
f 89 90 124
f 89 124 123
f 90 125 126
f 90 126 124
f 91 127 92
f 91 101 127
f 92 127 93
f 93 127 128
f 93 128 95
f 93 95 94
f 95 128 104
f 98 121 129
f 98 129 130
f 98 130 99
f 99 130 101
f 99 101 100
f 101 130 131
f 101 131 127
f 102 104 128
f 102 128 132
f 102 132 133
f 102 133 134
f 102 134 135
f 102 135 103
f 103 135 136
f 103 136 105
f 105 136 137
f 105 137 106
f 106 137 107
f 107 138 139
f 107 139 108
f 107 137 136
f 107 136 140
f 107 140 141
f 107 141 142
f 107 142 138
f 108 139 143
f 108 143 144
f 108 144 110
f 110 144 145
f 111 114 147
f 111 147 146
f 115 148 149
f 115 149 116
f 116 149 150
f 116 150 151
f 116 151 152
f 116 152 117
f 117 152 125
f 117 125 122
f 119 123 120
f 120 123 121
f 121 153 129
f 121 123 154
f 121 154 155
f 121 155 153
f 123 156 157
f 123 157 154
f 123 124 158
f 123 158 159
f 123 159 156
f 124 126 160
f 124 160 161
f 124 161 158
f 125 152 151
f 125 151 126
f 126 151 162
f 126 162 160
f 127 131 163
f 127 163 164
f 127 164 165
f 127 165 166
f 127 166 167
f 127 167 168
f 127 168 169
f 127 169 134
f 127 134 132
f 127 132 128
f 129 170 171
f 129 171 130
f 129 153 170
f 130 164 163
f 130 163 131
f 130 171 164
f 132 134 133
f 134 169 141
f 134 141 135
f 135 141 136
f 136 141 140
f 138 142 172
f 138 172 173
f 138 173 174
f 138 174 175
f 138 175 176
f 138 176 139
f 139 176 177
f 139 177 178
f 139 178 179
f 139 179 180
f 139 180 181
f 139 181 182
f 139 182 143
f 141 183 184
f 141 184 172
f 141 172 142
f 141 169 185
f 141 185 186
f 141 186 183
f 143 182 187
f 143 187 145
f 143 145 144
f 145 187 189
f 145 189 188
f 146 147 191
f 146 191 192
f 146 192 193
f 146 193 194
f 146 194 190
f 148 195 196
f 148 196 149
f 149 196 197
f 149 197 198
f 149 198 199
f 149 199 150
f 150 199 151
f 151 199 198
f 151 198 162
f 153 155 200
f 153 200 170
f 154 157 155
f 155 157 200
f 156 201 202
f 156 202 157
f 156 159 203
f 156 203 204
f 156 204 201
f 157 202 200
f 158 161 205
f 158 205 203
f 158 203 159
f 160 162 206
f 160 206 207
f 160 207 208
f 160 208 205
f 160 205 161
f 162 198 209
f 162 209 206
f 164 171 170
f 164 170 210
f 164 210 165
f 165 210 211
f 165 211 212
f 165 212 213
f 165 213 214
f 165 214 166
f 166 214 167
f 167 214 215
f 167 215 168
f 168 215 216
f 168 216 217
f 168 217 169
f 169 217 218
f 169 218 219
f 169 219 220
f 169 220 221
f 169 221 222
f 169 222 185
f 170 200 223
f 170 223 210
f 172 184 224
f 172 224 173
f 173 224 225
f 173 225 174
f 174 225 175
f 175 226 177
f 175 177 176
f 175 225 227
f 175 227 226
f 177 226 179
f 177 179 178
f 179 226 227
f 179 227 228
f 179 228 231
f 179 231 180
f 180 229 230
f 180 230 182
f 180 182 181
f 180 231 232
f 180 232 233
f 180 233 234
f 180 234 235
f 180 235 229
f 182 230 189
f 182 189 187
f 183 186 236
f 183 236 237
f 183 237 184
f 184 237 225
f 184 225 224
f 185 222 238
f 185 238 236
f 185 236 186
f 188 189 239
f 189 240 239
f 189 230 240
f 190 194 242
f 190 242 241
f 195 243 244
f 195 244 196
f 196 244 245
f 196 245 246
f 196 246 247
f 196 247 248
f 196 248 197
f 197 248 198
f 198 248 247
f 198 247 246
f 198 246 209
f 200 202 223
f 201 249 250
f 201 250 251
f 201 251 252
f 201 252 202
f 201 204 249
f 202 252 223
f 203 253 204
f 203 205 208
f 203 208 253
f 204 253 254
f 204 254 255
f 204 255 249
f 206 209 207
f 207 209 208
f 208 209 256
f 208 256 257
f 208 257 258
f 208 258 253
f 209 246 259
f 209 259 256
f 210 260 261
f 210 261 211
f 210 223 252
f 210 252 262
f 210 262 260
f 211 261 263
f 211 263 212
f 212 264 265
f 212 265 213
f 212 263 264
f 213 265 214
f 214 266 267
f 214 267 215
f 214 265 266
f 215 267 216
f 216 267 268
f 216 268 217
f 217 268 218
f 218 269 219
f 218 268 270
f 218 270 269
f 219 269 220
f 220 269 271
f 220 271 272
f 220 272 273
f 220 273 221
f 221 273 274
f 221 274 222
f 222 274 352
f 222 352 275
f 222 275 238
f 225 237 276
f 225 276 277
f 225 277 227
f 227 277 278
f 227 278 228
f 228 278 279
f 228 279 282
f 228 282 231
f 229 280 240
f 229 240 230
f 229 235 281
f 229 281 280
f 231 282 283
f 231 283 284
f 231 284 232
f 232 284 285
f 232 285 286
f 232 286 233
f 233 286 287
f 233 287 234
f 234 287 288
f 234 288 289
f 234 289 290
f 234 290 291
f 234 291 235
f 235 292 293
f 235 293 281
f 235 291 290
f 235 290 294
f 235 294 295
f 235 295 292
f 236 296 276
f 236 276 237
f 236 238 275
f 236 275 296
f 239 240 297
f 240 298 297
f 240 280 298
f 241 242 299
f 242 300 299
f 243 301 244
f 244 302 245
f 244 301 303
f 244 303 304
f 244 304 305
f 244 305 306
f 244 306 307
f 244 307 308
f 244 308 309
f 244 309 302
f 245 302 246
f 246 302 310
f 246 310 311
f 246 311 259
f 249 255 312
f 249 312 313
f 249 313 250
f 250 313 251
f 251 313 314
f 251 314 398
f 251 398 315
f 251 315 316
f 251 316 317
f 251 317 252
f 252 317 318
f 252 318 262
f 253 319 254
f 253 258 320
f 253 320 319
f 254 319 321
f 254 321 322
f 254 322 323
f 254 323 255
f 255 323 312
f 256 259 257
f 257 259 324
f 257 324 325
f 257 325 326
f 257 326 327
f 257 327 328
f 257 328 329
f 257 329 258
f 258 329 320
f 259 330 324
f 259 311 331
f 259 331 330
f 260 262 332
f 260 332 261
f 261 332 263
f 262 318 333
f 262 333 334
f 262 334 332
f 263 335 336
f 263 336 264
f 263 332 337
f 263 337 338
f 263 338 420
f 263 420 335
f 264 336 339
f 264 339 340
f 264 340 265
f 265 340 341
f 265 341 342
f 265 342 343
f 265 343 266
f 266 343 267
f 267 343 344
f 267 344 431
f 267 431 345
f 267 345 270
f 267 270 268
f 269 270 345
f 269 345 346
f 269 346 271
f 271 346 272
f 272 346 347
f 272 347 348
f 272 348 349
f 272 349 350
f 272 350 273
f 273 350 351
f 273 351 352
f 273 352 274
f 275 352 351
f 275 351 296
f 276 296 277
f 277 296 353
f 277 353 354
f 277 354 278
f 278 354 279
f 279 354 435
f 279 435 355
f 279 355 359
f 279 359 282
f 280 281 356
f 280 356 357
f 280 357 358
f 280 358 298
f 281 293 356
f 282 359 283
f 283 360 286
f 283 286 285
f 283 285 284
f 283 359 360
f 286 360 288
f 286 288 287
f 288 360 289
f 289 361 362
f 289 362 363
f 289 363 290
f 289 360 361
f 290 363 294
f 292 364 293
f 292 295 364
f 293 364 365
f 293 365 366
f 293 366 356
f 294 367 368
f 294 368 295
f 294 363 369
f 294 369 370
f 294 370 367
f 295 368 371
f 295 371 372
f 295 372 364
f 296 351 353
f 297 298 373
f 298 358 374
f 298 374 373
f 299 300 376
f 299 376 377
f 299 377 378
f 299 378 375
f 301 379 303
f 302 309 310
f 303 380 381
f 303 381 382
f 303 382 304
f 303 379 383
f 303 383 380
f 304 382 381
f 304 381 305
f 305 381 384
f 305 384 385
f 305 385 306
f 306 385 307
f 307 385 386
f 307 386 387
f 307 387 388
f 307 388 389
f 307 389 308
f 308 389 390
f 308 390 391
f 308 391 309
f 309 391 472
f 309 472 392
f 309 392 331
f 309 331 310
f 310 331 311
f 312 323 393
f 312 393 313
f 313 394 475
f 313 475 395
f 313 395 396
f 313 396 314
f 313 393 473
f 313 473 394
f 314 396 397
f 314 397 398
f 315 398 399
f 315 399 400
f 315 400 333
f 315 333 316
f 316 333 318
f 316 318 317
f 319 401 402
f 319 402 321
f 319 320 401
f 320 329 403
f 320 403 404
f 320 404 405
f 320 405 401
f 321 406 407
f 321 407 322
f 321 402 404
f 321 404 479
f 321 479 406
f 322 407 408
f 322 408 323
f 323 408 473
f 323 473 393
f 324 330 392
f 324 392 472
f 324 472 409
f 324 409 325
f 325 409 410
f 325 410 411
f 325 411 326
f 326 411 412
f 326 412 413
f 326 413 414
f 326 414 327
f 327 414 328
f 328 414 413
f 328 413 415
f 328 415 416
f 328 416 329
f 329 417 418
f 329 418 419
f 329 419 403
f 329 416 417
f 330 331 392
f 332 334 337
f 333 400 334
f 334 400 337
f 335 420 423
f 335 423 336
f 336 421 493
f 336 493 422
f 336 422 426
f 336 426 339
f 336 423 424
f 336 424 421
f 337 400 399
f 337 399 338
f 338 399 425
f 338 425 420
f 339 426 427
f 339 427 340
f 340 427 341
f 341 428 433
f 341 433 342
f 341 427 428
f 342 429 430
f 342 430 431
f 342 431 344
f 342 344 432
f 342 432 343
f 342 433 429
f 343 432 344
f 345 431 346
f 346 431 347
f 347 431 430
f 347 430 348
f 348 430 429
f 348 429 434
f 348 434 359
f 348 359 355
f 348 355 435
f 348 435 436
f 348 436 350
f 348 350 349
f 350 436 351
f 351 436 435
f 351 435 353
f 353 435 354
f 356 366 357
f 357 366 437
f 357 437 438
f 357 438 358
f 358 438 439
f 358 439 374
f 359 434 440
f 359 440 441
f 359 441 442
f 359 442 361
f 359 361 360
f 361 442 362
f 362 442 363
f 363 442 443
f 363 443 369
f 364 444 437
f 364 437 366
f 364 366 365
f 364 372 444
f 367 445 368
f 367 370 445
f 368 445 446
f 368 446 371
f 369 443 447
f 369 447 370
f 370 448 449
f 370 449 450
f 370 450 445
f 370 447 451
f 370 451 452
f 370 452 453
f 370 453 448
f 371 454 444
f 371 444 372
f 371 446 455
f 371 455 456
f 371 456 454
f 374 439 457
f 375 378 458
f 378 459 458
f 380 460 461
f 380 461 381
f 380 383 460
f 381 461 462
f 381 462 463
f 381 463 464
f 381 464 384
f 383 465 460
f 384 464 385
f 385 464 466
f 385 466 467
f 385 467 386
f 386 468 411
f 386 411 469
f 386 469 387
f 386 467 470
f 386 470 468
f 387 469 471
f 387 471 472
f 387 472 390
f 387 390 388
f 388 390 389
f 390 472 391
f 394 474 475
f 394 473 476
f 394 476 474
f 395 475 477
f 395 477 396
f 396 477 498
f 396 498 478
f 396 478 398
f 396 398 397
f 398 478 425
f 398 425 399
f 401 405 404
f 401 404 402
f 403 419 479
f 403 479 404
f 406 480 407
f 406 479 480
f 407 480 481
f 407 481 408
f 408 476 473
f 408 481 476
f 409 472 471
f 409 471 410
f 410 471 469
f 410 469 411
f 411 468 482
f 411 482 483
f 411 483 412
f 412 483 484
f 412 484 415
f 412 415 413
f 415 485 416
f 415 484 485
f 416 485 486
f 416 486 487
f 416 487 488
f 416 488 417
f 417 488 489
f 417 489 418
f 418 489 550
f 418 550 490
f 418 490 419
f 419 490 491
f 419 491 492
f 419 492 479
f 420 425 423
f 421 424 496
f 421 496 493
f 422 494 495
f 422 495 426
f 422 493 494
f 423 425 424
f 424 425 496
f 425 497 496
f 425 478 498
f 425 498 497
f 426 495 499
f 426 499 427
f 427 499 447
f 427 447 428
f 428 447 433
f 429 500 440
f 429 440 434
f 429 433 500
f 433 447 501
f 433 501 443
f 433 443 442
f 433 442 500
f 437 444 502
f 437 502 438
f 438 503 457
f 438 457 439
f 438 502 504
f 438 504 503
f 440 500 442
f 440 442 441
f 443 501 447
f 444 454 502
f 445 450 446
f 446 450 455
f 447 499 505
f 447 505 506
f 447 506 507
f 447 507 508
f 447 508 509
f 447 509 451
f 448 510 511
f 448 511 449
f 448 453 512
f 448 512 510
f 449 511 513
f 449 513 514
f 449 514 455
f 449 455 450
f 451 509 515
f 451 515 452
f 452 516 453
f 452 515 509
f 452 509 517
f 452 517 518
f 452 518 519
f 452 519 516
f 453 516 512
f 454 456 520
f 454 520 521
f 454 521 522
f 454 522 559
f 454 559 502
f 455 514 456
f 456 514 520
f 457 503 523
f 458 524 525
f 458 525 526
f 458 459 527
f 458 527 528
f 458 528 529
f 458 529 524
f 460 465 530
f 460 530 531
f 460 531 532
f 460 532 533
f 460 533 461
f 461 533 534
f 461 534 462
f 462 534 535
f 462 535 463
f 463 535 464
f 464 535 536
f 464 536 537
f 464 537 466
f 466 537 467
f 467 537 470
f 468 470 482
f 470 538 485
f 470 485 484
f 470 484 482
f 470 537 539
f 470 539 540
f 470 540 541
f 470 541 538
f 474 542 543
f 474 543 544
f 474 544 545
f 474 545 546
f 474 546 477
f 474 477 547
f 474 547 475
f 474 476 542
f 475 547 477
f 476 481 548
f 476 548 542
f 477 546 498
f 479 492 480
f 480 548 481
f 480 492 548
f 482 484 483
f 485 538 486
f 486 538 487
f 487 541 549
f 487 549 488
f 487 538 541
f 488 549 489
f 489 549 550
f 490 550 491
f 491 550 551
f 491 551 492
f 492 552 553
f 492 553 548
f 492 551 552
f 493 496 554
f 493 554 494
f 494 555 556
f 494 556 495
f 494 554 555
f 495 508 499
f 495 556 508
f 496 497 557
f 496 557 558
f 496 558 554
f 497 498 546
f 497 546 545
f 497 545 557
f 499 508 507
f 499 507 506
f 499 506 505
f 502 559 504
f 503 560 523
f 503 504 560
f 504 559 561
f 504 561 562
f 504 562 614
f 504 614 563
f 504 563 564
f 504 564 560
f 508 556 565
f 508 565 509
f 509 565 517
f 510 566 511
f 510 512 567
f 510 567 568
f 510 568 566
f 511 566 569
f 511 569 521
f 511 521 513
f 512 516 567
f 513 521 514
f 514 521 520
f 516 519 570
f 516 570 567
f 517 565 571
f 517 571 518
f 518 570 519
f 518 571 572
f 518 572 573
f 518 573 574
f 518 574 575
f 518 575 570
f 521 569 622
f 521 622 576
f 521 576 561
f 521 561 522
f 522 561 559
f 524 577 578
f 524 578 579
f 524 579 525
f 525 579 530
f 525 530 580
f 525 580 581
f 525 581 582
f 525 582 526
f 530 579 583
f 530 583 584
f 530 584 585
f 530 585 586
f 530 586 531
f 531 586 587
f 531 587 532
f 532 587 588
f 532 588 589
f 532 589 590
f 532 590 591
f 532 591 533
f 533 591 592
f 533 592 593
f 533 593 534
f 534 593 535
f 535 593 594
f 535 594 595
f 535 595 536
f 536 595 596
f 536 596 537
f 537 596 597
f 537 597 553
f 537 553 540
f 537 540 539
f 540 598 599
f 540 599 541
f 540 553 598
f 541 599 549
f 542 600 574
f 542 574 573
f 542 573 543
f 542 548 600
f 543 601 602
f 543 602 603
f 543 603 544
f 543 573 604
f 543 604 605
f 543 605 565
f 543 565 601
f 544 603 606
f 544 606 545
f 545 606 557
f 548 553 607
f 548 607 597
f 548 597 608
f 548 608 600
f 549 599 550
f 550 598 551
f 550 599 598
f 551 598 552
f 552 598 553
f 553 597 607
f 554 558 609
f 554 609 610
f 554 610 555
f 555 565 556
f 555 610 611
f 555 611 565
f 557 612 609
f 557 609 558
f 557 606 612
f 561 576 613
f 561 613 562
f 562 613 614
f 563 614 615
f 563 615 564
f 565 605 572
f 565 572 571
f 565 611 601
f 566 616 569
f 566 568 567
f 566 567 617
f 566 617 618
f 566 618 616
f 567 570 619
f 567 619 620
f 567 620 621
f 567 621 617
f 569 616 622
f 570 575 623
f 570 623 624
f 570 624 619
f 572 605 573
f 573 605 604
f 574 600 608
f 574 608 625
f 574 625 624
f 574 624 575
f 575 624 623
f 576 622 626
f 576 626 615
f 576 615 614
f 576 614 613
f 577 627 628
f 577 628 578
f 578 628 588
f 578 588 629
f 578 629 630
f 578 630 584
f 578 584 583
f 578 583 579
f 584 630 629
f 584 629 585
f 585 629 588
f 585 588 586
f 586 588 587
f 588 628 631
f 588 631 632
f 588 632 645
f 588 645 633
f 588 633 634
f 588 634 589
f 589 634 591
f 589 591 590
f 591 634 592
f 592 635 636
f 592 636 637
f 592 637 638
f 592 638 593
f 592 634 635
f 593 638 594
f 594 638 639
f 594 639 595
f 595 639 596
f 596 639 640
f 596 640 641
f 596 641 597
f 597 641 608
f 601 611 610
f 601 610 609
f 601 609 612
f 601 612 602
f 602 612 606
f 602 606 603
f 608 641 642
f 608 642 625
f 615 626 627
f 616 643 626
f 616 626 622
f 616 618 644
f 616 644 645
f 616 645 646
f 616 646 650
f 616 650 643
f 617 621 647
f 617 647 618
f 618 647 634
f 618 634 644
f 619 624 648
f 619 648 620
f 620 648 621
f 621 648 640
f 621 640 649
f 621 649 647
f 624 625 648
f 625 642 648
f 626 643 650
f 626 650 627
f 627 650 651
f 627 651 628
f 628 651 652
f 628 652 653
f 628 653 631
f 631 653 654
f 631 654 655
f 631 655 632
f 632 655 646
f 632 646 645
f 633 645 656
f 633 656 634
f 634 656 645
f 634 645 644
f 634 647 649
f 634 649 657
f 634 657 635
f 635 657 636
f 636 657 649
f 636 649 637
f 637 649 640
f 637 640 638
f 638 640 639
f 640 648 642
f 640 642 641
f 646 655 650
f 650 654 653
f 650 653 652
f 650 652 651
f 650 655 654

