# https://github.com/mikedh/trimesh
v -0.03623881 -0.00797871 -0.02419508
v -0.03625313 -0.00797871 -0.02480670
v -0.03669432 0.00890726 -0.02419508
v -0.03653103 0.00890726 -0.01115037
v -0.03652530 0.00890726 -0.01060893
v -0.03652243 0.00890726 -0.00993714
v -0.03652243 0.00890726 -0.00939570
v -0.03652530 0.00890726 -0.00079281
v -0.03652816 0.00890726 -0.00033158
v -0.03653675 0.00890726 0.00096688
v -0.03654535 0.00890726 0.00179909
v -0.03655108 0.00890726 0.00226533
v -0.03692351 -0.00797871 0.02259944
v -0.03634481 -0.00797871 -0.02497716
v -0.03713264 0.00890726 -0.02537822
v -0.03658546 0.00890726 0.00440101
v -0.03687481 0.00890726 0.02130098
v -0.03689772 0.00890726 0.02259944
v -0.03701232 -0.00797871 0.02390290
v -0.03661124 -0.00797871 -0.02524788
v -0.03685475 -0.00797871 -0.02543337
v -0.03821269 0.00890726 -0.02596479
v -0.03694929 0.00890726 0.02306568
v -0.03704670 0.00890726 0.02390290
v -0.03712691 0.00890726 0.02416861
v -0.03733605 -0.00797871 0.02474013
v -0.03776291 -0.00797871 -0.02588457
v -0.03821269 -0.00797871 -0.02601993
v -0.03951334 0.00677172 -0.02602996
v -0.03951334 0.00807090 -0.02602495
v -0.03951334 0.00890726 -0.02601993
v -0.03737329 0.00890726 0.02471507
v -0.03764259 0.00890726 0.02480029
v -0.03821269 0.00890726 0.02494568
v -0.03821269 -0.00797871 0.02491560
v -0.03906069 -0.00797871 -0.02603497
v -0.03951334 -0.00232746 -0.02604500
v -0.03951334 -0.00102664 -0.02604500
v -0.05900865 -0.00102664 -0.02619540
v -0.06291058 0.00027254 -0.02622047
v -0.04081398 0.00890726 -0.02602996
v -0.03867680 0.00890726 0.02498077
v -0.03951334 0.00890726 0.02499581
v -0.06030930 -0.00797871 0.02473011
v -0.03951334 -0.00797871 -0.02603999
v -0.05121053 -0.00492747 -0.02613524
v -0.05121053 -0.00797871 -0.02613023
v -0.05900865 -0.00362664 -0.02619039
v -0.06291058 -0.00102664 -0.02621545
v -0.06363252 -0.00102664 -0.02618036
v -0.06363252 0.00027254 -0.02618036
v -0.06361247 0.00157171 -0.02617033
v -0.06356950 0.00370395 -0.02615028
v -0.06291058 0.00157171 -0.02620543
v -0.06160994 0.00417172 -0.02618036
v -0.06160994 0.00157171 -0.02620543
v -0.05900865 -0.00752747 -0.02618036
v -0.05074642 0.00890726 -0.02609012
v -0.05947562 0.00890726 0.02477523
v -0.06160994 0.00157171 0.02474515
v -0.06160994 -0.00622664 0.02472509
v -0.06160994 -0.00752747 0.02472008
v -0.06076194 -0.00797871 0.02472509
v -0.05771088 -0.00797871 -0.02617033
v -0.06291058 -0.00232746 -0.02620543
v -0.06030930 -0.00797871 -0.02617535
v -0.06361534 -0.00232746 -0.02617033
v -0.06416252 -0.00102664 -0.02549353
v -0.06416252 0.00027254 -0.02549353
v -0.06340620 0.00457007 -0.02613023
v -0.06233188 0.00644610 -0.02615028
v -0.06294783 0.00415023 -0.02616532
v -0.06411955 0.00157171 -0.02549353
v -0.06405652 0.00287089 -0.02549353
v -0.06390182 0.00415023 -0.02561887
v -0.06392761 0.00547089 -0.02544340
v -0.06386171 0.00677172 -0.02536318
v -0.06377863 0.00807090 -0.02526292
v -0.06291058 0.00890726 -0.02579433
v -0.06160994 0.00547089 -0.02616532
v -0.05900865 0.00646098 -0.02615028
v -0.05900865 0.00547089 -0.02616031
v -0.05251117 0.00890726 -0.02610015
v -0.05855887 -0.00797871 -0.02617535
v -0.06030930 0.00890726 0.02476520
v -0.06030930 0.00807090 0.02476520
v -0.06291058 0.00027254 0.02472509
v -0.06291058 -0.00362664 0.02471507
v -0.06291058 -0.00797871 0.02470003
v -0.06205972 -0.00797871 0.02471005
v -0.06291058 -0.00362664 -0.02619039
v -0.06357523 -0.00465805 -0.02615028
v -0.06359528 -0.00362664 -0.02616031
v -0.06116016 -0.00797871 -0.02617033
v -0.06163859 -0.00797871 -0.02616532
v -0.06216859 -0.00797871 -0.02615529
v -0.06413101 -0.00232746 -0.02549353
v -0.06464095 -0.00102664 -0.02419508
v -0.06463809 0.00027254 -0.02419508
v -0.06460084 0.00157171 -0.02419508
v -0.06160994 0.00890726 -0.02611017
v -0.06291058 0.00807090 -0.02590463
v -0.06160994 0.00649404 -0.02615028
v -0.05984519 0.00890726 -0.02611519
v -0.06452349 0.00287089 -0.02419508
v -0.06441749 0.00417172 -0.02419508
v -0.06430863 0.00547089 -0.02419508
v -0.06417971 0.00677172 -0.02419508
v -0.06371274 0.00890726 -0.02516265
v -0.05724391 0.00890726 -0.02611519
v -0.05510959 0.00890726 -0.02611017
v -0.05380895 0.00890726 -0.02610516
v -0.06160994 0.00890726 0.02474013
v -0.06291058 0.00547089 0.02472509
v -0.06420836 0.00027254 0.02469000
v -0.06420836 -0.00492747 0.02467997
v -0.06420836 -0.00622664 0.02466995
v -0.06420836 -0.00752747 0.02465491
v -0.06423988 -0.00797871 0.02463987
v -0.06240350 -0.00752747 -0.02615529
v -0.06352939 -0.00552582 -0.02614025
v -0.06398490 -0.00622664 -0.02547348
v -0.06393906 -0.00502664 -0.02562388
v -0.06408803 -0.00362664 -0.02549353
v -0.06235767 -0.00797871 -0.02615028
v -0.06460944 -0.00232746 -0.02419508
v -0.06473836 -0.00102664 -0.02159315
v -0.06474122 0.00027254 -0.02159315
v -0.06470971 0.00157171 -0.02159315
v -0.06462377 0.00287089 -0.02159315
v -0.06466960 0.00287089 -0.02029470
v -0.06486441 0.00228411 -0.01593309
v -0.06480425 0.00277833 -0.01637928
v -0.06481571 0.00305601 -0.01509586
v -0.06412528 0.00807090 -0.02029470
v -0.06401069 0.00807090 -0.02419508
v -0.06470398 0.00417172 -0.01509586
v -0.06436020 0.00677172 -0.01769277
v -0.06388177 0.00890726 -0.02419508
v -0.06207404 0.00890726 0.02473011
v -0.06291058 0.00677172 0.02472008
v -0.06420836 0.00157171 0.02468499
v -0.06494749 0.00027254 0.02460979
v -0.06494749 -0.00102664 0.02460979
v -0.06494176 -0.00492747 0.02460477
v -0.06493317 -0.00622664 0.02459976
v -0.06491025 -0.00752747 0.02458973
v -0.06452922 -0.00797871 0.02461480
v -0.06271004 -0.00797871 -0.02611017
v -0.06297074 -0.00797871 -0.02606505
v -0.06391042 -0.00797871 -0.02540329
v -0.06393333 -0.00752747 -0.02542836
v -0.06450344 -0.00492747 -0.02419508
v -0.06456647 -0.00362664 -0.02419508
v -0.06470685 -0.00232746 -0.02159315
v -0.06477847 -0.00102664 -0.02029470
v -0.06487014 -0.00069936 -0.01737192
v -0.06478133 0.00027254 -0.02029470
v -0.06486441 0.00108576 -0.01719144
v -0.06475268 0.00157171 -0.02029470
v -0.06485295 0.00195188 -0.01680040
v -0.06491311 0.00157171 -0.01509586
v -0.06494749 0.00157171 -0.01379240
v -0.06487873 0.00240643 -0.01509586
v -0.06483003 0.00321469 -0.01379240
v -0.06399350 0.00890726 -0.02029470
v -0.06419690 0.00807090 -0.01769277
v -0.06473263 0.00417172 -0.01379240
v -0.06456647 0.00547089 -0.01509586
v -0.06439458 0.00677172 -0.01639432
v -0.06291058 0.00890726 0.02470504
v -0.06320566 0.00890726 0.02467496
v -0.06420836 0.00287089 0.02466493
v -0.06493603 0.00157171 0.02460477
v -0.06526549 0.00027254 0.02390290
v -0.06527122 -0.00102664 0.02390290
v -0.06527695 -0.00362664 0.02390290
v -0.06527695 -0.00492747 0.02390290
v -0.06494463 -0.00362664 0.02460477
v -0.06525976 -0.00622664 0.02390290
v -0.06489879 -0.00797871 0.02457971
v -0.06417112 -0.00797871 -0.02459614
v -0.06443182 -0.00622664 -0.02419508
v -0.06452922 -0.00622664 -0.02159315
v -0.06465814 -0.00362664 -0.02159315
v -0.06474409 -0.00232746 -0.02029470
v -0.06481285 -0.00232746 -0.01769277
v -0.06485582 -0.00156713 -0.01692072
v -0.06495322 -0.00102664 -0.01379240
v -0.06497041 0.00027254 -0.01379240
v -0.06493603 0.00027254 -0.01509586
v -0.06487014 0.00027254 -0.01740200
v -0.06482144 0.00027254 -0.01899123
v -0.06497614 0.00157171 -0.01249394
v -0.06489306 0.00256510 -0.01379240
v -0.06490739 0.00268081 -0.01249394
v -0.06484149 0.00333039 -0.01249394
v -0.06408517 0.00890726 -0.01686056
v -0.06426279 0.00807090 -0.01509586
v -0.06475268 0.00417172 -0.01249394
v -0.06459511 0.00547089 -0.01379240
v -0.06442609 0.00677172 -0.01509586
v -0.06370415 0.00890726 0.02461981
v -0.06490165 0.00287089 0.02458472
v -0.06522825 0.00157171 0.02390290
v -0.06547462 0.00027254 0.02259944
v -0.06548895 -0.00102664 0.02259944
v -0.06550041 -0.00232746 0.02259944
v -0.06550327 -0.00362664 0.02259944
v -0.06550327 -0.00492747 0.02259944
v -0.06518814 -0.00752747 0.02390290
v -0.06548608 -0.00622664 0.02259944
v -0.06513658 -0.00797871 0.02393800
v -0.06428285 -0.00797871 -0.02419508
v -0.06433155 -0.00752747 -0.02419508
v -0.06442609 -0.00752747 -0.02159315
v -0.06446620 -0.00752747 -0.02029470
v -0.06456647 -0.00622664 -0.02029470
v -0.06438025 -0.00752747 -0.02289161
v -0.06470971 -0.00622664 -0.01509586
v -0.06469252 -0.00362664 -0.02029470
v -0.06486441 -0.00307953 -0.01462962
v -0.06485295 -0.00278697 -0.01549693
v -0.06484436 -0.00234399 -0.01644947
v -0.06487873 -0.00234399 -0.01507581
v -0.06494176 -0.00232746 -0.01249394
v -0.06498187 -0.00102664 -0.01249394
v -0.06499906 0.00027254 -0.01249394
v -0.06502198 0.00027254 -0.01119549
v -0.06499619 0.00157171 -0.01119549
v -0.06501625 0.00157171 -0.00989202
v -0.06505349 0.00157171 -0.00729511
v -0.06512797 0.00157171 -0.00209126
v -0.06503344 0.00287089 -0.00209126
v -0.06496181 0.00287089 -0.00729511
v -0.06464668 0.00677172 -0.00079281
v -0.06409663 0.00890726 -0.01639432
v -0.06445474 0.00677172 -0.01379240
v -0.06431436 0.00807090 -0.01249394
v -0.06417685 0.00890726 -0.01296018
v -0.06414820 0.00890726 -0.01425864
v -0.06412815 0.00890726 -0.01509586
v -0.06461517 0.00547089 -0.01249394
v -0.06389609 0.00890726 0.02435912
v -0.06487301 0.00365932 0.02456467
v -0.06513371 0.00287089 0.02390290
v -0.06542879 0.00157171 0.02259944
v -0.06514517 0.00157171 -0.00079281
v -0.06516809 0.00027254 -0.00079281
v -0.06513371 0.00027254 -0.00339473
v -0.06504203 0.00027254 -0.00989202
v -0.06538868 -0.00752747 0.02259944
v -0.06500479 -0.00102664 -0.01119549
v -0.06496755 -0.00232746 -0.01119549
v -0.06494749 -0.00362664 -0.00989202
v -0.06485868 -0.00685640 -0.00790674
v -0.06533425 -0.00797871 0.02259944
v -0.06431436 -0.00797871 -0.02334281
v -0.06436020 -0.00797871 -0.02204435
v -0.06437452 -0.00797871 -0.02159315
v -0.06441463 -0.00797871 -0.02029470
v -0.06455501 -0.00797871 -0.01554205
v -0.06461517 -0.00752747 -0.01509586
v -0.06474409 -0.00622664 -0.01379240
v -0.06487587 -0.00330267 -0.01379240
v -0.06492171 -0.00362664 -0.01119549
v -0.06505063 0.00287089 -0.00079281
v -0.06466100 0.00677172 0.00050063
v -0.06448912 0.00807090 -0.00079281
v -0.06447193 0.00807090 -0.00209126
v -0.06439744 0.00807090 -0.00729511
v -0.06449484 0.00677172 -0.01119549
v -0.06433728 0.00807090 -0.01119549
v -0.06418544 0.00890726 -0.01249394
v -0.06418831 0.00890726 0.02390290
v -0.06487301 0.00620974 0.02332136
v -0.06491884 0.00547089 0.02354194
v -0.06498187 0.00412378 0.02396306
v -0.06530560 0.00287089 0.02259944
v -0.06510792 0.00287089 0.00440101
v -0.06507927 0.00287089 0.00179909
v -0.06506495 0.00287089 0.00050063
v -0.06486728 -0.00695226 -0.00703943
v -0.06487873 -0.00704813 -0.00599164
v -0.06480711 -0.00769772 -0.00599164
v -0.06479566 -0.00797871 -0.00490876
v -0.06464955 -0.00752747 -0.01379240
v -0.06471258 -0.00752747 -0.01119549
v -0.06474409 -0.00752747 -0.00989202
v -0.06458938 -0.00797871 -0.01424360
v -0.06467247 0.00677172 0.00179909
v -0.06450344 0.00807090 0.00050063
v -0.06434301 0.00890726 -0.00209126
v -0.06433728 0.00890726 -0.00255750
v -0.06432582 0.00890726 -0.00339473
v -0.06428285 0.00890726 -0.00645788
v -0.06425133 0.00890726 -0.00859356
v -0.06420836 0.00890726 -0.01119549
v -0.06423128 0.00890726 -0.00989202
v -0.06431436 0.00890726 0.02343666
v -0.06451490 0.00890726 0.02259944
v -0.06462950 0.00807090 0.02259944
v -0.06460657 0.00807090 0.01610215
v -0.06459511 0.00807090 0.01350022
v -0.06458079 0.00807090 0.01090331
v -0.06457220 0.00807090 0.00959985
v -0.06456360 0.00807090 0.00830139
v -0.06451490 0.00807090 0.00179909
v -0.06480711 -0.00744317 -0.00740039
v -0.06469252 -0.00797871 -0.00989202
v -0.06476701 -0.00797871 -0.00631751
v -0.06460084 -0.00797871 -0.01379240
v -0.06463236 -0.00797871 -0.01249394
v -0.06465241 -0.00797871 -0.01164669
v -0.06437166 0.00890726 0.00050063
v -0.06438025 0.00890726 0.00133786
v -0.06448339 0.00890726 0.01433745
v -0.06446620 0.00890726 0.01173553
v -0.06445760 0.00890726 0.01043707
v -0.06443755 0.00890726 0.00783515
v -0.06440317 0.00890726 0.00393477
f 1 2 3
f 1 3 4
f 1 4 5
f 1 5 6
f 1 6 7
f 1 7 8
f 1 8 9
f 1 9 10
f 1 10 11
f 1 11 12
f 1 12 13
f 1 13 19
f 1 19 26
f 1 26 35
f 1 35 44
f 1 44 63
f 1 63 90
f 1 90 89
f 1 89 119
f 1 119 148
f 1 148 181
f 1 181 213
f 1 213 257
f 1 257 286
f 1 286 311
f 1 311 310
f 1 310 314
f 1 314 313
f 1 313 312
f 1 312 290
f 1 290 262
f 1 262 261
f 1 261 260
f 1 260 259
f 1 259 258
f 1 258 214
f 1 214 182
f 1 182 151
f 1 151 150
f 1 150 149
f 1 149 125
f 1 125 96
f 1 96 95
f 1 95 94
f 1 94 66
f 1 66 84
f 1 84 64
f 1 64 47
f 1 47 45
f 1 45 36
f 1 36 28
f 1 28 27
f 1 27 21
f 1 21 20
f 1 20 14
f 1 14 2
f 2 14 15
f 2 15 3
f 3 15 22
f 3 22 31
f 3 31 41
f 3 41 58
f 3 58 83
f 3 83 112
f 3 112 111
f 3 111 110
f 3 110 104
f 3 104 101
f 3 101 79
f 3 79 109
f 3 109 139
f 3 139 166
f 3 166 198
f 3 198 237
f 3 237 242
f 3 242 241
f 3 241 240
f 3 240 274
f 3 274 298
f 3 298 299
f 3 299 297
f 3 297 296
f 3 296 295
f 3 295 294
f 3 294 293
f 3 293 315
f 3 315 316
f 3 316 321
f 3 321 320
f 3 320 319
f 3 319 318
f 3 318 317
f 3 317 301
f 3 301 300
f 3 300 275
f 3 275 244
f 3 244 203
f 3 203 172
f 3 172 171
f 3 171 140
f 3 140 113
f 3 113 85
f 3 85 59
f 3 59 43
f 3 43 42
f 3 42 34
f 3 34 33
f 3 33 32
f 3 32 25
f 3 25 24
f 3 24 23
f 3 23 18
f 3 18 17
f 3 17 16
f 3 16 12
f 3 12 11
f 3 11 10
f 3 10 9
f 3 9 8
f 3 8 7
f 3 7 6
f 3 6 5
f 3 5 4
f 12 16 13
f 13 16 17
f 13 17 18
f 13 18 19
f 14 20 15
f 15 20 21
f 15 21 22
f 18 23 19
f 19 24 25
f 19 25 26
f 19 23 24
f 21 27 22
f 22 27 28
f 22 28 29
f 22 29 30
f 22 30 31
f 25 32 26
f 26 32 33
f 26 33 34
f 26 34 35
f 28 36 37
f 28 37 38
f 28 38 29
f 29 38 39
f 29 39 40
f 29 40 30
f 30 40 41
f 30 41 31
f 34 42 35
f 35 42 43
f 35 43 44
f 36 45 37
f 37 45 46
f 37 46 39
f 37 39 38
f 39 46 47
f 39 47 48
f 39 48 40
f 40 49 50
f 40 50 51
f 40 51 52
f 40 52 53
f 40 53 54
f 40 54 80
f 40 80 55
f 40 55 56
f 40 56 41
f 40 48 57
f 40 57 49
f 41 56 58
f 43 59 60
f 43 60 61
f 43 61 62
f 43 62 44
f 44 62 63
f 45 47 46
f 47 64 57
f 47 57 48
f 49 65 50
f 49 57 66
f 49 66 65
f 50 65 67
f 50 67 68
f 50 68 69
f 50 69 51
f 51 69 52
f 52 69 53
f 53 70 71
f 53 71 72
f 53 72 54
f 53 69 73
f 53 73 74
f 53 74 75
f 53 75 76
f 53 76 77
f 53 77 78
f 53 78 79
f 53 79 70
f 54 72 71
f 54 71 80
f 55 80 81
f 55 81 82
f 55 82 56
f 56 82 83
f 56 83 58
f 57 64 84
f 57 84 66
f 59 85 86
f 59 86 60
f 60 87 88
f 60 88 61
f 60 86 85
f 60 85 114
f 60 114 87
f 61 88 89
f 61 89 62
f 62 89 90
f 62 90 63
f 65 91 92
f 65 92 93
f 65 93 67
f 65 66 94
f 65 94 95
f 65 95 96
f 65 96 91
f 67 93 68
f 68 97 126
f 68 126 98
f 68 98 69
f 68 93 97
f 69 98 99
f 69 99 100
f 69 100 73
f 70 101 71
f 70 79 102
f 70 102 101
f 71 103 80
f 71 101 104
f 71 104 103
f 73 100 74
f 74 76 75
f 74 100 76
f 76 100 105
f 76 105 77
f 77 105 106
f 77 106 107
f 77 107 78
f 78 107 108
f 78 108 109
f 78 109 79
f 79 101 102
f 80 103 104
f 80 104 110
f 80 110 81
f 81 110 111
f 81 111 112
f 81 112 83
f 81 83 82
f 85 113 114
f 87 114 115
f 87 115 116
f 87 116 88
f 88 116 89
f 89 116 117
f 89 117 118
f 89 118 119
f 91 96 120
f 91 120 121
f 91 121 92
f 92 121 122
f 92 122 123
f 92 123 124
f 92 124 97
f 92 97 93
f 96 125 120
f 97 124 154
f 97 154 126
f 98 126 155
f 98 155 127
f 98 127 128
f 98 128 99
f 99 128 129
f 99 129 100
f 100 129 105
f 105 129 130
f 105 130 106
f 106 130 107
f 107 130 131
f 107 131 132
f 107 132 133
f 107 133 134
f 107 134 108
f 108 135 136
f 108 136 109
f 108 134 137
f 108 137 138
f 108 138 135
f 109 136 139
f 113 140 114
f 114 140 141
f 114 141 115
f 115 141 142
f 115 142 143
f 115 143 144
f 115 144 145
f 115 145 116
f 116 145 146
f 116 146 117
f 117 146 147
f 117 147 118
f 118 147 148
f 118 148 119
f 120 125 121
f 121 125 149
f 121 149 150
f 121 150 151
f 121 151 152
f 121 152 122
f 122 124 123
f 122 152 153
f 122 153 154
f 122 154 124
f 126 154 155
f 127 155 156
f 127 156 157
f 127 157 128
f 128 157 158
f 128 158 159
f 128 159 160
f 128 160 129
f 129 160 161
f 129 161 132
f 129 132 130
f 130 132 131
f 132 161 162
f 132 162 163
f 132 163 164
f 132 164 133
f 133 164 134
f 134 164 195
f 134 195 165
f 134 165 137
f 135 166 139
f 135 139 136
f 135 138 167
f 135 167 166
f 137 165 168
f 137 168 201
f 137 201 169
f 137 169 170
f 137 170 138
f 138 170 167
f 140 171 141
f 141 171 142
f 142 171 172
f 142 172 173
f 142 173 174
f 142 174 143
f 143 174 175
f 143 175 176
f 143 176 177
f 143 177 178
f 143 178 144
f 144 178 179
f 144 179 145
f 145 179 178
f 145 178 146
f 146 178 180
f 146 180 147
f 147 181 148
f 147 180 181
f 151 182 183
f 151 183 152
f 152 183 153
f 153 183 184
f 153 184 185
f 153 185 154
f 154 185 155
f 155 185 186
f 155 186 156
f 156 186 157
f 157 187 188
f 157 188 189
f 157 189 190
f 157 190 191
f 157 191 192
f 157 192 193
f 157 193 158
f 157 186 187
f 158 193 159
f 159 193 192
f 159 192 191
f 159 191 162
f 159 162 161
f 159 161 160
f 162 191 190
f 162 190 163
f 163 190 228
f 163 228 194
f 163 194 164
f 164 194 195
f 165 195 196
f 165 196 197
f 165 197 168
f 166 167 198
f 167 170 199
f 167 199 198
f 168 197 200
f 168 200 243
f 168 243 201
f 169 201 238
f 169 238 202
f 169 202 170
f 170 202 199
f 172 203 173
f 173 203 174
f 174 203 204
f 174 204 205
f 174 205 175
f 175 205 206
f 175 206 207
f 175 207 208
f 175 208 176
f 176 208 209
f 176 209 177
f 177 209 210
f 177 210 178
f 178 210 212
f 178 212 180
f 180 211 181
f 180 212 211
f 181 211 213
f 182 214 215
f 182 215 183
f 183 215 184
f 184 216 217
f 184 217 218
f 184 218 185
f 184 215 219
f 184 219 216
f 185 218 220
f 185 220 221
f 185 221 222
f 185 222 186
f 186 222 223
f 186 223 187
f 187 223 224
f 187 224 189
f 187 189 188
f 189 224 225
f 189 225 226
f 189 226 227
f 189 227 228
f 189 228 190
f 194 228 229
f 194 229 230
f 194 230 196
f 194 196 195
f 196 230 231
f 196 231 232
f 196 232 233
f 196 233 234
f 196 234 235
f 196 235 197
f 197 235 236
f 197 236 200
f 198 199 237
f 199 202 238
f 199 238 239
f 199 239 240
f 199 240 241
f 199 241 242
f 199 242 237
f 200 236 243
f 201 243 272
f 201 272 238
f 203 244 245
f 203 245 204
f 204 245 205
f 205 245 246
f 205 246 247
f 205 247 206
f 206 247 248
f 206 248 249
f 206 249 207
f 207 249 250
f 207 250 208
f 208 250 209
f 209 250 251
f 209 251 210
f 210 251 229
f 210 229 253
f 210 253 212
f 211 212 252
f 211 252 213
f 212 253 227
f 212 227 254
f 212 254 255
f 212 255 256
f 212 256 252
f 213 252 257
f 214 258 219
f 214 219 215
f 216 219 258
f 216 258 259
f 216 259 260
f 216 260 261
f 216 261 217
f 217 261 262
f 217 262 263
f 217 263 218
f 218 263 220
f 220 263 256
f 220 256 264
f 220 264 221
f 221 264 222
f 222 264 265
f 222 265 226
f 222 226 225
f 222 225 223
f 223 225 224
f 226 265 266
f 226 266 254
f 226 254 227
f 227 253 229
f 227 229 228
f 229 251 231
f 229 231 230
f 231 251 232
f 232 251 233
f 233 251 250
f 233 250 248
f 233 248 267
f 233 267 234
f 234 267 236
f 234 236 235
f 236 268 292
f 236 292 269
f 236 269 270
f 236 270 271
f 236 271 272
f 236 272 243
f 236 267 282
f 236 282 268
f 238 272 273
f 238 273 239
f 239 273 298
f 239 298 274
f 239 274 240
f 244 275 245
f 245 275 276
f 245 276 277
f 245 277 278
f 245 278 246
f 246 277 279
f 246 279 247
f 246 278 277
f 247 279 280
f 247 280 281
f 247 281 282
f 247 282 267
f 247 267 248
f 248 250 249
f 252 256 283
f 252 283 284
f 252 284 285
f 252 285 286
f 252 286 257
f 254 266 255
f 255 266 256
f 256 266 265
f 256 265 264
f 256 263 287
f 256 287 288
f 256 288 289
f 256 289 283
f 262 290 263
f 263 290 287
f 268 291 308
f 268 308 292
f 268 282 281
f 268 281 280
f 268 280 279
f 268 279 291
f 269 292 293
f 269 293 294
f 269 294 270
f 270 294 295
f 270 295 296
f 270 296 271
f 271 296 297
f 271 297 273
f 271 273 272
f 273 297 299
f 273 299 298
f 275 300 276
f 276 301 302
f 276 302 279
f 276 279 277
f 276 300 301
f 279 302 303
f 279 303 304
f 279 304 305
f 279 305 306
f 279 306 307
f 279 307 308
f 279 308 291
f 283 289 309
f 283 309 284
f 284 309 285
f 285 309 310
f 285 310 311
f 285 311 286
f 287 290 312
f 287 312 313
f 287 313 288
f 288 313 289
f 289 310 309
f 289 313 314
f 289 314 310
f 292 315 293
f 292 308 321
f 292 321 316
f 292 316 315
f 301 317 303
f 301 303 302
f 303 317 304
f 304 317 305
f 305 317 306
f 306 317 318
f 306 318 319
f 306 319 307
f 307 319 308
f 308 319 320
f 308 320 321

