# https://github.com/mikedh/trimesh
v -0.00050914 -0.06603732 0.02260263
v 0.00078885 -0.06599495 0.02260263
v 0.00078885 -0.06585629 0.02389975
v -0.00050914 -0.06588710 0.02389975
v -0.00063227 -0.06589866 0.02377955
v -0.00063227 -0.06602962 0.02260263
v -0.00063227 -0.06602962 0.02247742
v -0.00063227 -0.06571762 -0.02419382
v -0.00050914 -0.06571377 -0.02419382
v 0.00208941 -0.06591021 0.02260263
v 0.00338997 -0.06571762 0.02389975
v 0.00208941 -0.06579081 0.02389975
v 0.00667343 -0.06537867 0.02455582
v 0.00599108 -0.06540563 0.02458086
v 0.00469053 -0.06545185 0.02462093
v 0.00338997 -0.06548651 0.02464597
v 0.00208941 -0.06551348 0.02466099
v 0.00078885 -0.06553658 0.02467602
v -0.00050914 -0.06554815 0.02468102
v -0.00063227 -0.06554815 0.02468102
v -0.00063227 -0.06588325 0.02389975
v -0.00063227 -0.06570222 -0.02428397
v -0.00050914 -0.06555585 -0.02512034
v 0.00338997 -0.06540563 -0.02489497
v 0.00408514 -0.06537867 -0.02484989
v 0.00338997 -0.06581777 0.02260263
v 0.00469053 -0.06563288 0.02389975
v 0.01478973 -0.06414609 0.02462093
v 0.01378674 -0.06423083 0.02468603
v 0.00599108 -0.06552888 0.02389975
v 0.00718134 -0.06543259 0.02390476
v 0.00823820 -0.06540177 0.02347405
v 0.01248874 -0.06467764 0.02389975
v 0.01248874 -0.06430787 0.02471107
v 0.01378674 -0.06342580 0.02485631
v 0.01248874 -0.06342580 0.02487634
v 0.00078885 -0.06472771 0.02479621
v -0.00050914 -0.06472771 0.02480122
v -0.00063227 -0.06480089 0.02478620
v -0.00063227 -0.06555585 -0.02512534
v -0.00063227 -0.06547496 -0.02517042
v -0.00050914 -0.06472771 -0.02558109
v 0.00858964 -0.06446964 -0.02518043
v 0.00989019 -0.06440031 -0.02514037
v 0.01119075 -0.06431557 -0.02508027
v 0.01248874 -0.06420386 -0.02498511
v 0.01331217 -0.06411913 -0.02489497
v 0.01119075 -0.06459675 -0.02419382
v 0.00989019 -0.06476623 -0.02419382
v 0.00989019 -0.06481245 -0.02289169
v 0.00858964 -0.06494726 -0.02289169
v 0.00894620 -0.06535170 0.02260263
v 0.00599108 -0.06560977 0.02260263
v 0.00469053 -0.06571762 0.02260263
v 0.01976879 -0.06281722 0.02459589
v 0.01898640 -0.06291351 0.02467101
v 0.01378674 -0.06446579 0.02389975
v 0.01501804 -0.06420772 0.02389975
v 0.01566703 -0.06403439 0.02389975
v 0.01768841 -0.06304448 0.02472610
v 0.01898640 -0.06212775 0.02486633
v 0.00989019 -0.06523230 0.02260263
v 0.01119075 -0.06502815 0.02260263
v 0.02158752 -0.06082584 0.02498652
v -0.00063227 -0.06472771 0.02479621
v 0.02418864 -0.05952778 0.02503661
v 0.00599108 -0.03872807 0.02517183
v 0.00469053 -0.03872807 0.02514679
v -0.00050914 -0.04002998 0.02498152
v -0.00063227 -0.06472771 -0.02558610
v 0.00858964 -0.06342580 -0.02553101
v 0.00989019 -0.06342580 -0.02547091
v 0.01119075 -0.06342580 -0.02539078
v 0.01768841 -0.06293278 -0.02499513
v 0.01859136 -0.06284033 -0.02490999
v 0.01884275 -0.06290196 -0.02419382
v 0.01349174 -0.06416535 -0.02419382
v 0.01248874 -0.06437720 -0.02419382
v 0.01248874 -0.06443112 -0.02289169
v 0.01119075 -0.06464682 -0.02289169
v 0.02361660 -0.06150375 0.02458086
v 0.02288808 -0.06161546 0.02467602
v 0.01898640 -0.06312922 0.02389975
v 0.01990475 -0.06286729 0.02389975
v 0.02158752 -0.06180034 0.02476116
v 0.02548663 -0.06048303 0.02478620
v 0.01248874 -0.06479704 0.02260263
v 0.01378674 -0.06452356 0.02260263
v 0.01503599 -0.06422313 0.02260263
v 0.01638785 -0.06388802 0.02260263
v 0.01768841 -0.06355676 0.02260263
v 0.02288808 -0.06082584 0.02490639
v 0.02548663 -0.05952778 0.02503661
v 0.02557128 -0.05944304 0.02504161
v -0.00063227 -0.04002998 0.02497651
v 0.02557128 -0.02954924 0.02539719
v -0.00063227 -0.03872807 0.02491641
v -0.00063227 -0.06342580 -0.02576138
v -0.00050914 -0.06342580 -0.02576138
v 0.00208941 -0.06342580 -0.02571631
v 0.00599108 -0.06342580 -0.02562616
v 0.00728908 -0.06342580 -0.02558109
v 0.02548663 -0.05952778 -0.02528561
v 0.02158752 -0.06082584 -0.02527559
v 0.01768841 -0.06212775 -0.02524554
v 0.02158752 -0.06170020 -0.02502518
v 0.02344216 -0.06141902 -0.02448430
v 0.01949431 -0.06270552 -0.02419382
v 0.02257512 -0.06157309 -0.02494004
v 0.01962514 -0.06277485 -0.02326731
v 0.01360204 -0.06419231 -0.02289169
v 0.02369099 -0.06153072 0.02389975
v 0.02557128 -0.06081813 0.02389975
v 0.02557128 -0.06080273 0.02396485
v 0.02557128 -0.06047147 0.02477618
v 0.01898640 -0.06319469 0.02260263
v 0.01995862 -0.06289041 0.02260263
v 0.02557128 -0.06043296 0.02479121
v 0.01768841 -0.06324092 -0.02289169
v 0.01964310 -0.06277870 -0.02240089
v 0.02557128 -0.05953163 0.02502659
v 0.02557128 -0.02832822 0.02526197
v 0.02557128 -0.02824733 0.02525196
v -0.00063227 -0.03800779 0.02464597
v -0.00063227 -0.06082584 -0.02576639
v 0.02557128 -0.05440874 -0.02534570
v 0.02557128 -0.05700871 -0.02534070
v 0.02557128 -0.05822587 -0.02533569
v 0.02418864 -0.05952778 -0.02533068
v 0.02557128 -0.05953163 -0.02527559
v 0.02557128 -0.06041755 -0.02503520
v 0.02548663 -0.06042910 -0.02504021
v 0.02557128 -0.06074110 -0.02419382
v 0.02295990 -0.06162701 -0.02410868
v 0.02355246 -0.06148064 -0.02361788
v 0.02158752 -0.06213545 -0.02289169
v 0.01910953 -0.06290196 -0.02285664
v 0.02060761 -0.06265930 0.02260263
v 0.02158752 -0.06230878 0.02260263
v 0.02288808 -0.06184271 0.02260263
v 0.02371664 -0.06154227 0.02260263
v 0.02557128 -0.06086436 0.02267274
v 0.02158752 -0.06214700 -0.02159458
v 0.02357555 -0.06148835 -0.02159458
v 0.02548663 -0.06084895 -0.02289169
v 0.02557128 -0.02715342 0.02478620
v 0.02557128 -0.02714186 0.02477618
v 0.02557128 -0.02679520 0.02405500
v 0.02557128 -0.02677594 0.02389975
v -0.00063227 -0.03792690 0.02389975
v -0.00063227 -0.05940068 -0.02576138
v -0.00050914 -0.05822587 -0.02575637
v 0.02557128 -0.04522991 -0.02535071
v 0.02557128 -0.04652411 -0.02535071
v 0.02557128 -0.06081813 -0.02289169
v 0.02356786 -0.06148450 -0.02289169
v 0.02557128 -0.06086436 0.02260263
v 0.02557128 -0.02673357 0.02260263
v 0.02557128 -0.02669120 0.01870125
v 0.02557128 -0.02669120 0.01651268
v 0.02557128 -0.02681061 -0.00989546
v 0.02557128 -0.02687224 -0.02159458
v -0.00063227 -0.03818882 -0.02159458
v -0.00063227 -0.05420075 -0.02574135
v -0.00050914 -0.05562591 -0.02574636
v 0.02557128 -0.04392800 -0.02534570
v 0.02557128 -0.02692231 -0.02296682
v -0.00063227 -0.03822734 -0.02289169
v -0.00063227 -0.03822349 -0.02277150
v -0.00063227 -0.05290269 -0.02573634
v -0.00050914 -0.05432785 -0.02574135
v 0.02557128 -0.04262994 -0.02533569
v 0.02557128 -0.02693001 -0.02309202
v -0.00063227 -0.03858556 -0.02406862
v -0.00063227 -0.05160078 -0.02572132
v 0.02557128 -0.04002998 -0.02531065
v 0.02557128 -0.02711490 -0.02339752
v -0.00063227 -0.03862407 -0.02419382
v -0.00063227 -0.05030273 -0.02570129
v 0.02557128 -0.03231098 -0.02522050
v 0.02557128 -0.03743001 -0.02528060
v 0.02557128 -0.03872807 -0.02529562
v 0.02557128 -0.02755401 -0.02408865
v -0.00063227 -0.03912866 -0.02491500
v -0.00063227 -0.04900082 -0.02567624
v 0.02557128 -0.03092818 -0.02519045
v -0.00063227 -0.04652411 -0.02562616
v -0.00063227 -0.04510665 -0.02559611
v -0.00063227 -0.04392800 -0.02557107
v 0.02557128 -0.02804318 -0.02450934
v -0.00063227 -0.03918259 -0.02499012
v 0.02548663 -0.03092818 -0.02519045
v 0.02557128 -0.02953768 -0.02505022
v -0.00063227 -0.04250669 -0.02553101
v 0.02557128 -0.02845148 -0.02472469
v 0.02557128 -0.02906391 -0.02498011
v -0.00063227 -0.03994524 -0.02527559
v -0.00063227 -0.04132803 -0.02549094
v -0.00063227 -0.04120478 -0.02547592
v -0.00063227 -0.04002998 -0.02530564
f 1 2 3
f 1 3 4
f 1 4 5
f 1 5 6
f 1 6 7
f 1 7 8
f 1 8 9
f 1 9 2
f 2 10 27
f 2 27 11
f 2 11 12
f 2 12 3
f 2 9 10
f 3 12 13
f 3 13 14
f 3 14 15
f 3 15 16
f 3 16 17
f 3 17 4
f 4 17 18
f 4 18 19
f 4 19 20
f 4 20 21
f 4 21 5
f 5 21 20
f 5 20 39
f 5 39 65
f 5 65 95
f 5 95 97
f 5 97 124
f 5 124 150
f 5 150 163
f 5 163 169
f 5 169 168
f 5 168 174
f 5 174 178
f 5 178 184
f 5 184 191
f 5 191 197
f 5 197 200
f 5 200 199
f 5 199 198
f 5 198 194
f 5 194 189
f 5 189 188
f 5 188 187
f 5 187 185
f 5 185 179
f 5 179 175
f 5 175 170
f 5 170 164
f 5 164 151
f 5 151 125
f 5 125 98
f 5 98 70
f 5 70 41
f 5 41 40
f 5 40 22
f 5 22 8
f 5 8 7
f 5 7 6
f 8 22 23
f 8 23 9
f 9 23 24
f 9 24 25
f 9 25 26
f 9 26 10
f 10 26 27
f 11 27 13
f 11 13 12
f 13 28 29
f 13 29 14
f 13 27 30
f 13 30 31
f 13 31 32
f 13 32 33
f 13 33 28
f 14 29 15
f 15 29 34
f 15 34 16
f 16 34 35
f 16 35 36
f 16 36 17
f 17 36 18
f 18 37 19
f 18 36 37
f 19 37 38
f 19 38 20
f 20 38 39
f 22 40 23
f 23 40 41
f 23 41 42
f 23 42 43
f 23 43 44
f 23 44 24
f 24 44 25
f 25 44 45
f 25 45 46
f 25 46 47
f 25 47 48
f 25 48 49
f 25 49 50
f 25 50 51
f 25 51 52
f 25 52 53
f 25 53 54
f 25 54 26
f 26 54 32
f 26 32 27
f 27 32 30
f 28 55 56
f 28 56 29
f 28 33 57
f 28 57 58
f 28 58 59
f 28 59 55
f 29 56 60
f 29 60 61
f 29 61 35
f 29 35 34
f 30 32 31
f 32 54 53
f 32 53 52
f 32 52 62
f 32 62 63
f 32 63 33
f 33 63 57
f 35 61 64
f 35 64 36
f 36 64 38
f 36 38 37
f 38 65 39
f 38 64 66
f 38 66 67
f 38 67 68
f 38 68 69
f 38 69 95
f 38 95 65
f 41 70 42
f 42 70 71
f 42 71 72
f 42 72 44
f 42 44 43
f 44 72 73
f 44 73 45
f 45 74 46
f 45 73 74
f 46 74 75
f 46 75 47
f 47 75 76
f 47 76 77
f 47 77 78
f 47 78 48
f 48 78 79
f 48 79 80
f 48 80 49
f 49 80 50
f 50 80 62
f 50 62 52
f 50 52 51
f 55 81 82
f 55 82 56
f 55 59 83
f 55 83 84
f 55 84 81
f 56 85 61
f 56 61 60
f 56 82 86
f 56 86 85
f 57 63 87
f 57 87 58
f 58 87 88
f 58 88 89
f 58 89 90
f 58 90 91
f 58 91 59
f 59 91 83
f 61 92 93
f 61 93 64
f 61 85 92
f 62 80 63
f 63 80 79
f 63 79 87
f 64 93 94
f 64 94 66
f 66 94 96
f 66 96 67
f 67 96 68
f 68 96 97
f 68 97 95
f 68 95 69
f 70 98 99
f 70 99 100
f 70 100 101
f 70 101 102
f 70 102 71
f 71 102 103
f 71 103 72
f 72 103 104
f 72 104 73
f 73 104 105
f 73 105 74
f 74 105 106
f 74 106 75
f 75 107 108
f 75 108 76
f 75 106 109
f 75 109 107
f 76 108 110
f 76 110 77
f 77 110 111
f 77 111 79
f 77 79 78
f 79 111 88
f 79 88 87
f 81 84 112
f 81 112 113
f 81 113 114
f 81 114 115
f 81 115 82
f 82 115 86
f 83 91 116
f 83 116 84
f 84 116 117
f 84 117 112
f 85 86 93
f 85 93 92
f 86 118 93
f 86 115 118
f 88 111 119
f 88 119 120
f 88 120 89
f 89 120 90
f 90 120 91
f 91 120 116
f 93 121 94
f 93 118 121
f 94 121 118
f 94 118 115
f 94 115 114
f 94 114 113
f 94 113 142
f 94 142 157
f 94 157 155
f 94 155 133
f 94 133 131
f 94 131 130
f 94 130 128
f 94 128 127
f 94 127 126
f 94 126 154
f 94 154 153
f 94 153 166
f 94 166 172
f 94 172 176
f 94 176 182
f 94 182 181
f 94 181 180
f 94 180 186
f 94 186 193
f 94 193 196
f 94 196 195
f 94 195 190
f 94 190 183
f 94 183 177
f 94 177 173
f 94 173 167
f 94 167 162
f 94 162 161
f 94 161 160
f 94 160 159
f 94 159 158
f 94 158 149
f 94 149 148
f 94 148 147
f 94 147 146
f 94 146 123
f 94 123 122
f 94 122 96
f 96 122 97
f 97 122 123
f 97 123 124
f 98 125 99
f 99 125 126
f 99 126 127
f 99 127 128
f 99 128 100
f 100 128 129
f 100 129 101
f 101 129 103
f 101 103 102
f 103 130 131
f 103 131 132
f 103 132 104
f 103 129 128
f 103 128 130
f 104 132 106
f 104 106 105
f 106 132 131
f 106 131 109
f 107 133 134
f 107 134 108
f 107 109 133
f 108 134 110
f 109 131 133
f 110 134 135
f 110 135 136
f 110 136 120
f 110 120 137
f 110 137 119
f 110 119 111
f 112 117 138
f 112 138 139
f 112 139 140
f 112 140 141
f 112 141 142
f 112 142 113
f 116 120 117
f 117 120 143
f 117 143 144
f 117 144 145
f 117 145 138
f 119 137 120
f 120 136 143
f 123 146 124
f 124 146 147
f 124 147 148
f 124 148 149
f 124 149 150
f 125 151 152
f 125 152 153
f 125 153 154
f 125 154 126
f 133 135 134
f 133 155 145
f 133 145 135
f 135 145 156
f 135 156 136
f 136 156 143
f 138 145 139
f 139 145 140
f 140 145 141
f 141 157 142
f 141 145 155
f 141 155 157
f 143 156 145
f 143 145 144
f 149 158 150
f 150 158 159
f 150 159 160
f 150 160 161
f 150 161 162
f 150 162 163
f 151 164 165
f 151 165 152
f 152 165 166
f 152 166 153
f 162 167 168
f 162 168 169
f 162 169 163
f 164 170 171
f 164 171 165
f 165 171 166
f 166 171 170
f 166 170 172
f 167 173 168
f 168 173 174
f 170 175 182
f 170 182 176
f 170 176 172
f 173 177 178
f 173 178 174
f 175 179 180
f 175 180 181
f 175 181 182
f 177 183 178
f 178 183 184
f 179 185 180
f 180 185 187
f 180 187 188
f 180 188 189
f 180 189 186
f 183 190 191
f 183 191 184
f 186 192 193
f 186 189 194
f 186 194 192
f 190 195 191
f 191 196 197
f 191 195 196
f 192 194 198
f 192 198 193
f 193 198 199
f 193 199 200
f 193 200 196
f 196 200 197

