# https://github.com/mikedh/trimesh
v 0.03848894 -0.00007771 0.02582376
v 0.03848894 -0.00233289 0.02581875
v 0.06188623 -0.00007771 0.02543303
v 0.03722667 -0.00007771 0.02519258
v 0.02557521 -0.02824668 0.02525269
v 0.02557521 -0.02832999 0.02526271
v 0.02557521 -0.02954981 0.02539295
v 0.02557521 -0.02963311 0.02539295
v 0.03848894 -0.00493320 0.02580372
v 0.06188623 -0.00363007 0.02541800
v 0.06318783 -0.00233289 0.02540297
v 0.06318783 -0.00102977 0.02540798
v 0.06318783 -0.00007771 0.02540798
v 0.03662109 -0.00007771 0.02390015
v 0.02557521 -0.02714586 0.02477680
v 0.02557521 -0.02715181 0.02478181
v 0.02557521 -0.05822456 0.02505231
v 0.02938956 -0.02572968 0.02548813
v 0.03719128 -0.01013381 0.02574361
v 0.03848894 -0.00623037 0.02578869
v 0.05148525 -0.03742212 0.02524768
v 0.05408845 -0.03222747 0.02526772
v 0.05538611 -0.02963311 0.02527774
v 0.05668771 -0.02703281 0.02528275
v 0.05928697 -0.02183220 0.02529276
v 0.06188623 -0.00623037 0.02539796
v 0.06318783 -0.00493320 0.02538794
v 0.06448549 -0.00102977 0.02525269
v 0.06413552 -0.00007771 0.02529276
v 0.03664468 -0.00007771 -0.02029269
v 0.02557521 -0.02668769 0.01740297
v 0.02557521 -0.02669364 0.01870041
v 0.02557521 -0.02673529 0.02260272
v 0.02557521 -0.02677694 0.02390015
v 0.02557521 -0.02679479 0.02405544
v 0.02557521 -0.05944438 0.02503729
v 0.02679030 -0.05822456 0.02506734
v 0.03069116 -0.02443250 0.02551819
v 0.02938956 -0.05692738 0.02509239
v 0.03198882 -0.05562425 0.02511243
v 0.03588968 -0.05302395 0.02513748
v 0.04109213 -0.04912647 0.02517254
v 0.04238980 -0.04782334 0.02518256
v 0.05018759 -0.03872525 0.02524768
v 0.04888599 -0.04132555 0.02521763
v 0.05278685 -0.03612495 0.02523766
v 0.05408845 -0.03352464 0.02525269
v 0.05538611 -0.03092434 0.02526271
v 0.05668771 -0.02832999 0.02526772
v 0.05928697 -0.02312938 0.02527273
v 0.06188623 -0.01532846 0.02529777
v 0.06318783 -0.00623037 0.02537292
v 0.06535454 -0.00102977 0.02483190
v 0.06511860 -0.00007771 0.02494211
v 0.06448549 -0.00007771 0.02524768
v 0.06318783 -0.00753350 0.02534787
v 0.06318783 -0.00883068 0.02531781
v 0.06318783 -0.01013381 0.02527774
v 0.06448549 -0.00233289 0.02520761
v 0.03664862 -0.00007771 -0.02159513
v 0.02557521 -0.02687215 -0.02159513
v 0.02557521 -0.02681859 -0.01119564
v 0.02557521 -0.02669364 0.01610053
v 0.02557521 -0.05953363 0.02502727
v 0.02809189 -0.05822456 0.02506233
v 0.03459202 -0.05432708 0.02510742
v 0.03979054 -0.05042364 0.02513748
v 0.04498906 -0.04652616 0.02510742
v 0.05018759 -0.04002243 0.02520260
v 0.04628673 -0.04522304 0.02510742
v 0.05148525 -0.03872525 0.02516252
v 0.05408845 -0.03482777 0.02519258
v 0.05538611 -0.03222747 0.02521763
v 0.05668771 -0.02963311 0.02523265
v 0.06058856 -0.02052907 0.02525770
v 0.05798537 -0.02703281 0.02523265
v 0.06188623 -0.01663159 0.02525770
v 0.06557474 -0.00102977 0.02390015
v 0.06551183 -0.00007771 0.02415062
v 0.06535060 -0.00007771 0.02482689
v 0.06530735 -0.00233289 0.02479183
v 0.06318783 -0.01143098 0.02520761
v 0.06448549 -0.00363007 0.02513748
v 0.03668794 -0.00007771 -0.02289256
v 0.02557521 -0.02693165 -0.02308793
v 0.02557521 -0.02692570 -0.02296770
v 0.02557521 -0.02691975 -0.02282744
v 0.02809189 -0.05931347 0.02479683
v 0.02557521 -0.06043214 0.02478682
v 0.02690433 -0.05964074 0.02484693
v 0.03069116 -0.05692738 0.02503729
v 0.03719128 -0.05302395 0.02504230
v 0.03848894 -0.05172677 0.02509239
v 0.03329042 -0.05562425 0.02498719
v 0.04369140 -0.04782334 0.02506233
v 0.04623561 -0.04647261 0.02480685
v 0.05023870 -0.04136126 0.02492708
v 0.05278685 -0.03742212 0.02507736
v 0.05148918 -0.03999268 0.02487699
v 0.05413956 -0.03614875 0.02491706
v 0.05513838 -0.03482777 0.02484192
v 0.05648716 -0.03222747 0.02486697
v 0.05780448 -0.02963311 0.02487198
v 0.05928697 -0.02443250 0.02520260
v 0.06058856 -0.02183220 0.02512245
v 0.06188623 -0.01792877 0.02515751
v 0.05907856 -0.02703281 0.02487198
v 0.06572810 -0.00102977 -0.02289256
v 0.06574383 -0.00007771 -0.02289256
v 0.06557082 -0.00007771 0.02390015
v 0.06525229 -0.00363007 0.02472170
v 0.06519331 -0.00469518 0.02463654
v 0.06548037 -0.00233289 0.02390015
v 0.06419450 -0.01013381 0.02489201
v 0.06408833 -0.01143098 0.02482689
v 0.06287718 -0.01663159 0.02488200
v 0.03683737 -0.00007771 -0.02324322
v 0.02557521 -0.02755644 -0.02408981
v 0.02557521 -0.02711611 -0.02339851
v 0.02905138 -0.05905165 0.02470667
v 0.03194950 -0.05693928 0.02483190
v 0.02944854 -0.05829596 0.02486196
v 0.02557521 -0.06046784 0.02477680
v 0.02654256 -0.06032503 0.02469665
v 0.03595260 -0.05439848 0.02488200
v 0.03719128 -0.05397600 0.02474674
v 0.03840636 -0.05297635 0.02478181
v 0.03975908 -0.05172082 0.02484693
v 0.04111180 -0.05046530 0.02490203
v 0.04489075 -0.04775789 0.02477179
v 0.04576373 -0.04728186 0.02465657
v 0.04704566 -0.04600253 0.02466158
v 0.04752147 -0.04511593 0.02476177
v 0.04983761 -0.04234901 0.02476678
v 0.05105270 -0.04095068 0.02473673
v 0.05226385 -0.03954045 0.02468162
v 0.05273179 -0.03860624 0.02477680
v 0.05489457 -0.03573817 0.02471168
v 0.05367948 -0.03742212 0.02473172
v 0.05622763 -0.03323903 0.02473673
v 0.05753709 -0.03068037 0.02474674
v 0.05883869 -0.02809792 0.02474674
v 0.06026219 -0.02443250 0.02484192
v 0.06168568 -0.02052907 0.02488701
v 0.06273955 -0.01792877 0.02478682
v 0.06007737 -0.02544406 0.02471168
v 0.06546857 -0.00102977 -0.02419500
v 0.06555901 -0.00007771 -0.02384435
v 0.06535847 -0.00363007 0.02390015
v 0.06482367 -0.00883068 0.01740297
v 0.06559047 -0.00233289 -0.02289256
v 0.06516972 -0.00586740 -0.02366902
v 0.06522477 -0.00493320 -0.02383934
v 0.06529948 -0.00363007 -0.02401467
v 0.06513433 -0.00556394 0.02426584
v 0.06395856 -0.01272816 0.02470166
v 0.06387205 -0.01354931 0.02460147
v 0.06459166 -0.01013381 0.02390015
v 0.03725026 -0.00007771 -0.02419500
v 0.02557521 -0.02804437 -0.02451060
v 0.02741160 -0.06015247 0.02422577
v 0.03396285 -0.05629069 0.02456640
v 0.03555936 -0.05516012 0.02471669
v 0.02557521 -0.06080106 0.02396528
v 0.03791482 -0.05373799 0.02461650
v 0.03930293 -0.05251222 0.02467661
v 0.04210667 -0.05006067 0.02475676
v 0.04584631 -0.04734731 0.02390015
v 0.04649514 -0.04673442 0.02390015
v 0.04439135 -0.04851358 0.02459646
v 0.04710858 -0.04608584 0.02390015
v 0.04826468 -0.04461015 0.02458644
v 0.05345534 -0.03810046 0.02457141
v 0.05499288 -0.03591073 0.02390015
v 0.05558666 -0.03482777 0.02390015
v 0.05731688 -0.03154912 0.02418068
v 0.05862241 -0.02896072 0.02427586
v 0.06143795 -0.02183220 0.02476177
v 0.06262157 -0.01889272 0.02466659
v 0.06128459 -0.02260575 0.02461650
v 0.05990434 -0.02632472 0.02390015
v 0.06532701 -0.00222579 -0.02428016
v 0.06514219 -0.00172596 -0.02484623
v 0.06516578 -0.00102977 -0.02486126
v 0.06548823 -0.00007771 -0.02419500
v 0.06520118 -0.00505220 0.02386008
v 0.06479615 -0.00883068 0.02260272
v 0.06480794 -0.00883068 0.02130028
v 0.06481581 -0.00883068 0.02000285
v 0.06466245 -0.01013381 0.02000285
v 0.06466638 -0.01013381 0.01870041
v 0.06482760 -0.00883068 0.01480310
v 0.06500849 -0.00753350 -0.02289256
v 0.06486300 -0.00883068 -0.02289256
v 0.06469784 -0.01013381 -0.02289256
v 0.06391137 -0.01403129 -0.02377422
v 0.06403328 -0.01272816 -0.02405474
v 0.06410799 -0.01144288 -0.02431022
v 0.06475289 -0.00883068 0.02390015
v 0.06294402 -0.01792877 0.02390015
v 0.06389958 -0.01367427 0.02390015
v 0.06410406 -0.01272816 0.02390015
v 0.06437539 -0.01143098 0.02390015
v 0.06463885 -0.01013381 0.02260272
v 0.03739576 -0.00007771 -0.02437534
v 0.02557521 -0.02845494 -0.02472600
v 0.02557521 -0.06081296 0.02390015
v 0.02690433 -0.06036669 0.02383503
v 0.02744699 -0.06017627 0.02335914
v 0.02796606 -0.05986685 0.02383503
v 0.02923227 -0.05915876 0.02390015
v 0.03572059 -0.05526128 0.02390015
v 0.03636942 -0.05485071 0.02390015
v 0.03719128 -0.05430327 0.02390015
v 0.03796988 -0.05377964 0.02390015
v 0.04506378 -0.04800185 0.02390015
v 0.04585811 -0.04735921 0.02260272
v 0.04651087 -0.04674633 0.02260272
v 0.04441494 -0.04853738 0.02390015
v 0.04712038 -0.04609774 0.02260272
v 0.04776134 -0.04528849 0.02390015
v 0.04829221 -0.04463990 0.02390015
v 0.04999884 -0.04255133 0.02390015
v 0.05117460 -0.04109944 0.02390015
v 0.05182343 -0.04028424 0.02390015
v 0.05233856 -0.03963565 0.02390015
v 0.05348287 -0.03813617 0.02390015
v 0.05458785 -0.03655932 0.02390015
v 0.05463504 -0.03661288 0.02260272
v 0.05501647 -0.03596429 0.02260272
v 0.05564171 -0.03482777 0.02260272
v 0.05633773 -0.03344729 0.02390015
v 0.05734047 -0.03157888 0.02331406
v 0.05836288 -0.02950815 0.02386509
v 0.05864207 -0.02899047 0.02340923
v 0.05993580 -0.02637827 0.02313873
v 0.06248394 -0.01973172 0.02390015
v 0.06266483 -0.01908314 0.02390015
v 0.06217722 -0.02052907 0.02390015
v 0.06016388 -0.02567613 0.02390015
v 0.06376588 -0.01188321 -0.02481617
v 0.06385632 -0.01101446 -0.02485625
v 0.06389958 -0.01013381 -0.02488129
v 0.06396643 -0.00883068 -0.02490634
v 0.06448549 -0.00102977 -0.02495142
v 0.06517365 -0.00007771 -0.02487127
v 0.06401755 -0.00753350 -0.02492136
v 0.06465851 -0.01013381 0.02130028
v 0.06443044 -0.01143098 0.02130028
v 0.06447763 -0.01143098 -0.02289256
v 0.06384453 -0.01472748 -0.02357885
v 0.06273168 -0.01922595 -0.02427015
v 0.06257046 -0.01879157 -0.02487127
v 0.06251540 -0.01979123 0.02260272
v 0.06252327 -0.01982693 0.02130028
v 0.06253113 -0.01985668 0.02000285
v 0.06325468 -0.01663159 0.02260272
v 0.06354960 -0.01532846 0.02260272
v 0.06376588 -0.01436451 0.02260272
v 0.06391137 -0.01371592 0.02260272
v 0.06413158 -0.01272816 0.02260272
v 0.06441864 -0.01143098 0.02260272
v 0.03780472 -0.00007771 -0.02486626
v 0.02557521 -0.02906188 -0.02498148
v 0.02557521 -0.06086651 0.02260272
v 0.02745486 -0.06018222 0.02260272
v 0.02810369 -0.05983710 0.02260272
v 0.02925193 -0.05918256 0.02260272
v 0.03571666 -0.05526723 0.02260272
v 0.03636942 -0.05486856 0.02260272
v 0.02925979 -0.05919446 0.02000285
v 0.02927159 -0.05920041 0.01740297
v 0.03719128 -0.05433898 0.02260272
v 0.03798954 -0.05379155 0.02260272
v 0.04588956 -0.04738301 0.01610053
v 0.04653446 -0.04677608 0.01740297
v 0.04714004 -0.04612154 0.01870041
v 0.03800527 -0.05380344 0.02000285
v 0.03865410 -0.05327386 0.02000285
v 0.03865803 -0.05327981 0.01870041
v 0.04777314 -0.04530039 0.02260272
v 0.05001456 -0.04255728 0.02260272
v 0.05066340 -0.04175993 0.02260272
v 0.05119033 -0.04111134 0.02260272
v 0.05183916 -0.04030210 0.02260272
v 0.05235429 -0.03964756 0.02260272
v 0.05300312 -0.03881450 0.02260272
v 0.05350253 -0.03815997 0.02260272
v 0.05405306 -0.03742212 0.02260272
v 0.05464683 -0.03663073 0.02130028
v 0.05502827 -0.03598214 0.02130028
v 0.05566530 -0.03482777 0.02130028
v 0.05602708 -0.03415538 0.02130028
v 0.05601528 -0.03413158 0.02260272
v 0.05635739 -0.03348299 0.02260272
v 0.05701802 -0.03225722 0.02130028
v 0.05734440 -0.03159078 0.02260272
v 0.05770224 -0.03092434 0.02130028
v 0.05768258 -0.03092434 0.02260272
v 0.05832355 -0.02965096 0.02260272
v 0.05833535 -0.02966881 0.02130028
v 0.05834321 -0.02969262 0.02000285
v 0.05867746 -0.02906188 0.01870041
v 0.05997119 -0.02644967 0.01870041
v 0.05995939 -0.02643182 0.02000285
v 0.06025825 -0.02572968 0.01870041
v 0.06222834 -0.02052907 0.02260272
v 0.06262157 -0.01792877 -0.02490133
v 0.06268449 -0.01663159 -0.02493138
v 0.06188623 -0.01792877 -0.02501654
v 0.06188623 -0.01663159 -0.02504159
v 0.06318783 -0.00753350 -0.02500653
v 0.06448549 -0.00007771 -0.02495643
v 0.06467031 -0.00007771 -0.02493639
v 0.06296369 -0.01923190 -0.02289256
v 0.06384453 -0.01472748 -0.02319814
v 0.06264124 -0.02024940 -0.02388442
v 0.06242496 -0.01965437 -0.02475105
v 0.06131605 -0.02274855 -0.02489632
v 0.06143401 -0.02183220 -0.02494140
v 0.06253900 -0.01988048 0.01809427
v 0.06027398 -0.02572968 0.01740297
v 0.06028971 -0.02572968 0.01610053
v 0.06220475 -0.02183220 -0.02289256
v 0.06249574 -0.02105270 -0.02289256
v 0.03848894 -0.00007771 -0.02499651
v 0.02557521 -0.03092434 -0.02519187
v 0.02557521 -0.02953791 -0.02505161
v 0.02557521 -0.06081891 -0.02289256
v 0.02679030 -0.06041429 -0.02289256
v 0.02746665 -0.06018817 -0.02289256
v 0.02746272 -0.06018817 0.01610053
v 0.02745879 -0.06018222 0.02130028
v 0.02811156 -0.05984900 0.01870041
v 0.03164671 -0.05776638 -0.02159513
v 0.03719128 -0.05435683 0.01740297
v 0.03719128 -0.05434493 0.02130028
v 0.03229947 -0.05736771 -0.02159513
v 0.03572845 -0.05527318 -0.02159513
v 0.03637729 -0.05487451 -0.02029269
v 0.02928339 -0.05920041 -0.02289256
v 0.03069116 -0.05834952 -0.02289256
v 0.04589349 -0.04738301 0.01480310
v 0.03866196 -0.05328576 0.01610053
v 0.04654233 -0.04677608 0.01480310
v 0.04714397 -0.04612749 0.01610053
v 0.04779280 -0.04532419 0.01740297
v 0.05120606 -0.04112919 0.01610053
v 0.05119426 -0.04111729 0.02130028
v 0.03801313 -0.05380940 0.01740297
v 0.05184702 -0.04031399 0.02000285
v 0.05235823 -0.03965946 0.02130028
v 0.05301099 -0.03882045 0.02130028
v 0.05351039 -0.03817187 0.02130028
v 0.05407272 -0.03742212 0.02130028
v 0.05465470 -0.03664858 0.02000285
v 0.05503613 -0.03599999 0.02000285
v 0.05575575 -0.03469686 0.01991268
v 0.05603494 -0.03416728 0.02028337
v 0.05702589 -0.03227507 0.02000285
v 0.05735227 -0.03160863 0.02130028
v 0.05771797 -0.03092434 0.02000285
v 0.05835108 -0.02971047 0.01870041
v 0.05868533 -0.02907378 0.01740297
v 0.05908642 -0.02832999 0.01480310
v 0.05966840 -0.02713396 0.01610053
v 0.05966054 -0.02711611 0.01740297
v 0.05997906 -0.02646752 0.01740297
v 0.06058856 -0.02183220 -0.02506163
v 0.06058856 -0.02052907 -0.02507666
v 0.06318783 -0.00102977 -0.02502155
v 0.06318783 -0.00007771 -0.02502155
v 0.06268842 -0.02040412 -0.02289256
v 0.06131211 -0.02396243 -0.02383934
v 0.06147727 -0.02315913 -0.02424009
v 0.06111943 -0.02361135 -0.02470596
v 0.05992007 -0.02636637 -0.02483621
v 0.06007343 -0.02549762 -0.02491636
v 0.06027398 -0.02443250 -0.02496144
v 0.06107617 -0.02468242 -0.02289256
v 0.06169355 -0.02312938 -0.02289256
v 0.05998692 -0.02648538 0.01610053
v 0.03883892 -0.00007771 -0.02502656
v 0.02557521 -0.03222747 -0.02521692
v 0.03979054 -0.00007771 -0.02510171
v 0.02557521 -0.06074156 -0.02418999
v 0.02688860 -0.06034288 -0.02416495
v 0.02746272 -0.06018222 -0.02370909
v 0.02811549 -0.05984900 -0.02289256
v 0.03164671 -0.05776638 -0.02289256
v 0.03719128 -0.05436278 -0.02159513
v 0.03802493 -0.05381534 -0.02289256
v 0.03637729 -0.05487451 -0.02289256
v 0.02922833 -0.05915876 -0.02419500
v 0.03158772 -0.05772473 -0.02419500
v 0.03397857 -0.05629664 -0.02376921
v 0.04590922 -0.04739491 0.00440361
v 0.03947989 -0.05265503 -0.02289256
v 0.04655806 -0.04678798 0.00440361
v 0.04714397 -0.04613939 0.00310117
v 0.05239361 -0.03969516 -0.02289256
v 0.05185489 -0.04031995 0.01610053
v 0.05185096 -0.04031995 0.01740297
v 0.03867376 -0.05330362 -0.02289256
v 0.05236609 -0.03966541 0.01870041
v 0.05301885 -0.03883831 0.01740297
v 0.05301492 -0.03882641 0.02000285
v 0.05351433 -0.03817782 0.02000285
v 0.05410417 -0.03742212 0.01740297
v 0.05408451 -0.03742212 0.02000285
v 0.05467436 -0.03667238 0.01610053
v 0.05466650 -0.03666643 0.01740297
v 0.05466256 -0.03665453 0.01870041
v 0.05504400 -0.03600594 0.01870041
v 0.05569283 -0.03483372 0.01870041
v 0.05604674 -0.03419108 0.01740297
v 0.05638492 -0.03352464 0.01870041
v 0.05736800 -0.03163243 0.01870041
v 0.05984536 -0.02749693 -0.02289256
v 0.05836288 -0.02974022 0.01610053
v 0.05967627 -0.02714586 0.01480310
v 0.05928697 -0.02443250 -0.02509169
v 0.05928697 -0.02312938 -0.02509670
v 0.06058856 -0.01923190 -0.02507666
v 0.05443842 -0.00007771 -0.02505662
v 0.04498906 -0.04392586 -0.02525700
v 0.04369140 -0.04392586 -0.02526701
v 0.02557521 -0.04522304 -0.02535218
v 0.02557521 -0.04392586 -0.02534717
v 0.06064755 -0.02572968 -0.02289256
v 0.06015994 -0.02684835 -0.02289256
v 0.06008916 -0.02669959 -0.02396958
v 0.05859095 -0.02893097 -0.02480615
v 0.05483165 -0.03565487 -0.02490634
v 0.05615684 -0.03313787 -0.02491636
v 0.05747417 -0.03060302 -0.02492136
v 0.05878756 -0.02806222 -0.02491636
v 0.05906283 -0.02703281 -0.02496144
v 0.05940887 -0.02584869 -0.02499150
v 0.05999872 -0.02650918 0.01350066
v 0.02557521 -0.03742212 -0.02528204
v 0.05053756 -0.00007771 -0.02507165
v 0.02557521 -0.04262273 -0.02533715
v 0.02557521 -0.03872525 -0.02529707
v 0.02557521 -0.06042024 -0.02503658
v 0.02651897 -0.06028933 -0.02495643
v 0.02738801 -0.06014057 -0.02457572
v 0.02797392 -0.05986090 -0.02416495
v 0.03719128 -0.05436278 -0.02289256
v 0.03797381 -0.05377369 -0.02419500
v 0.03146582 -0.05765332 -0.02491135
v 0.03388813 -0.05622524 -0.02463583
v 0.03789123 -0.05371419 -0.02487628
v 0.03565374 -0.05521368 -0.02419500
v 0.04590922 -0.04739491 0.00050129
v 0.03862264 -0.05325006 -0.02419500
v 0.04441888 -0.04853738 -0.02419500
v 0.04510703 -0.04804350 -0.02289256
v 0.04655806 -0.04678798 0.00180373
v 0.04714397 -0.04613939 0.00180373
v 0.05186669 -0.04034374 -0.02289256
v 0.05304638 -0.03887996 -0.02289256
v 0.05352219 -0.03818377 -0.02387941
v 0.05472941 -0.03676164 -0.02289256
v 0.05237002 -0.03967136 0.01610053
v 0.05352612 -0.03818972 0.01610053
v 0.05411204 -0.03742212 0.01610053
v 0.05467436 -0.03667833 0.01480310
v 0.05507152 -0.03604759 0.00570104
v 0.05505186 -0.03602379 0.01610053
v 0.05504793 -0.03601784 0.01740297
v 0.05570070 -0.03485157 0.01610053
v 0.05605460 -0.03420298 0.01480310
v 0.05570463 -0.03485752 0.01480310
v 0.05655008 -0.03352464 -0.02289256
v 0.05609000 -0.03426844 -0.02376420
v 0.05743092 -0.03174549 -0.02387941
v 0.05876790 -0.02921064 -0.02393952
v 0.05572429 -0.03489917 0.00440361
v 0.05668771 -0.02963311 -0.02511172
v 0.05538611 -0.03092434 -0.02513677
v 0.04498906 -0.04522304 -0.02525700
v 0.04369140 -0.04522304 -0.02526701
v 0.02557521 -0.05441038 -0.02534717
v 0.05724610 -0.03147177 -0.02474604
v 0.05499288 -0.03593453 -0.02419500
v 0.05458392 -0.03658312 -0.02419500
v 0.05336883 -0.03800526 -0.02474604
v 0.05219307 -0.03944524 -0.02488630
v 0.05366375 -0.03713651 -0.02494140
v 0.05409238 -0.03610114 -0.02499651
v 0.05502434 -0.03482777 -0.02496144
v 0.05589338 -0.03400662 -0.02463082
v 0.05638492 -0.03222747 -0.02496645
v 0.05772977 -0.02963311 -0.02496645
v 0.05538611 -0.03222747 -0.02511673
v 0.02557521 -0.05953363 -0.02527703
v 0.02809189 -0.05929562 -0.02506163
v 0.02903172 -0.05903380 -0.02497146
v 0.04436775 -0.04849573 -0.02486126
v 0.03546892 -0.05510062 -0.02494140
v 0.03719128 -0.05389865 -0.02497146
v 0.03839063 -0.05296445 -0.02499651
v 0.03928720 -0.05249437 -0.02493138
v 0.04589349 -0.04739491 -0.02289256
v 0.04507164 -0.04800185 -0.02419500
v 0.04654233 -0.04675822 -0.02289256
v 0.04712431 -0.04610964 -0.02289256
v 0.04708106 -0.04605608 -0.02419500
v 0.04700241 -0.04595493 -0.02489632
v 0.05231104 -0.03958805 -0.02419500
v 0.05510692 -0.03611305 -0.02289256
v 0.05411597 -0.03742212 0.01480310
v 0.05611359 -0.03431604 -0.02289256
v 0.05575575 -0.03496463 -0.02289256
v 0.05278685 -0.03612495 -0.02515180
v 0.04628673 -0.04392586 -0.02523696
v 0.04498906 -0.04652616 -0.02519688
v 0.04369140 -0.04652616 -0.02526201
v 0.02557521 -0.05822456 -0.02533715
v 0.05142627 -0.03993912 -0.02497647
v 0.05245260 -0.03872525 -0.02495142
v 0.04726981 -0.04522304 -0.02497647
v 0.05148525 -0.03872525 -0.02511172
v 0.05408845 -0.03482777 -0.02511172
v 0.02679030 -0.05822456 -0.02532713
v 0.02809189 -0.05822456 -0.02529707
v 0.03069116 -0.05692738 -0.02523696
v 0.03193377 -0.05691548 -0.02505662
v 0.03459202 -0.05535649 -0.02502656
v 0.04573620 -0.04726401 -0.02491135
v 0.04584238 -0.04735326 -0.02419500
v 0.03589754 -0.05435088 -0.02507165
v 0.03719128 -0.05302395 -0.02518185
v 0.03974728 -0.05170297 -0.02504660
v 0.04487502 -0.04774599 -0.02497647
v 0.04649514 -0.04670467 -0.02419500
v 0.04621594 -0.04644286 -0.02499150
v 0.05018759 -0.04002243 -0.02515180
v 0.04888599 -0.04132555 -0.02518185
v 0.04628673 -0.04522304 -0.02517684
v 0.04369140 -0.04782334 -0.02516182
v 0.03848894 -0.05172677 -0.02522193
v 0.03979054 -0.05042364 -0.02523696
v 0.04109213 -0.04912647 -0.02524698
v 0.04238980 -0.04782334 -0.02525700
v 0.03588968 -0.05302395 -0.02526701
v 0.02938956 -0.05692738 -0.02530709
v 0.03459202 -0.05432708 -0.02524197
f 1 2 3
f 1 3 13
f 1 13 29
f 1 29 55
f 1 55 54
f 1 54 80
f 1 80 79
f 1 79 110
f 1 110 109
f 1 109 148
f 1 148 185
f 1 185 246
f 1 246 314
f 1 314 313
f 1 313 372
f 1 372 425
f 1 425 442
f 1 442 385
f 1 385 383
f 1 383 326
f 1 326 263
f 1 263 205
f 1 205 159
f 1 159 117
f 1 117 84
f 1 84 60
f 1 60 30
f 1 30 14
f 1 14 4
f 1 4 5
f 1 5 6
f 1 6 7
f 1 7 8
f 1 8 2
f 2 9 10
f 2 10 11
f 2 11 12
f 2 12 3
f 2 8 9
f 3 12 13
f 4 14 15
f 4 15 16
f 4 16 5
f 5 16 15
f 5 15 35
f 5 35 34
f 5 34 33
f 5 33 32
f 5 32 31
f 5 31 63
f 5 63 62
f 5 62 61
f 5 61 87
f 5 87 86
f 5 86 85
f 5 85 119
f 5 119 118
f 5 118 160
f 5 160 206
f 5 206 264
f 5 264 328
f 5 328 327
f 5 327 384
f 5 384 441
f 5 441 444
f 5 444 443
f 5 443 429
f 5 429 428
f 5 428 484
f 5 484 520
f 5 520 497
f 5 497 445
f 5 445 386
f 5 386 329
f 5 329 265
f 5 265 207
f 5 207 164
f 5 164 123
f 5 123 89
f 5 89 64
f 5 64 36
f 5 36 17
f 5 17 8
f 5 8 7
f 5 7 6
f 8 17 18
f 8 18 19
f 8 19 9
f 9 19 20
f 9 20 21
f 9 21 22
f 9 22 23
f 9 23 24
f 9 24 25
f 9 25 26
f 9 26 27
f 9 27 10
f 10 27 11
f 11 27 28
f 11 28 12
f 12 28 13
f 13 28 29
f 14 30 31
f 14 31 32
f 14 32 33
f 14 33 34
f 14 34 35
f 14 35 15
f 17 36 37
f 17 37 18
f 18 38 19
f 18 37 38
f 19 38 37
f 19 37 39
f 19 39 40
f 19 40 41
f 19 41 42
f 19 42 43
f 19 43 20
f 20 43 44
f 20 44 21
f 21 44 45
f 21 45 46
f 21 46 47
f 21 47 22
f 22 47 23
f 23 47 48
f 23 48 49
f 23 49 24
f 24 49 25
f 25 50 51
f 25 51 52
f 25 52 27
f 25 27 26
f 25 49 50
f 27 52 28
f 28 53 54
f 28 54 55
f 28 55 29
f 28 52 56
f 28 56 57
f 28 57 58
f 28 58 59
f 28 59 53
f 30 60 61
f 30 61 62
f 30 62 63
f 30 63 31
f 36 64 65
f 36 65 37
f 37 65 39
f 39 65 40
f 40 65 66
f 40 66 41
f 41 66 42
f 42 66 67
f 42 67 68
f 42 68 43
f 43 68 45
f 43 45 44
f 45 69 46
f 45 68 70
f 45 70 69
f 46 69 71
f 46 71 72
f 46 72 73
f 46 73 74
f 46 74 47
f 47 74 48
f 48 74 49
f 49 74 50
f 50 75 51
f 50 74 76
f 50 76 75
f 51 75 77
f 51 77 58
f 51 58 57
f 51 57 56
f 51 56 52
f 53 78 79
f 53 79 80
f 53 80 54
f 53 59 81
f 53 81 78
f 58 82 83
f 58 83 59
f 58 77 82
f 59 83 81
f 60 84 85
f 60 85 86
f 60 86 87
f 60 87 61
f 64 88 65
f 64 89 90
f 64 90 88
f 65 88 91
f 65 91 66
f 66 92 93
f 66 93 67
f 66 91 94
f 66 94 92
f 67 93 68
f 68 93 95
f 68 95 96
f 68 96 70
f 69 70 71
f 70 96 97
f 70 97 71
f 71 98 72
f 71 97 99
f 71 99 98
f 72 98 100
f 72 100 101
f 72 101 102
f 72 102 73
f 73 102 74
f 74 102 103
f 74 103 76
f 75 76 104
f 75 104 105
f 75 105 106
f 75 106 77
f 76 103 107
f 76 107 104
f 77 106 82
f 78 108 109
f 78 109 110
f 78 110 79
f 78 81 111
f 78 111 112
f 78 112 113
f 78 113 108
f 81 83 114
f 81 114 111
f 82 115 114
f 82 114 83
f 82 106 116
f 82 116 115
f 84 117 118
f 84 118 119
f 84 119 85
f 88 120 121
f 88 121 94
f 88 94 122
f 88 122 91
f 88 90 89
f 88 89 123
f 88 123 124
f 88 124 120
f 91 122 94
f 92 94 125
f 92 125 126
f 92 126 127
f 92 127 128
f 92 128 129
f 92 129 95
f 92 95 93
f 94 121 125
f 95 130 96
f 95 129 130
f 96 130 131
f 96 131 132
f 96 132 133
f 96 133 97
f 97 134 99
f 97 133 132
f 97 132 134
f 98 99 100
f 99 134 135
f 99 135 136
f 99 136 137
f 99 137 100
f 100 138 101
f 100 137 139
f 100 139 138
f 101 138 140
f 101 140 102
f 102 140 141
f 102 141 103
f 103 141 142
f 103 142 107
f 104 143 105
f 104 107 143
f 105 144 106
f 105 143 144
f 106 145 116
f 106 144 145
f 107 142 146
f 107 146 143
f 108 147 148
f 108 148 109
f 108 113 149
f 108 149 150
f 108 150 151
f 108 151 152
f 108 152 153
f 108 153 154
f 108 154 147
f 111 114 115
f 111 115 112
f 112 155 149
f 112 149 113
f 112 115 156
f 112 156 157
f 112 157 158
f 112 158 155
f 115 116 145
f 115 145 156
f 117 159 118
f 118 159 160
f 120 124 161
f 120 161 162
f 120 162 163
f 120 163 121
f 121 163 125
f 123 164 124
f 124 164 161
f 125 163 126
f 126 165 127
f 126 163 165
f 127 165 166
f 127 166 167
f 127 167 128
f 128 167 130
f 128 130 129
f 130 167 131
f 131 168 169
f 131 169 132
f 131 167 166
f 131 166 170
f 131 170 168
f 132 169 171
f 132 171 172
f 132 172 136
f 132 136 135
f 132 135 134
f 136 173 139
f 136 139 137
f 136 172 173
f 138 174 175
f 138 175 176
f 138 176 140
f 138 139 173
f 138 173 174
f 140 176 177
f 140 177 141
f 141 177 142
f 142 177 146
f 143 146 178
f 143 178 144
f 144 178 179
f 144 179 145
f 145 179 157
f 145 157 156
f 146 180 178
f 146 177 181
f 146 181 180
f 147 154 182
f 147 182 183
f 147 183 184
f 147 184 185
f 147 185 148
f 149 155 186
f 149 186 187
f 149 187 188
f 149 188 189
f 149 189 150
f 150 189 190
f 150 190 191
f 150 191 192
f 150 192 151
f 151 192 193
f 151 193 152
f 152 193 194
f 152 194 195
f 152 195 196
f 152 196 197
f 152 197 198
f 152 198 153
f 153 183 154
f 153 198 183
f 154 183 182
f 155 158 199
f 155 199 187
f 155 187 186
f 157 179 200
f 157 200 201
f 157 201 202
f 157 202 203
f 157 203 158
f 158 203 204
f 158 204 199
f 159 205 160
f 160 205 206
f 161 164 207
f 161 207 208
f 161 208 209
f 161 209 210
f 161 210 211
f 161 211 162
f 162 212 213
f 162 213 165
f 162 165 163
f 162 211 212
f 165 213 214
f 165 214 215
f 165 215 170
f 165 170 166
f 168 170 216
f 168 216 217
f 168 217 218
f 168 218 169
f 169 218 171
f 170 219 216
f 170 215 219
f 171 220 281
f 171 281 221
f 171 221 172
f 171 218 220
f 172 221 222
f 172 222 223
f 172 223 224
f 172 224 173
f 173 224 225
f 173 225 226
f 173 226 227
f 173 227 228
f 173 228 174
f 174 228 229
f 174 229 230
f 174 230 231
f 174 231 175
f 175 231 232
f 175 232 176
f 176 232 233
f 176 233 177
f 177 234 235
f 177 235 236
f 177 236 181
f 177 233 234
f 178 180 179
f 179 237 238
f 179 238 200
f 179 180 237
f 180 239 237
f 180 181 240
f 180 240 239
f 181 236 240
f 183 198 241
f 183 241 242
f 183 242 243
f 183 243 244
f 183 244 184
f 184 245 246
f 184 246 185
f 184 244 247
f 184 247 245
f 187 199 204
f 187 204 248
f 187 248 188
f 188 248 189
f 189 248 190
f 190 248 249
f 190 249 191
f 191 249 250
f 191 250 195
f 191 195 194
f 191 194 192
f 192 194 193
f 195 250 251
f 195 251 196
f 196 251 252
f 196 252 253
f 196 253 197
f 197 241 198
f 197 253 241
f 200 238 254
f 200 254 255
f 200 255 256
f 200 256 257
f 200 257 258
f 200 258 201
f 201 258 259
f 201 259 260
f 201 260 261
f 201 261 262
f 201 262 202
f 202 262 203
f 203 262 204
f 204 262 248
f 205 263 206
f 206 263 264
f 207 265 208
f 208 265 209
f 209 265 266
f 209 266 267
f 209 267 211
f 209 211 210
f 211 267 268
f 211 268 212
f 212 269 270
f 212 270 213
f 212 268 271
f 212 271 272
f 212 272 269
f 213 270 273
f 213 273 214
f 214 273 215
f 215 273 274
f 215 274 219
f 216 219 217
f 217 219 275
f 217 275 276
f 217 276 218
f 218 276 277
f 218 277 220
f 219 274 278
f 219 278 279
f 219 279 280
f 219 280 275
f 220 277 281
f 221 281 222
f 222 281 223
f 223 282 283
f 223 283 284
f 223 284 224
f 223 281 282
f 224 284 285
f 224 285 225
f 225 285 226
f 226 285 286
f 226 286 287
f 226 287 227
f 227 288 289
f 227 289 229
f 227 229 228
f 227 287 288
f 229 290 291
f 229 291 230
f 229 289 290
f 230 291 292
f 230 292 231
f 231 292 293
f 231 293 294
f 231 294 232
f 232 294 295
f 232 295 233
f 233 295 293
f 233 293 296
f 233 296 297
f 233 297 298
f 233 298 299
f 233 299 235
f 233 235 234
f 235 299 300
f 235 300 301
f 235 301 302
f 235 302 303
f 235 303 304
f 235 304 305
f 235 305 236
f 236 305 304
f 236 304 306
f 236 306 255
f 236 255 307
f 236 307 254
f 236 254 239
f 236 239 240
f 237 254 238
f 237 239 254
f 241 253 242
f 242 253 308
f 242 308 243
f 243 308 309
f 243 309 244
f 244 309 310
f 244 310 311
f 244 311 247
f 245 312 313
f 245 313 314
f 245 314 246
f 245 247 311
f 245 311 312
f 248 262 249
f 249 262 261
f 249 261 260
f 249 260 315
f 249 315 316
f 249 316 250
f 250 316 251
f 251 316 315
f 251 315 317
f 251 317 252
f 252 317 318
f 252 318 253
f 253 318 319
f 253 319 320
f 253 320 308
f 254 307 255
f 255 306 256
f 256 321 257
f 256 306 322
f 256 322 323
f 256 323 324
f 256 324 325
f 256 325 321
f 257 321 315
f 257 315 258
f 258 315 259
f 259 315 260
f 263 326 327
f 263 327 328
f 263 328 264
f 265 329 330
f 265 330 331
f 265 331 332
f 265 332 266
f 266 332 333
f 266 333 334
f 266 334 267
f 267 334 272
f 267 272 271
f 267 271 268
f 269 272 335
f 269 335 338
f 269 338 270
f 270 336 337
f 270 337 273
f 270 338 339
f 270 339 340
f 270 340 336
f 272 334 341
f 272 341 342
f 272 342 335
f 273 337 278
f 273 278 274
f 275 343 276
f 275 280 344
f 275 344 343
f 276 345 346
f 276 346 277
f 276 343 345
f 277 346 347
f 277 347 348
f 277 348 349
f 277 349 283
f 277 283 282
f 277 282 281
f 278 280 279
f 278 337 350
f 278 350 280
f 280 350 344
f 283 349 284
f 284 349 351
f 284 351 285
f 285 351 352
f 285 352 286
f 286 352 287
f 287 352 353
f 287 353 354
f 287 354 288
f 288 354 355
f 288 355 289
f 289 355 356
f 289 356 290
f 290 356 357
f 290 357 291
f 291 357 292
f 292 358 293
f 292 357 358
f 293 359 296
f 293 295 294
f 293 358 359
f 296 359 360
f 296 360 297
f 297 361 298
f 297 360 361
f 298 361 362
f 298 362 363
f 298 363 302
f 298 302 299
f 299 302 301
f 299 301 300
f 302 363 303
f 303 364 365
f 303 365 366
f 303 366 367
f 303 367 304
f 303 363 364
f 304 367 368
f 304 368 323
f 304 323 322
f 304 322 306
f 308 320 310
f 308 310 309
f 310 320 369
f 310 369 311
f 311 369 370
f 311 370 371
f 311 371 312
f 312 371 313
f 313 371 372
f 315 321 373
f 315 373 317
f 317 373 325
f 317 325 374
f 317 374 375
f 317 375 376
f 317 376 318
f 318 376 319
f 319 376 377
f 319 377 378
f 319 378 379
f 319 379 320
f 320 379 369
f 321 325 373
f 323 380 381
f 323 381 324
f 323 368 382
f 323 382 380
f 324 381 374
f 324 374 325
f 326 383 327
f 327 383 385
f 327 385 384
f 329 386 387
f 329 387 388
f 329 388 330
f 330 388 331
f 331 388 389
f 331 389 334
f 331 334 332
f 332 334 333
f 334 389 341
f 335 390 338
f 335 342 390
f 336 391 392
f 336 392 350
f 336 350 337
f 336 340 391
f 338 390 339
f 339 393 340
f 339 390 393
f 340 393 449
f 340 449 391
f 341 394 342
f 341 389 388
f 341 388 394
f 342 394 395
f 342 395 396
f 342 396 390
f 343 397 399
f 343 399 345
f 343 344 397
f 344 398 397
f 344 350 398
f 345 399 346
f 346 399 400
f 346 400 348
f 346 348 347
f 348 401 402
f 348 402 403
f 348 403 351
f 348 351 349
f 348 400 401
f 350 392 404
f 350 404 398
f 351 403 465
f 351 465 405
f 351 405 352
f 352 405 406
f 352 406 407
f 352 407 353
f 353 407 408
f 353 408 354
f 354 408 409
f 354 409 410
f 354 410 355
f 355 410 411
f 355 411 412
f 355 412 356
f 356 412 411
f 356 411 413
f 356 413 414
f 356 414 357
f 357 414 415
f 357 415 358
f 358 415 416
f 358 416 359
f 359 416 417
f 359 417 360
f 360 418 362
f 360 362 361
f 360 417 419
f 360 419 418
f 362 418 420
f 362 420 363
f 363 420 364
f 364 420 365
f 365 419 421
f 365 421 366
f 365 420 419
f 366 421 382
f 366 382 368
f 366 368 367
f 369 379 422
f 369 422 370
f 370 422 423
f 370 423 424
f 370 424 372
f 370 372 371
f 372 424 423
f 372 423 426
f 372 426 427
f 372 427 428
f 372 428 429
f 372 429 425
f 374 376 375
f 374 381 380
f 374 380 430
f 374 430 431
f 374 431 432
f 374 432 377
f 374 377 376
f 377 432 433
f 377 433 434
f 377 434 435
f 377 435 436
f 377 436 437
f 377 437 378
f 378 437 438
f 378 438 379
f 379 438 439
f 379 439 422
f 380 382 430
f 382 440 430
f 382 421 419
f 382 419 440
f 384 385 441
f 385 442 429
f 385 429 443
f 385 443 444
f 385 444 441
f 386 445 446
f 386 446 447
f 386 447 387
f 387 447 388
f 388 447 448
f 388 448 394
f 390 396 393
f 391 449 392
f 392 449 450
f 392 450 404
f 393 396 450
f 393 450 449
f 394 451 395
f 394 448 447
f 394 447 451
f 395 451 452
f 395 452 453
f 395 453 454
f 395 454 396
f 396 454 450
f 397 455 459
f 397 459 399
f 397 398 455
f 398 404 450
f 398 450 456
f 398 456 457
f 398 457 458
f 398 458 455
f 399 459 460
f 399 460 400
f 400 460 461
f 400 461 401
f 401 462 402
f 401 461 463
f 401 463 462
f 402 462 464
f 402 464 465
f 402 465 403
f 405 465 406
f 406 465 464
f 406 464 466
f 406 466 407
f 407 466 408
f 408 466 467
f 408 467 409
f 409 467 411
f 409 411 410
f 411 467 468
f 411 468 464
f 411 464 469
f 411 469 470
f 411 470 471
f 411 471 414
f 411 414 413
f 414 471 415
f 415 472 416
f 415 471 472
f 416 473 419
f 416 419 417
f 416 472 474
f 416 474 473
f 418 419 420
f 419 475 476
f 419 476 477
f 419 477 478
f 419 478 432
f 419 432 431
f 419 431 440
f 419 473 474
f 419 474 479
f 419 479 475
f 422 439 480
f 422 480 481
f 422 481 423
f 423 481 482
f 423 482 426
f 425 429 442
f 426 482 483
f 426 483 427
f 427 483 428
f 428 483 484
f 430 440 431
f 432 478 433
f 433 478 477
f 433 477 485
f 433 485 434
f 434 486 487
f 434 487 488
f 434 488 489
f 434 489 490
f 434 490 491
f 434 491 492
f 434 492 435
f 434 485 493
f 434 493 486
f 435 494 436
f 435 492 494
f 436 494 495
f 436 495 437
f 437 495 438
f 438 495 496
f 438 496 480
f 438 480 439
f 445 497 498
f 445 498 446
f 446 498 499
f 446 499 447
f 447 499 451
f 450 453 500
f 450 500 456
f 450 454 453
f 451 499 501
f 451 501 453
f 451 453 452
f 453 501 502
f 453 502 503
f 453 503 504
f 453 504 500
f 455 458 505
f 455 505 459
f 456 500 457
f 457 500 506
f 457 506 458
f 458 506 505
f 459 505 507
f 459 507 460
f 460 507 508
f 460 508 461
f 461 508 509
f 461 509 463
f 462 463 464
f 463 488 487
f 463 487 464
f 463 509 510
f 463 510 511
f 463 511 489
f 463 489 488
f 464 487 486
f 464 486 476
f 464 476 512
f 464 512 469
f 464 468 467
f 464 467 513
f 464 513 466
f 466 513 467
f 469 512 479
f 469 479 470
f 470 479 474
f 470 474 471
f 471 474 472
f 475 479 514
f 475 514 476
f 476 514 515
f 476 515 512
f 476 486 493
f 476 493 485
f 476 485 477
f 479 512 515
f 479 515 514
f 480 496 516
f 480 516 481
f 481 516 482
f 482 516 517
f 482 517 518
f 482 518 519
f 482 519 483
f 483 519 520
f 483 520 484
f 489 521 522
f 489 522 490
f 489 511 510
f 489 510 523
f 489 523 521
f 490 522 521
f 490 521 491
f 491 524 525
f 491 525 492
f 491 521 524
f 492 525 494
f 494 525 495
f 495 525 496
f 496 525 516
f 497 520 526
f 497 526 527
f 497 527 498
f 498 527 528
f 498 528 529
f 498 529 499
f 499 529 530
f 499 530 501
f 500 504 531
f 500 531 532
f 500 532 506
f 501 530 502
f 502 533 534
f 502 534 503
f 502 530 533
f 503 534 535
f 503 535 504
f 504 535 536
f 504 536 531
f 505 506 532
f 505 532 507
f 507 537 509
f 507 509 508
f 507 532 537
f 509 537 510
f 510 537 531
f 510 531 538
f 510 538 523
f 516 525 539
f 516 539 540
f 516 540 517
f 517 541 518
f 517 540 541
f 518 541 538
f 518 538 536
f 518 536 542
f 518 542 543
f 518 543 544
f 518 544 545
f 518 545 546
f 518 546 519
f 519 546 547
f 519 547 548
f 519 548 526
f 519 526 520
f 521 523 541
f 521 541 524
f 523 538 541
f 524 539 525
f 524 541 539
f 526 548 527
f 527 548 547
f 527 547 549
f 527 549 528
f 528 549 534
f 528 534 533
f 528 533 529
f 529 533 530
f 531 536 538
f 531 537 532
f 534 549 543
f 534 543 542
f 534 542 535
f 535 542 536
f 539 541 540
f 543 549 547
f 543 547 544
f 544 547 545
f 545 547 546

