# https://github.com/mikedh/trimesh
v -0.01458782 0.03460424 -0.02419241
v -0.01458782 0.03530138 -0.02541857
v -0.00063483 0.03840546 -0.02507403
v -0.00063483 0.03803885 -0.02419241
v -0.00063483 0.03790363 -0.02301691
v -0.00063483 0.03789162 -0.02289531
v -0.00063483 0.03770832 0.02247782
v -0.00063483 0.03770832 0.02390159
v -0.01458782 0.03471843 0.01610380
v -0.00063483 0.03927387 -0.02548444
v -0.01458782 0.03667462 -0.02588471
v -0.01351021 0.03667462 -0.02584925
v -0.00063483 0.03812299 0.02503655
v -0.01458782 0.03482360 0.02402826
v -0.01458782 0.03480257 0.02390159
v -0.01458782 0.03476350 0.02259942
v -0.01458782 0.03474848 0.02130232
v -0.01458782 0.03473946 0.02039030
v -0.01458782 0.03473645 0.02000016
v -0.00571150 0.03927387 -0.02578845
v -0.00063483 0.04057500 -0.02561617
v -0.01458782 0.06137201 -0.02557057
v -0.01091109 0.06267013 -0.02556551
v -0.00961085 0.06267013 -0.02556551
v -0.00831062 0.03927387 -0.02584925
v -0.01091109 0.03797275 -0.02586445
v -0.00701174 0.03927387 -0.02583911
v -0.00063483 0.03817107 0.02515309
v -0.01458782 0.03536448 0.02508722
v -0.00063483 0.06279333 -0.02553004
v -0.01220997 0.06267013 -0.02555031
v -0.01458782 0.06267013 -0.02538310
v -0.01351021 0.06267013 -0.02548950
v -0.00181215 0.06397125 -0.02549457
v -0.00063483 0.06397125 -0.02549964
v -0.00063483 0.03904550 0.02580670
v -0.01458782 0.03554177 0.02519362
v -0.01220997 0.06369180 -0.02518550
v -0.00441126 0.06397125 -0.02542364
v -0.00311239 0.06397125 -0.02546924
v -0.01458782 0.06346943 -0.02501829
v -0.01351021 0.06358362 -0.02512470
v -0.00181215 0.06490879 -0.02515003
v -0.00063483 0.06491480 -0.02515003
v -0.00063483 0.03963446 0.02586244
v -0.00503543 0.03862181 0.02585230
v -0.01458782 0.03667462 0.02571550
v -0.01351021 0.03667462 0.02563950
v -0.00789268 0.06464135 -0.02487642
v -0.00571150 0.06474652 -0.02500816
v -0.00441126 0.06481263 -0.02507403
v -0.00311239 0.06486973 -0.02511963
v -0.01458782 0.06362569 -0.02419241
v -0.01351021 0.06386308 -0.02419241
v -0.01220997 0.06410047 -0.02419241
v -0.00181215 0.06521829 -0.02419241
v -0.00063483 0.06522731 -0.02419241
v -0.00063483 0.03969456 0.02586750
v -0.00701174 0.03857974 0.02586750
v -0.01458782 0.03689699 0.02574083
v -0.01091109 0.06430180 -0.02419241
v -0.00961085 0.06448209 -0.02419241
v -0.00873674 0.06459027 -0.02419241
v -0.00808662 0.06465938 -0.02419241
v -0.00441126 0.06501997 -0.02419241
v -0.00311239 0.06513716 -0.02419241
v -0.01458782 0.06363771 -0.02289531
v -0.01351021 0.06388111 -0.02289531
v -0.01220997 0.06413052 -0.02289531
v -0.01091109 0.06433485 -0.02289531
v -0.00181215 0.06523332 -0.02289531
v -0.00063483 0.06523032 -0.02407080
v -0.00063483 0.04057500 0.02587764
v -0.00831062 0.03900043 0.02586244
v -0.00831062 0.03857674 0.02586244
v -0.01220997 0.03797275 0.02581177
v -0.01351021 0.03797275 0.02578644
v -0.01458782 0.03797275 0.02576110
v -0.00961085 0.06451214 -0.02289531
v -0.00879821 0.06460529 -0.02289531
v -0.00441126 0.06502598 -0.02289531
v -0.00311239 0.06514918 -0.02289531
v -0.01458782 0.06367677 0.02390159
v -0.01351021 0.06390515 0.02390159
v -0.01220997 0.06414554 0.02390159
v -0.01091109 0.06437091 0.02390159
v -0.00986489 0.06455120 0.02390159
v -0.00921477 0.06466238 0.02390159
v -0.00063483 0.06524233 -0.02289531
v -0.00311239 0.06526637 0.02390159
v -0.00181215 0.06529943 0.02390159
v -0.00063483 0.06254693 0.02560910
v -0.00311239 0.06267013 0.02560403
v -0.00571150 0.06267013 0.02559896
v -0.00831062 0.04577350 0.02579657
v -0.00927487 0.03879008 0.02585737
v -0.00927487 0.03859777 0.02585737
v -0.01220997 0.03927387 0.02580670
v -0.01351021 0.04057500 0.02576617
v -0.01458782 0.04187312 0.02573070
v -0.00831062 0.06477357 0.02390159
v -0.00701174 0.06491179 0.02390159
v -0.00571150 0.06504701 0.02390159
v -0.00441126 0.06517322 0.02390159
v -0.01458782 0.06355658 0.02465147
v -0.00915878 0.06465337 0.02462107
v -0.00063483 0.06530243 0.02390159
v -0.00701174 0.06477958 0.02483894
v -0.00571150 0.06485170 0.02492508
v -0.00441126 0.06491480 0.02497575
v -0.00311239 0.06495987 0.02500615
v -0.00181215 0.06497189 0.02501628
v -0.00063483 0.06267013 0.02560403
v -0.00181215 0.06397125 0.02554323
v -0.00961085 0.06267013 0.02557363
v -0.01091109 0.06137201 0.02558376
v -0.00961085 0.04577350 0.02578644
v -0.01091109 0.04577350 0.02576617
v -0.01220997 0.04577350 0.02574590
v -0.01351021 0.04577350 0.02572057
v -0.01458782 0.04447237 0.02571043
v -0.00831062 0.06470746 0.02472241
v -0.01458782 0.06350850 0.02483388
v -0.01351021 0.06362269 0.02494535
v -0.00063483 0.06497189 0.02501628
v -0.01220997 0.06373988 0.02501628
v -0.00701174 0.06397125 0.02536082
v -0.00571150 0.06397125 0.02544696
v -0.00441126 0.06397125 0.02550270
v -0.00311239 0.06397125 0.02553310
v -0.00063483 0.06487573 0.02506695
v -0.00063483 0.06397125 0.02554323
v -0.01091109 0.06267013 0.02556350
v -0.01351021 0.06137201 0.02555336
v -0.01458782 0.06137201 0.02553310
v -0.01458782 0.04599586 0.02569523
v -0.01458782 0.06283540 0.02523415
v -0.01351021 0.06267013 0.02544696
v -0.01220997 0.06267013 0.02552296
v -0.01458782 0.06159437 0.02551789
v -0.01458782 0.06267013 0.02532029
f 1 2 3
f 1 3 4
f 1 4 5
f 1 5 6
f 1 6 7
f 1 7 8
f 1 8 9
f 1 9 19
f 1 19 18
f 1 18 17
f 1 17 16
f 1 16 15
f 1 15 14
f 1 14 29
f 1 29 37
f 1 37 47
f 1 47 60
f 1 60 78
f 1 78 100
f 1 100 121
f 1 121 136
f 1 136 135
f 1 135 140
f 1 140 141
f 1 141 137
f 1 137 123
f 1 123 105
f 1 105 83
f 1 83 67
f 1 67 53
f 1 53 41
f 1 41 32
f 1 32 22
f 1 22 11
f 1 11 2
f 2 10 3
f 2 11 12
f 2 12 10
f 3 10 21
f 3 21 30
f 3 30 35
f 3 35 44
f 3 44 57
f 3 57 72
f 3 72 89
f 3 89 107
f 3 107 125
f 3 125 131
f 3 131 132
f 3 132 113
f 3 113 92
f 3 92 73
f 3 73 58
f 3 58 45
f 3 45 36
f 3 36 28
f 3 28 13
f 3 13 8
f 3 8 7
f 3 7 6
f 3 6 5
f 3 5 4
f 8 13 14
f 8 14 15
f 8 15 16
f 8 16 17
f 8 17 18
f 8 18 19
f 8 19 9
f 10 12 20
f 10 20 21
f 11 22 23
f 11 23 24
f 11 24 25
f 11 25 26
f 11 26 27
f 11 27 12
f 12 27 20
f 13 28 14
f 14 28 29
f 20 27 21
f 21 27 30
f 22 31 23
f 22 32 33
f 22 33 31
f 23 31 34
f 23 34 35
f 23 35 24
f 24 35 30
f 24 30 25
f 25 27 26
f 25 30 27
f 28 36 29
f 29 36 37
f 31 33 38
f 31 38 39
f 31 39 40
f 31 40 34
f 32 41 42
f 32 42 33
f 33 42 38
f 34 40 43
f 34 43 35
f 35 43 44
f 36 45 46
f 36 46 47
f 36 47 48
f 36 48 37
f 37 48 47
f 38 42 49
f 38 49 50
f 38 50 51
f 38 51 52
f 38 52 39
f 39 52 40
f 40 52 43
f 41 53 54
f 41 54 55
f 41 55 49
f 41 49 42
f 43 52 56
f 43 56 57
f 43 57 44
f 45 58 46
f 46 58 59
f 46 59 47
f 47 59 60
f 49 55 61
f 49 61 62
f 49 62 63
f 49 63 64
f 49 64 65
f 49 65 66
f 49 66 50
f 50 66 51
f 51 66 56
f 51 56 52
f 53 67 68
f 53 68 54
f 54 68 69
f 54 69 55
f 55 69 70
f 55 70 61
f 56 66 71
f 56 71 72
f 56 72 57
f 58 73 59
f 59 73 74
f 59 74 75
f 59 75 60
f 60 75 76
f 60 76 77
f 60 77 78
f 61 70 62
f 62 70 79
f 62 79 63
f 63 79 80
f 63 80 64
f 64 80 65
f 65 80 81
f 65 81 82
f 65 82 66
f 66 82 71
f 67 83 68
f 68 83 84
f 68 84 69
f 69 84 85
f 69 85 86
f 69 86 87
f 69 87 88
f 69 88 70
f 70 88 79
f 71 89 72
f 71 82 90
f 71 90 91
f 71 91 89
f 73 92 93
f 73 93 94
f 73 94 95
f 73 95 74
f 74 96 97
f 74 97 75
f 74 95 96
f 75 97 76
f 76 97 96
f 76 96 98
f 76 98 77
f 77 98 99
f 77 99 78
f 78 99 100
f 79 88 101
f 79 101 80
f 80 101 102
f 80 102 103
f 80 103 104
f 80 104 81
f 81 104 82
f 82 104 90
f 83 105 84
f 84 105 106
f 84 106 85
f 85 106 86
f 86 106 87
f 87 106 88
f 88 106 101
f 89 91 107
f 90 104 108
f 90 108 109
f 90 109 110
f 90 110 111
f 90 111 91
f 91 111 112
f 91 112 107
f 92 113 93
f 93 113 132
f 93 132 114
f 93 114 94
f 94 114 115
f 94 115 116
f 94 116 95
f 95 117 96
f 95 116 117
f 96 117 118
f 96 118 119
f 96 119 98
f 98 119 120
f 98 120 121
f 98 121 99
f 99 121 100
f 101 106 102
f 102 106 103
f 103 106 104
f 104 106 122
f 104 122 108
f 105 123 106
f 106 123 124
f 106 124 122
f 107 112 125
f 108 124 126
f 108 126 109
f 108 122 124
f 109 126 127
f 109 127 110
f 110 127 128
f 110 128 129
f 110 129 111
f 111 129 130
f 111 130 112
f 112 130 114
f 112 114 131
f 112 131 125
f 114 130 133
f 114 133 115
f 114 132 131
f 115 133 116
f 116 133 134
f 116 134 117
f 117 134 118
f 118 134 119
f 119 134 135
f 119 135 120
f 120 136 121
f 120 135 136
f 123 137 124
f 124 137 138
f 124 138 126
f 126 138 127
f 127 138 128
f 128 138 139
f 128 139 129
f 129 139 133
f 129 133 130
f 133 139 135
f 133 135 134
f 135 139 140
f 137 141 138
f 138 141 140
f 138 140 139

