# https://github.com/mikedh/trimesh
v -0.00063483 -0.06603323 0.02260075
v -0.00063483 -0.06588400 0.02390102
v -0.00181145 -0.06599281 0.02260075
v -0.00181145 -0.06573789 -0.02419400
v -0.00063483 -0.06571612 -0.02419400
v -0.00063483 -0.06554824 0.02468118
v -0.00181145 -0.06552959 0.02467118
v -0.00181145 -0.06584048 0.02390102
v -0.00311262 -0.06574099 0.02390102
v -0.00311262 -0.06587468 0.02260075
v -0.00311262 -0.06585602 0.01739967
v -0.00311262 -0.06584981 0.01609939
v -0.00311262 -0.06560731 -0.02419400
v -0.00407092 -0.06542077 -0.02493416
v -0.00311262 -0.06550161 -0.02505418
v -0.00181145 -0.06557000 -0.02514420
v -0.00063483 -0.06555757 -0.02512420
v -0.00063483 -0.06480211 0.02478620
v -0.01221055 -0.06417722 0.02462117
v -0.01351025 -0.06413369 0.02459617
v -0.00311262 -0.06548606 0.02464117
v -0.00181145 -0.06472750 0.02478120
v -0.00441233 -0.06543633 0.02460117
v -0.00524021 -0.06539902 0.02457116
v -0.00441233 -0.06561353 0.02390102
v -0.00669377 -0.06541767 0.02352094
v -0.00571203 -0.06556690 0.02260075
v -0.00680806 -0.06543321 0.02260075
v -0.00480942 -0.06533373 -0.02419400
v -0.00745718 -0.06534927 0.02260075
v -0.01221055 -0.06472750 0.02260075
v -0.01351025 -0.06454407 0.02260075
v -0.01191163 -0.06412748 -0.02497417
v -0.01091085 -0.06420209 -0.02511920
v -0.01265307 -0.06404664 -0.02419400
v -0.00961114 -0.06430779 -0.02525423
v -0.00830997 -0.06441971 -0.02532924
v -0.00701174 -0.06453474 -0.02536425
v -0.00311262 -0.06472750 -0.02554429
v -0.00181145 -0.06472750 -0.02561430
v -0.00063483 -0.06547673 -0.02516921
v -0.00063483 -0.06472750 0.02479621
v -0.01221055 -0.06342487 0.02472119
v -0.01351025 -0.06342487 0.02469118
v -0.01477919 -0.06347461 0.02463617
v -0.01432495 -0.06409639 0.02456616
v -0.01351025 -0.06437619 0.02390102
v -0.00568859 -0.06547052 0.02393103
v -0.01477919 -0.06418033 0.02390102
v -0.01556165 -0.06410261 0.02346593
v -0.01480996 -0.06428914 0.02260075
v -0.01560268 -0.06314817 -0.02476412
v -0.01560268 -0.06301138 -0.02521422
v -0.01480996 -0.06313885 -0.02534925
v -0.01351025 -0.06386011 -0.02419400
v -0.01351025 -0.06332849 -0.02541926
v -0.01091085 -0.06342487 -0.02568932
v -0.00961114 -0.06342487 -0.02580934
v -0.00063483 -0.06472750 -0.02558429
v -0.00830997 -0.06342487 -0.02587435
v -0.00701174 -0.06342487 -0.02589436
v -0.00571203 -0.06342487 -0.02588436
v -0.00063483 -0.06342487 -0.02576433
v -0.00063483 -0.04003041 0.02498124
v -0.00571203 -0.03873089 0.02507627
v -0.01351025 -0.06212535 0.02475620
v -0.01480996 -0.06212535 0.02474120
v -0.01560268 -0.06212535 0.02473119
v -0.01560268 -0.06323522 0.02463117
v -0.01519240 -0.06394094 0.02433111
v -0.01560268 -0.06409639 0.02260075
v -0.01557337 -0.06410571 0.02260075
v -0.01560268 -0.06385078 0.02412106
v -0.01560268 -0.06407152 0.02350594
v -0.01480996 -0.06349015 -0.02419400
v -0.01560268 -0.06323833 -0.02419400
v -0.01560268 -0.06252328 -0.02556929
v -0.01560268 -0.06212535 -0.02579934
v -0.01480996 -0.06212535 -0.02593437
v -0.01351025 -0.06212535 -0.02599938
v -0.01221055 -0.06212535 -0.02599938
v -0.01091085 -0.06212535 -0.02597938
v -0.00830997 -0.06212535 -0.02592937
v -0.00830997 -0.06082583 -0.02592437
v -0.00063483 -0.05420387 -0.02574433
v -0.00063483 -0.05550340 -0.02574933
v -0.00063483 -0.06070147 -0.02576433
v -0.00063483 -0.03873089 0.02491623
v -0.01480996 -0.03612874 0.02503626
v -0.01560268 -0.06082583 0.02475120
v -0.01560268 -0.06161860 0.02474120
v -0.01560268 -0.06133258 -0.02598438
v -0.01560268 -0.06082583 -0.02601438
v -0.01351025 -0.06082583 -0.02600438
v -0.01560268 -0.05432512 -0.02599938
v -0.01221055 -0.06082583 -0.02599438
v -0.01091085 -0.06082583 -0.02597438
v -0.00063483 -0.05290125 -0.02573433
v -0.01091085 -0.05822679 -0.02595937
v -0.01221055 -0.05562775 -0.02596437
v -0.01560268 -0.03487897 0.02484122
v -0.00063483 -0.03800963 0.02464617
v -0.01560268 -0.03612874 0.02500625
v -0.01560268 -0.05613450 -0.02600438
v -0.01560268 -0.05302560 -0.02599438
v -0.01351025 -0.05562775 -0.02598438
v -0.00311262 -0.05172608 -0.02576933
v -0.00063483 -0.05172608 -0.02572433
v -0.01221055 -0.05432512 -0.02595437
v -0.01221055 -0.05302560 -0.02594437
v -0.01560268 -0.03429138 0.02390102
v -0.00063483 -0.03792568 0.02390102
v -0.01560268 -0.05223283 -0.02598938
v -0.01480996 -0.05302560 -0.02598438
v -0.01351025 -0.05432512 -0.02597438
v -0.01560268 -0.04703786 -0.02594437
v -0.00181145 -0.05042656 -0.02572932
v -0.00063483 -0.05042656 -0.02570432
v -0.01560268 -0.04573524 -0.02592937
v -0.01560268 -0.04443572 -0.02591436
v -0.01560268 -0.04183668 -0.02587936
v -0.01480996 -0.05042656 -0.02596437
v -0.01560268 -0.03427273 0.02260075
v -0.00063483 -0.03818994 -0.02159346
v -0.01560268 -0.03444683 -0.02289373
v -0.01560268 -0.05093332 -0.02597938
v -0.01560268 -0.04963690 -0.02596938
v -0.01560268 -0.04003041 -0.02584935
v -0.00063483 -0.04913015 -0.02567931
v -0.01560268 -0.03923764 -0.02583435
v -0.01560268 -0.03793501 -0.02580934
v -0.00063483 -0.03822414 -0.02289373
v -0.01560268 -0.03466445 -0.02430403
v -0.00063483 -0.04640676 -0.02562430
v -0.01560268 -0.03742826 -0.02578433
v -0.00063483 -0.04132993 -0.02548928
v -0.00063483 -0.04262945 -0.02553428
v -0.00063483 -0.04392897 -0.02556929
v -0.00063483 -0.04522849 -0.02559930
v -0.00063483 -0.03862208 -0.02419400
v -0.01560268 -0.03484477 -0.02465410
v -0.01560268 -0.03663549 -0.02567931
v -0.00063483 -0.04120557 -0.02547427
v -0.00063483 -0.03912572 -0.02491415
v -0.01560268 -0.03515877 -0.02508419
v -0.01560268 -0.03608833 -0.02550928
v -0.00063483 -0.04003041 -0.02530423
v -0.00063483 -0.03918168 -0.02498917
v -0.01560268 -0.03538261 -0.02520422
v -0.00063483 -0.03994647 -0.02527423
f 1 2 3
f 1 3 4
f 1 4 5
f 1 5 17
f 1 17 41
f 1 41 59
f 1 59 63
f 1 63 87
f 1 87 86
f 1 86 85
f 1 85 98
f 1 98 108
f 1 108 118
f 1 118 129
f 1 129 134
f 1 134 139
f 1 139 138
f 1 138 137
f 1 137 136
f 1 136 143
f 1 143 147
f 1 147 150
f 1 150 148
f 1 148 144
f 1 144 140
f 1 140 132
f 1 132 124
f 1 124 112
f 1 112 102
f 1 102 88
f 1 88 64
f 1 64 42
f 1 42 18
f 1 18 6
f 1 6 2
f 2 6 7
f 2 7 8
f 2 8 3
f 3 8 9
f 3 9 10
f 3 10 11
f 3 11 12
f 3 12 4
f 4 13 14
f 4 14 15
f 4 15 16
f 4 16 17
f 4 17 5
f 4 12 13
f 6 18 7
f 7 19 20
f 7 20 21
f 7 21 8
f 7 18 22
f 7 22 19
f 8 21 23
f 8 23 24
f 8 24 9
f 9 24 25
f 9 25 10
f 10 25 26
f 10 26 27
f 10 27 11
f 11 27 12
f 12 27 28
f 12 28 13
f 13 29 14
f 13 28 30
f 13 30 31
f 13 31 32
f 13 32 29
f 14 33 34
f 14 34 15
f 14 29 35
f 14 35 33
f 15 34 36
f 15 36 37
f 15 37 16
f 16 37 38
f 16 38 39
f 16 39 40
f 16 40 17
f 17 40 41
f 18 42 22
f 19 43 44
f 19 44 20
f 19 22 43
f 20 23 21
f 20 44 45
f 20 45 46
f 20 46 24
f 20 24 23
f 22 42 43
f 24 46 47
f 24 47 26
f 24 26 48
f 24 48 25
f 25 48 26
f 26 47 32
f 26 32 31
f 26 31 30
f 26 30 28
f 26 28 27
f 29 32 35
f 32 47 49
f 32 49 50
f 32 50 51
f 32 51 35
f 33 52 53
f 33 53 54
f 33 54 34
f 33 35 55
f 33 55 52
f 34 54 56
f 34 56 36
f 35 51 55
f 36 56 57
f 36 57 37
f 37 57 58
f 37 58 38
f 38 58 39
f 39 58 40
f 40 59 41
f 40 58 60
f 40 60 61
f 40 61 62
f 40 62 63
f 40 63 59
f 42 64 65
f 42 65 66
f 42 66 43
f 43 66 67
f 43 67 68
f 43 68 44
f 44 69 45
f 44 68 69
f 45 69 46
f 46 70 49
f 46 49 47
f 46 69 70
f 49 70 50
f 50 71 72
f 50 72 51
f 50 70 73
f 50 73 74
f 50 74 71
f 51 72 55
f 52 55 75
f 52 75 76
f 52 76 71
f 52 71 74
f 52 74 73
f 52 73 69
f 52 69 68
f 52 68 91
f 52 91 90
f 52 90 103
f 52 103 101
f 52 101 111
f 52 111 123
f 52 123 125
f 52 125 133
f 52 133 141
f 52 141 145
f 52 145 149
f 52 149 146
f 52 146 142
f 52 142 135
f 52 135 131
f 52 131 130
f 52 130 128
f 52 128 121
f 52 121 120
f 52 120 119
f 52 119 116
f 52 116 127
f 52 127 126
f 52 126 113
f 52 113 105
f 52 105 95
f 52 95 104
f 52 104 93
f 52 93 92
f 52 92 78
f 52 78 77
f 52 77 53
f 53 77 54
f 54 77 78
f 54 78 79
f 54 79 56
f 55 72 75
f 56 79 57
f 57 79 58
f 58 79 80
f 58 80 60
f 60 80 61
f 61 80 81
f 61 81 62
f 62 81 82
f 62 82 83
f 62 83 84
f 62 84 85
f 62 85 86
f 62 86 87
f 62 87 63
f 64 88 65
f 65 88 89
f 65 89 66
f 66 90 91
f 66 91 67
f 66 89 90
f 67 91 68
f 69 73 70
f 71 76 72
f 72 76 75
f 78 92 79
f 79 92 80
f 80 93 81
f 80 92 93
f 81 93 94
f 81 94 95
f 81 95 105
f 81 105 96
f 81 96 97
f 81 97 82
f 82 97 84
f 82 84 83
f 84 97 85
f 85 97 99
f 85 99 100
f 85 100 109
f 85 109 98
f 88 101 89
f 88 102 101
f 89 101 103
f 89 103 90
f 93 104 94
f 94 104 95
f 96 105 106
f 96 106 100
f 96 100 99
f 96 99 97
f 98 107 108
f 98 109 110
f 98 110 107
f 100 106 115
f 100 115 109
f 101 102 111
f 102 112 111
f 105 113 114
f 105 114 106
f 106 114 115
f 107 110 116
f 107 116 108
f 108 117 118
f 108 116 119
f 108 119 120
f 108 120 121
f 108 121 117
f 109 115 114
f 109 114 122
f 109 122 110
f 110 122 116
f 111 112 123
f 112 124 125
f 112 125 123
f 113 126 122
f 113 122 114
f 116 122 127
f 117 121 128
f 117 128 118
f 118 128 130
f 118 130 131
f 118 131 129
f 122 126 127
f 124 132 125
f 125 132 133
f 129 131 134
f 131 135 136
f 131 136 137
f 131 137 138
f 131 138 139
f 131 139 134
f 132 140 133
f 133 140 141
f 135 142 143
f 135 143 136
f 140 144 141
f 141 144 145
f 142 146 147
f 142 147 143
f 144 148 145
f 145 148 149
f 146 149 148
f 146 148 150
f 146 150 147

