# https://github.com/mikedh/trimesh
v 0.02520777 0.02683772 0.02390272
v 0.02520777 0.02758698 0.02528508
v -0.00063483 0.03817081 0.02515391
v -0.00063483 0.03812562 0.02503282
v -0.00063483 0.03771146 0.02390272
v -0.00063483 0.03770769 0.02377659
v -0.00063483 0.03770769 0.02248000
v 0.02520777 0.02686408 0.00788452
v 0.02520777 0.02799739 0.02560796
v -0.00063483 0.03904432 0.02580472
v -0.00063483 0.03789219 -0.02289564
v 0.02520777 0.02690173 -0.00859278
v 0.02520777 0.02861110 0.02585013
v 0.02502310 0.02843038 0.02581481
v 0.02520777 0.02899515 0.02589049
v -0.00063483 0.03963545 0.02586526
v -0.00063483 0.03790348 -0.02301673
v 0.02520777 0.02704104 -0.02289564
v 0.02520777 0.02698456 -0.02159401
v 0.02520777 0.03017364 0.02588545
v 0.01248631 0.03797502 0.02591572
v 0.00729047 0.03927399 0.02592076
v -0.00063483 0.03969569 0.02587031
v -0.00063483 0.03803903 -0.02419223
v 0.02520777 0.02708246 -0.02303186
v 0.02520777 0.05227127 0.02564328
v 0.02158788 0.04447366 0.02576436
v 0.02520777 0.05357024 0.02562815
v 0.02520777 0.05747093 0.02557769
v 0.01119114 0.06267060 0.02559283
v -0.00063483 0.06267060 0.02560796
v -0.00063483 0.04057297 0.02587536
v -0.00063483 0.04049013 0.02587536
v 0.00989092 0.06267060 0.02559787
v 0.00599024 0.06267060 0.02560292
v 0.00078934 0.06267060 0.02560796
v -0.00063483 0.03807668 -0.02428304
v -0.00063483 0.03840801 -0.02507513
v 0.02520777 0.02766229 -0.02417710
v 0.02520777 0.05876991 0.02548688
v 0.02418833 0.05876991 0.02555247
v 0.02288810 0.05876991 0.02557265
v 0.02028765 0.06006888 0.02556760
v 0.01638698 0.06137162 0.02557265
v 0.01248631 0.06267060 0.02557265
v 0.00208957 0.06396957 0.02552220
v 0.00078934 0.06396957 0.02553733
v -0.00063483 0.06384532 0.02555247
v 0.02520777 0.02829107 -0.02478756
v 0.02520777 0.02800868 -0.02454034
v 0.02520777 0.02777148 -0.02429818
v -0.00063483 0.03927399 -0.02548378
v 0.02520777 0.05983544 0.02496724
v 0.02288810 0.06006888 0.02529517
v 0.02158788 0.06006888 0.02550706
v 0.01768720 0.06137162 0.02551715
v 0.01378653 0.06267060 0.02550202
v 0.00599024 0.06396957 0.02538598
v 0.00469002 0.06396957 0.02545157
v 0.00338979 0.06396957 0.02549193
v 0.00078934 0.06496357 0.02501264
v -0.00051088 0.06497110 0.02501769
v -0.00063483 0.06487697 0.02506814
v -0.00051088 0.06396957 0.02554238
v -0.00063483 0.06396957 0.02554238
v 0.02520777 0.02893491 -0.02501458
v -0.00063483 0.04057297 -0.02562000
v 0.02520777 0.03045603 -0.02523657
v 0.02520777 0.03015105 -0.02519621
v 0.02520777 0.02905916 -0.02504486
v 0.02361158 0.06074661 0.02460399
v 0.02288810 0.06087839 0.02478561
v 0.02158788 0.06111559 0.02499246
v 0.02520777 0.06019690 0.02390272
v 0.01898743 0.06137162 0.02533553
v 0.01508676 0.06267060 0.02530021
v 0.01378653 0.06365706 0.02498237
v 0.01248631 0.06380014 0.02505300
v 0.00469002 0.06483932 0.02492688
v 0.00338979 0.06488827 0.02496724
v 0.00208957 0.06493345 0.02499751
v 0.00078934 0.06528738 0.02390272
v -0.00051088 0.06530243 0.02390272
v -0.00063483 0.06497110 0.02501769
v -0.00063483 0.06267060 -0.02553423
v -0.00051088 0.06267060 -0.02553423
v 0.00729047 0.06267060 -0.02549387
v 0.00989092 0.06267060 -0.02547369
v 0.02418833 0.05227127 -0.02535261
v 0.02520777 0.04735023 -0.02534252
v 0.02520777 0.04577263 -0.02534252
v 0.02520777 0.04085535 -0.02533243
v 0.02520777 0.03955638 -0.02532738
v 0.02520777 0.03305397 -0.02528198
v 0.02520777 0.03175500 -0.02526684
v 0.02520777 0.03147261 -0.02526180
v 0.01978679 0.06206817 0.02464940
v 0.02288810 0.06103652 0.02390272
v 0.02158788 0.06150340 0.02390272
v 0.01898743 0.06219995 0.02482597
v 0.01768720 0.06240703 0.02500255
v 0.02520777 0.06006888 -0.02289564
v 0.02418833 0.06044163 -0.02289564
v 0.02348256 0.06070143 -0.02159401
v 0.02283751 0.06093863 -0.02029237
v 0.01508676 0.06346881 0.02478561
v 0.01248631 0.06427078 0.02390272
v 0.00934199 0.06462847 0.02457372
v 0.00859069 0.06466612 0.02465444
v 0.00729047 0.06472636 0.02477048
v 0.00599024 0.06478284 0.02486129
v 0.00208957 0.06522713 0.02390272
v 0.00078934 0.06520078 -0.01639251
v -0.00051088 0.06524219 -0.02289564
v -0.00063483 0.06530243 0.02390272
v -0.00063483 0.06396957 -0.02549891
v -0.00051088 0.06396957 -0.02549891
v 0.02520777 0.05486922 -0.02533243
v 0.02520777 0.05385263 -0.02533747
v 0.02288810 0.05357024 -0.02536270
v 0.01119114 0.06267060 -0.02545351
v 0.02520777 0.05645058 -0.02531729
v 0.01583552 0.06335208 0.02461408
v 0.02050773 0.06187615 0.02390272
v 0.01985762 0.06209453 0.02390272
v 0.02158788 0.06137915 -0.02029237
v 0.02033572 0.06181214 -0.02159401
v 0.01968561 0.06203805 -0.02159401
v 0.02520777 0.05999358 -0.02391475
v 0.02272874 0.06088968 -0.02419223
v 0.01966537 0.06203052 -0.02364736
v 0.02282486 0.06093110 -0.02289564
v 0.02283245 0.06093487 -0.02159401
v 0.02158788 0.06137539 -0.02159401
v 0.01378653 0.06399216 0.02390272
v 0.01119114 0.06443645 0.02390272
v 0.01248631 0.06422937 -0.02289564
v 0.01119114 0.06440256 -0.02289564
v 0.00729047 0.06481673 0.02390272
v 0.00599024 0.06493345 0.02390272
v 0.00469002 0.06504264 0.02390272
v 0.00338979 0.06513677 0.02390272
v 0.00997692 0.06456446 0.02390272
v 0.00208957 0.06511794 -0.01509592
v 0.00078934 0.06518571 -0.02289564
v 0.00078934 0.06517442 -0.02419223
v -0.00051088 0.06522713 -0.02419223
v -0.00063483 0.06524219 -0.02289564
v -0.00063483 0.06491462 -0.02515080
v 0.00078934 0.06396957 -0.02547369
v -0.00051088 0.06491462 -0.02515080
v 0.01248631 0.06267060 -0.02541819
v 0.02418833 0.05876991 -0.02528702
v 0.02520777 0.05747093 -0.02530216
v 0.01898743 0.06237315 0.02390272
v 0.01587094 0.06336338 0.02390272
v 0.01508676 0.06360435 0.02390272
v 0.01898743 0.06227149 -0.02289564
v 0.01768720 0.06270072 -0.02289564
v 0.01575204 0.06332573 -0.02289564
v 0.02033066 0.06180838 -0.02289564
v 0.01968055 0.06203429 -0.02289564
v 0.02520777 0.05996346 -0.02419223
v 0.01953889 0.06195522 -0.02451007
v 0.01905826 0.06218866 -0.02412665
v 0.02250107 0.06080685 -0.02492882
v 0.01567110 0.06328432 -0.02446971
v 0.01574699 0.06332197 -0.02360700
v 0.02158788 0.06136786 -0.02289564
v 0.01378653 0.06392062 -0.02289564
v 0.01378653 0.06385285 -0.02419223
v 0.01248631 0.06415030 -0.02419223
v 0.01119114 0.06434232 -0.02419223
v 0.00989092 0.06447033 -0.02419223
v 0.00815813 0.06463600 -0.02384917
v 0.00989092 0.06451551 -0.02289564
v 0.00890436 0.06459459 -0.02289564
v 0.00825425 0.06464353 -0.02289564
v 0.00729047 0.06471507 -0.02289564
v 0.00338979 0.06500122 -0.02289564
v 0.00208957 0.06509535 -0.02289564
v 0.00208957 0.06508405 -0.02419223
v 0.00699703 0.06465106 -0.02488846
v 0.00599024 0.06469248 -0.02493386
v 0.00338979 0.06479414 -0.02504990
v 0.00208957 0.06484309 -0.02509531
v 0.00078934 0.06488827 -0.02513062
v -0.00063483 0.06522713 -0.02419223
v 0.00208957 0.06396957 -0.02543333
v 0.01378653 0.06267060 -0.02534252
v 0.01768720 0.06137162 -0.02530720
v 0.01119114 0.06379637 -0.02515080
v 0.01248631 0.06369471 -0.02512558
v 0.02520777 0.05876991 -0.02522144
v 0.02520777 0.05774955 -0.02529207
v 0.01508676 0.06352905 -0.02289564
v 0.02520777 0.05975261 -0.02481278
v 0.01867376 0.06213218 -0.02495404
v 0.02520777 0.05964342 -0.02499945
v 0.02158788 0.06093863 -0.02501458
v 0.01768720 0.06227526 -0.02504990
v 0.01517782 0.06346504 -0.02410142
v 0.01480344 0.06342363 -0.02494900
v 0.01378653 0.06355164 -0.02505495
v 0.00786216 0.06460588 -0.02471692
v 0.00859069 0.06457576 -0.02424773
v 0.00737394 0.06467742 -0.02424773
v 0.00599024 0.06478661 -0.02419223
v 0.00338979 0.06498616 -0.02419223
v 0.00469002 0.06474142 -0.02499441
v 0.02520777 0.05899205 -0.02517098
f 1 2 3
f 1 3 4
f 1 4 5
f 1 5 6
f 1 6 7
f 1 7 8
f 1 8 12
f 1 12 19
f 1 19 18
f 1 18 25
f 1 25 39
f 1 39 51
f 1 51 50
f 1 50 49
f 1 49 66
f 1 66 70
f 1 70 69
f 1 69 68
f 1 68 96
f 1 96 95
f 1 95 94
f 1 94 93
f 1 93 92
f 1 92 91
f 1 91 90
f 1 90 119
f 1 119 118
f 1 118 122
f 1 122 154
f 1 154 195
f 1 195 194
f 1 194 211
f 1 211 199
f 1 199 197
f 1 197 163
f 1 163 129
f 1 129 102
f 1 102 74
f 1 74 53
f 1 53 40
f 1 40 29
f 1 29 28
f 1 28 26
f 1 26 20
f 1 20 15
f 1 15 13
f 1 13 9
f 1 9 2
f 2 9 3
f 3 9 10
f 3 10 16
f 3 16 23
f 3 23 33
f 3 33 32
f 3 32 31
f 3 31 48
f 3 48 65
f 3 65 63
f 3 63 84
f 3 84 115
f 3 115 148
f 3 148 188
f 3 188 149
f 3 149 116
f 3 116 85
f 3 85 67
f 3 67 52
f 3 52 38
f 3 38 37
f 3 37 24
f 3 24 17
f 3 17 11
f 3 11 7
f 3 7 6
f 3 6 5
f 3 5 4
f 7 11 12
f 7 12 8
f 9 13 14
f 9 14 10
f 10 14 13
f 10 13 15
f 10 15 16
f 11 17 18
f 11 18 19
f 11 19 12
f 15 20 21
f 15 21 22
f 15 22 23
f 15 23 16
f 17 24 18
f 18 24 25
f 20 26 27
f 20 27 21
f 21 27 28
f 21 28 29
f 21 29 30
f 21 30 22
f 22 31 32
f 22 32 33
f 22 33 23
f 22 30 34
f 22 34 35
f 22 35 36
f 22 36 31
f 24 37 25
f 25 37 38
f 25 38 39
f 26 28 27
f 29 40 41
f 29 41 42
f 29 42 30
f 30 42 43
f 30 43 44
f 30 44 45
f 30 45 46
f 30 46 47
f 30 47 48
f 30 48 34
f 31 36 48
f 34 48 35
f 35 48 36
f 38 49 50
f 38 50 51
f 38 51 39
f 38 52 49
f 40 53 54
f 40 54 55
f 40 55 41
f 41 55 43
f 41 43 42
f 43 55 56
f 43 56 44
f 44 56 45
f 45 56 57
f 45 57 58
f 45 58 59
f 45 59 60
f 45 60 46
f 46 60 61
f 46 61 47
f 47 61 62
f 47 62 63
f 47 63 64
f 47 64 48
f 48 64 65
f 49 52 66
f 52 67 68
f 52 68 69
f 52 69 70
f 52 70 66
f 53 71 72
f 53 72 73
f 53 73 54
f 53 74 71
f 54 75 55
f 54 73 75
f 55 75 56
f 56 75 57
f 57 75 76
f 57 76 77
f 57 77 78
f 57 78 58
f 58 78 79
f 58 79 80
f 58 80 59
f 59 80 81
f 59 81 60
f 60 81 61
f 61 81 82
f 61 82 83
f 61 83 62
f 62 84 63
f 62 83 115
f 62 115 84
f 63 65 64
f 67 85 86
f 67 86 87
f 67 87 88
f 67 88 89
f 67 89 90
f 67 90 91
f 67 91 92
f 67 92 93
f 67 93 94
f 67 94 95
f 67 95 96
f 67 96 68
f 71 97 72
f 71 74 98
f 71 98 99
f 71 99 97
f 72 97 100
f 72 100 73
f 73 100 101
f 73 101 75
f 74 102 103
f 74 103 104
f 74 104 105
f 74 105 98
f 75 101 76
f 76 101 77
f 77 100 106
f 77 106 107
f 77 107 108
f 77 108 78
f 77 101 100
f 78 108 109
f 78 109 110
f 78 110 111
f 78 111 79
f 79 111 112
f 79 112 82
f 79 82 80
f 80 82 81
f 82 112 113
f 82 113 114
f 82 114 83
f 83 114 148
f 83 148 115
f 85 116 117
f 85 117 86
f 86 117 87
f 87 117 88
f 88 118 119
f 88 119 120
f 88 120 89
f 88 117 121
f 88 121 122
f 88 122 118
f 89 120 119
f 89 119 90
f 97 123 100
f 97 99 124
f 97 124 125
f 97 125 123
f 98 105 99
f 99 105 126
f 99 126 127
f 99 127 128
f 99 128 124
f 100 123 106
f 102 129 130
f 102 130 103
f 103 130 131
f 103 131 132
f 103 132 133
f 103 133 104
f 104 133 105
f 105 133 134
f 105 134 126
f 106 123 135
f 106 135 107
f 107 136 108
f 107 135 137
f 107 137 138
f 107 138 136
f 108 139 140
f 108 140 141
f 108 141 142
f 108 142 112
f 108 112 109
f 108 136 143
f 108 143 138
f 108 138 139
f 109 112 110
f 110 112 111
f 112 142 144
f 112 144 145
f 112 145 113
f 113 145 114
f 114 145 146
f 114 146 147
f 114 147 188
f 114 188 148
f 116 149 151
f 116 151 117
f 117 150 121
f 117 151 150
f 121 150 152
f 121 152 153
f 121 153 154
f 121 154 122
f 123 125 155
f 123 155 156
f 123 156 157
f 123 157 135
f 124 128 158
f 124 158 125
f 125 158 159
f 125 159 160
f 125 160 155
f 126 134 127
f 127 134 161
f 127 161 162
f 127 162 128
f 128 162 158
f 129 163 130
f 130 164 165
f 130 165 131
f 130 163 166
f 130 166 164
f 131 165 167
f 131 167 168
f 131 168 159
f 131 159 158
f 131 158 162
f 131 162 161
f 131 161 169
f 131 169 132
f 132 169 134
f 132 134 133
f 134 169 161
f 135 157 170
f 135 170 137
f 136 138 143
f 137 170 171
f 137 171 172
f 137 172 173
f 137 173 138
f 138 173 174
f 138 174 175
f 138 175 176
f 138 176 140
f 138 140 139
f 140 176 141
f 141 176 177
f 141 177 178
f 141 178 179
f 141 179 180
f 141 180 181
f 141 181 144
f 141 144 142
f 144 181 145
f 145 181 182
f 145 182 146
f 146 182 183
f 146 183 184
f 146 184 185
f 146 185 186
f 146 186 187
f 146 187 147
f 147 187 151
f 147 151 149
f 147 149 188
f 150 189 152
f 150 151 187
f 150 187 189
f 152 190 191
f 152 191 153
f 152 189 192
f 152 192 193
f 152 193 190
f 153 191 194
f 153 194 195
f 153 195 154
f 155 160 156
f 156 160 157
f 157 160 196
f 157 196 170
f 159 168 160
f 160 168 196
f 163 197 166
f 164 167 165
f 164 166 198
f 164 198 167
f 166 199 200
f 166 200 201
f 166 201 198
f 166 197 199
f 167 171 202
f 167 202 168
f 167 198 203
f 167 203 171
f 168 202 170
f 168 170 196
f 170 202 171
f 171 203 172
f 172 203 204
f 172 204 205
f 172 205 173
f 173 205 174
f 174 205 206
f 174 206 175
f 175 206 207
f 175 207 208
f 175 208 209
f 175 209 182
f 175 182 178
f 175 178 177
f 175 177 176
f 178 182 179
f 179 182 180
f 180 182 181
f 182 209 205
f 182 205 183
f 183 204 193
f 183 193 184
f 183 205 204
f 184 193 210
f 184 210 185
f 185 210 192
f 185 192 186
f 186 192 187
f 187 192 189
f 190 193 204
f 190 204 201
f 190 201 191
f 191 201 199
f 191 199 211
f 191 211 194
f 192 210 193
f 198 201 203
f 199 201 200
f 201 204 203
f 205 209 207
f 205 207 206
f 207 209 208

