# https://github.com/mikedh/trimesh
v -0.01560414 -0.03612836 0.02500426
v -0.01560414 -0.03487749 0.02484379
v -0.01741175 -0.03482954 0.02502432
v -0.01560414 -0.06082605 0.02475352
v -0.01644678 -0.03401827 0.02470839
v -0.02957118 -0.02354773 0.02470839
v -0.03009669 -0.02327597 0.02480367
v -0.03039570 -0.02327597 0.02486886
v -0.01560414 -0.03429402 0.02390100
v -0.03171403 -0.02327597 0.02498420
v -0.03041382 -0.02443093 0.02499423
v -0.02001216 -0.03353071 0.02504438
v -0.02521299 -0.05822440 0.02472343
v -0.01560414 -0.06212488 0.02473346
v -0.02955759 -0.02327597 0.02390100
v -0.01560414 -0.03427404 0.02260217
v -0.02951228 -0.02327597 0.02260217
v -0.05900932 -0.02327597 0.02468331
v -0.04990787 -0.03743118 0.02468833
v -0.04730745 -0.04002884 0.02469836
v -0.04211115 -0.04522414 0.02470337
v -0.03821506 -0.05042744 0.02468833
v -0.02911361 -0.05562675 0.02471842
v -0.02911361 -0.05692557 0.02470337
v -0.02781341 -0.05822440 0.02469334
v -0.02001216 -0.06082605 0.02471842
v -0.01611154 -0.06212488 0.02472845
v -0.01560414 -0.06323588 0.02463317
v -0.01560414 -0.03427404 0.02256706
v -0.02936731 -0.02327597 -0.02288215
v -0.02943073 -0.02327597 0.00309958
v -0.06030500 -0.02327597 0.02464821
v -0.05900932 -0.02443093 0.02466827
v -0.05640891 -0.03092906 0.02464320
v -0.05250828 -0.03743118 0.02464320
v -0.04990787 -0.04002884 0.02466325
v -0.04990787 -0.03873001 0.02467830
v -0.04860766 -0.04002884 0.02468331
v -0.04340683 -0.04522414 0.02468833
v -0.04211115 -0.04652697 0.02468833
v -0.03951074 -0.05042744 0.02467328
v -0.03561465 -0.05302510 0.02468331
v -0.03431444 -0.05432792 0.02467830
v -0.02131237 -0.06082605 0.02470337
v -0.03041382 -0.05692557 0.02467830
v -0.02913626 -0.05825637 0.02463317
v -0.02871947 -0.05895574 0.02459305
v -0.02521299 -0.05952723 0.02468833
v -0.01741175 -0.06212488 0.02470839
v -0.01741175 -0.06291616 0.02461812
v -0.01871195 -0.06282824 0.02458302
v -0.01937338 -0.06278029 0.02455293
v -0.01560414 -0.06385132 0.02412165
v -0.01560414 -0.03444588 -0.02289218
v -0.02936731 -0.02327597 -0.02289218
v -0.06043184 -0.02327597 0.02463818
v -0.06100266 -0.02393138 0.02457800
v -0.05971152 -0.02661296 0.02457800
v -0.05842491 -0.02917464 0.02457800
v -0.05900932 -0.02572976 0.02464821
v -0.05710204 -0.03168038 0.02457299
v -0.05635001 -0.03215995 0.02460308
v -0.05339623 -0.03743118 0.02459305
v -0.05243126 -0.03864209 0.02460308
v -0.04600725 -0.04522414 0.02464320
v -0.04730745 -0.04263049 0.02466827
v -0.04340683 -0.04652697 0.02467328
v -0.03821506 -0.05172627 0.02466827
v -0.03691485 -0.05302510 0.02464821
v -0.02224562 -0.06154141 0.02459305
v -0.01871195 -0.06212488 0.02466827
v -0.03808821 -0.05293718 0.02459806
v -0.03162795 -0.05685764 0.02461812
v -0.03041382 -0.05780878 0.02460308
v -0.03113867 -0.05762095 0.02457800
v -0.02958477 -0.05871196 0.02441753
v -0.02602392 -0.06021860 0.02458302
v -0.02521299 -0.06028654 0.02460809
v -0.02647695 -0.06032650 0.02384584
v -0.02347787 -0.06155739 0.02359008
v -0.01959537 -0.06284423 0.02390100
v -0.01560414 -0.06407112 0.02350483
v -0.01560414 -0.03466568 -0.02430134
v -0.02940808 -0.02327597 -0.02419603
v -0.06106156 -0.02327597 0.02458803
v -0.05946688 -0.02748017 0.02448272
v -0.06152819 -0.02327597 0.02390100
v -0.06116123 -0.02439097 0.02390602
v -0.05977494 -0.02791978 0.02361516
v -0.05577465 -0.03420610 0.02455794
v -0.05320595 -0.03815053 0.02457299
v -0.04670039 -0.04591952 0.02457299
v -0.04700845 -0.04522414 0.02459305
v -0.03942919 -0.05165034 0.02461311
v -0.03893992 -0.05244162 0.02458302
v -0.03757175 -0.05368051 0.02455794
v -0.03508460 -0.05503128 0.02458302
v -0.02987018 -0.05894775 0.02354997
v -0.02913626 -0.05913957 0.02395115
v -0.02722446 -0.06019862 0.02337946
v -0.02261257 -0.06195303 0.02260217
v -0.02131237 -0.06241662 0.02260217
v -0.02042442 -0.06270435 0.02260217
v -0.01977658 -0.06290018 0.02260217
v -0.01871195 -0.06321989 0.02260217
v -0.01741175 -0.06360754 0.02260217
v -0.01622480 -0.06393524 0.02260217
v -0.01560414 -0.06409910 0.02260217
v -0.01560414 -0.03484552 -0.02465238
v -0.02961648 -0.02327597 -0.02489309
v -0.05813043 -0.03003786 0.02442254
v -0.05865142 -0.02961425 0.02395617
v -0.06188608 -0.02327597 0.02260217
v -0.06101173 -0.02520623 0.02347474
v -0.05844755 -0.03042951 0.02355498
v -0.05982478 -0.02803168 0.02260217
v -0.05950766 -0.02867909 0.02260217
v -0.05429323 -0.03659994 0.02448272
v -0.05456958 -0.03696760 0.02361516
v -0.04795076 -0.04456874 0.02454791
v -0.05340529 -0.03839432 0.02390100
v -0.04536394 -0.04718238 0.02455293
v -0.04686348 -0.04609935 0.02390100
v -0.04617940 -0.04675077 0.02390100
v -0.04418152 -0.04857712 0.02359008
v -0.03916190 -0.05262946 0.02390100
v -0.03838269 -0.05327687 0.02390100
v -0.03773484 -0.05379241 0.02390100
v -0.03787529 -0.05388432 0.02260217
v -0.03691485 -0.05449977 0.02260217
v -0.02990189 -0.05896773 0.02260217
v -0.02911361 -0.05938336 0.02260217
v -0.02356395 -0.06159336 0.02260217
v -0.02786777 -0.05993885 0.02260217
v -0.02721540 -0.06019862 0.02260217
v -0.02261257 -0.06188909 0.01740181
v -0.02131237 -0.06233669 0.01740181
v -0.02131237 -0.06231671 0.01610298
v -0.02001216 -0.06221680 -0.01119263
v -0.01560414 -0.06323588 -0.02419603
v -0.01560414 -0.03515724 -0.02508365
v -0.02953946 -0.02347179 -0.02510873
v -0.02993813 -0.02327597 -0.02528424
v -0.06103438 -0.02525418 0.02260217
v -0.06161879 -0.02327597 0.00440343
v -0.06026875 -0.02702858 0.02260217
v -0.05707033 -0.03289928 0.02330424
v -0.05898213 -0.02963023 0.02260217
v -0.05976589 -0.02790379 0.01479912
v -0.05946688 -0.02859517 0.01740181
v -0.05421622 -0.03769095 0.02260217
v -0.05356385 -0.03858614 0.02260217
v -0.05060101 -0.04203103 0.02341958
v -0.04812291 -0.04476856 0.02368035
v -0.04759739 -0.04521216 0.02403139
v -0.04553156 -0.04731026 0.02390100
v -0.04699033 -0.04623523 0.02260217
v -0.04631984 -0.04688664 0.02260217
v -0.04279070 -0.04980401 0.02336442
v -0.03932046 -0.05277333 0.02260217
v -0.03852313 -0.05342074 0.02260217
v -0.03785264 -0.05258150 -0.02419603
v -0.03691485 -0.05322492 -0.02419603
v -0.03625342 -0.05366852 -0.02419603
v -0.03072641 -0.05735319 -0.02419603
v -0.03007857 -0.05777281 -0.02419603
v -0.02977957 -0.05888780 0.01610298
v -0.02911361 -0.05824838 -0.02419603
v -0.02268053 -0.06122969 -0.01249147
v -0.02206893 -0.06151743 -0.01119263
v -0.02340085 -0.06153341 0.01479912
v -0.02343710 -0.06154540 0.01610298
v -0.02261257 -0.06186511 0.01610298
v -0.02131237 -0.06179717 -0.01119263
v -0.02001216 -0.06218882 -0.01249147
v -0.02001216 -0.06215286 -0.01379532
v -0.02001216 -0.06211689 -0.01509415
v -0.02001216 -0.06185712 -0.02419603
v -0.01686358 -0.06280826 -0.02492318
v -0.01560414 -0.06314795 -0.02476270
v -0.01560414 -0.03538503 -0.02520401
v -0.03034586 -0.02327597 -0.02552997
v -0.03016012 -0.02327597 -0.02543970
v -0.06159614 -0.02327597 0.00292907
v -0.05848380 -0.03048945 0.02260217
v -0.05707033 -0.03289928 0.02285291
v -0.05603741 -0.03464170 0.02260217
v -0.05461036 -0.03703954 0.02260217
v -0.05889153 -0.02963023 0.01740181
v -0.05974323 -0.02785184 0.01220145
v -0.05944423 -0.02855121 0.01479912
v -0.05886888 -0.02963023 0.01610298
v -0.05720624 -0.03182025 -0.00209577
v -0.05716094 -0.03174432 -0.00599227
v -0.05673962 -0.03236776 -0.00729111
v -0.05672150 -0.03233978 -0.00859496
v -0.05600117 -0.03325895 -0.01379532
v -0.05347324 -0.03727133 -0.01379532
v -0.05304739 -0.03792274 -0.01379532
v -0.05311988 -0.03802265 -0.00859496
v -0.05303380 -0.03923356 0.02260217
v -0.05244033 -0.03873001 -0.01249147
v -0.04764270 -0.04549191 0.02260217
v -0.05238596 -0.03998887 0.02260217
v -0.04690878 -0.04613932 0.01610298
v -0.04659619 -0.04580762 -0.00729111
v -0.04590305 -0.04635113 -0.00989380
v -0.04516460 -0.04701852 -0.00859496
v -0.04511930 -0.04698256 -0.01119263
v -0.03850500 -0.05208995 -0.02419603
v -0.03775297 -0.05251356 -0.02507864
v -0.03386594 -0.05510722 -0.02508867
v -0.02996985 -0.05770088 -0.02509870
v -0.02728788 -0.05892377 -0.02496330
v -0.02801727 -0.05870397 -0.02419603
v -0.02202816 -0.06150144 -0.01249147
v -0.02131237 -0.06176520 -0.01249147
v -0.02111756 -0.06164531 -0.01899567
v -0.02106320 -0.06162533 -0.02029451
v -0.02089558 -0.06156538 -0.02419603
v -0.02080497 -0.06152942 -0.02496330
v -0.01611154 -0.06292815 -0.02512879
v -0.01560414 -0.06301207 -0.02521404
v -0.01560414 -0.03608840 -0.02550991
v -0.03156905 -0.02327597 -0.02600638
v -0.06087129 -0.02487453 0.00180074
v -0.06137416 -0.02327597 -0.00859496
v -0.06040013 -0.02572976 -0.00339460
v -0.05842491 -0.03038955 0.01610298
v -0.05676227 -0.03341082 0.02249184
v -0.05824369 -0.03008582 -0.00209577
v -0.05776800 -0.03092906 -0.00079192
v -0.05774082 -0.03092906 -0.00209577
v -0.05771364 -0.03092906 -0.00339460
v -0.05991086 -0.02694066 -0.00079192
v -0.05988820 -0.02688471 -0.00339460
v -0.05960732 -0.02756410 -0.00209577
v -0.05922224 -0.02833141 -0.00209577
v -0.05863783 -0.02945839 -0.00079192
v -0.05765022 -0.03092906 -0.00599227
v -0.05709298 -0.03163242 -0.01119263
v -0.05668525 -0.03228383 -0.01119263
v -0.05707486 -0.03160445 -0.01249147
v -0.05672602 -0.03210400 -0.01373012
v -0.05660371 -0.03223188 -0.01509415
v -0.05591963 -0.03313107 -0.01899567
v -0.05345512 -0.03723936 -0.01509415
v -0.05302927 -0.03789077 -0.01509415
v -0.05237690 -0.03870604 -0.01509415
v -0.05229535 -0.03885790 -0.01383042
v -0.05186950 -0.03938942 -0.01342422
v -0.05188309 -0.03940540 -0.01249147
v -0.05068256 -0.04082412 -0.01249147
v -0.04829960 -0.04368154 -0.01119263
v -0.04778767 -0.04437291 -0.00859496
v -0.04715342 -0.04516020 -0.00729111
v -0.04756115 -0.04539199 0.01610298
v -0.04709906 -0.04509226 -0.01119263
v -0.04657354 -0.04578763 -0.00859496
v -0.04585774 -0.04631117 -0.01249147
v -0.04509665 -0.04696257 -0.01249147
v -0.03927969 -0.05144253 -0.02419603
v -0.04276805 -0.04848520 -0.02486300
v -0.03913925 -0.05131864 -0.02515386
v -0.03819694 -0.05174226 -0.02540961
v -0.03691485 -0.05279730 -0.02531433
v -0.03147392 -0.05655791 -0.02522407
v -0.03040476 -0.05696554 -0.02546979
v -0.02911361 -0.05790469 -0.02533439
v -0.02154795 -0.06131361 -0.02419603
v -0.02651320 -0.05907164 -0.02518896
v -0.02359113 -0.06031451 -0.02510371
v -0.02171557 -0.06138155 -0.02029451
v -0.02199192 -0.06148945 -0.01351449
v -0.02143922 -0.06168128 -0.01388558
v -0.02128066 -0.06170126 -0.01509415
v -0.02261257 -0.06052232 -0.02531935
v -0.02001216 -0.06165730 -0.02516890
v -0.01871195 -0.06186511 -0.02535947
v -0.01560414 -0.06252052 -0.02557009
v -0.01560414 -0.03663590 -0.02568041
v -0.03171403 -0.02327597 -0.02602142
v -0.01560414 -0.03743118 -0.02578573
v -0.06136962 -0.02327597 -0.00881561
v -0.06032312 -0.02572976 -0.00729111
v -0.05862424 -0.02943441 -0.00209577
v -0.05823010 -0.03006184 -0.00339460
v -0.05821651 -0.03003387 -0.00469344
v -0.05984743 -0.02680079 -0.00729111
v -0.05955296 -0.02745220 -0.00729111
v -0.05916788 -0.02833141 -0.00469344
v -0.05859706 -0.02938645 -0.00469344
v -0.05758226 -0.03092906 -0.00859496
v -0.05747807 -0.03092906 -0.01249147
v -0.05736934 -0.03104895 -0.01373012
v -0.05703409 -0.03153651 -0.01509415
v -0.05656293 -0.03223188 -0.01639299
v -0.05647686 -0.03223188 -0.01899567
v -0.05587432 -0.03306313 -0.02159334
v -0.05331015 -0.03701156 -0.02419603
v -0.05300662 -0.03785880 -0.01639299
v -0.05185591 -0.03937343 -0.01429178
v -0.05233160 -0.03864209 -0.01769182
v -0.05012986 -0.04147553 -0.01249147
v -0.04772877 -0.04430497 -0.01249147
v -0.04707641 -0.04506829 -0.01249147
v -0.04651011 -0.04571970 -0.01249147
v -0.04583056 -0.04629118 -0.01379532
v -0.04504681 -0.04691861 -0.01509415
v -0.04501963 -0.04689863 -0.01639299
v -0.04281336 -0.04852117 -0.02289218
v -0.04278617 -0.04849719 -0.02419603
v -0.04423135 -0.04732225 -0.02289218
v -0.04488372 -0.04676675 -0.02289218
v -0.04419964 -0.04729428 -0.02419603
v -0.04484748 -0.04673478 -0.02419603
v -0.04558592 -0.04608337 -0.02419603
v -0.04414074 -0.04724632 -0.02497333
v -0.04549532 -0.04600344 -0.02504855
v -0.04463002 -0.04647102 -0.02528424
v -0.03954698 -0.05047540 -0.02548484
v -0.04211115 -0.04782580 -0.02575062
v -0.03691485 -0.05172627 -0.02591611
v -0.03430538 -0.05436389 -0.02544472
v -0.03301423 -0.05432792 -0.02593116
v -0.02911361 -0.05692557 -0.02594620
v -0.02651320 -0.05822440 -0.02579575
v -0.02001216 -0.06082605 -0.02575564
v -0.01611154 -0.06212488 -0.02571050
v -0.01560414 -0.06212488 -0.02580077
v -0.03286926 -0.02327597 -0.02606154
v -0.01611154 -0.03743118 -0.02582083
v -0.01871195 -0.03612836 -0.02590107
v -0.02131237 -0.03482954 -0.02596626
v -0.01560414 -0.03793873 -0.02581080
v -0.06134244 -0.02327597 -0.01012448
v -0.06029593 -0.02572976 -0.00859496
v -0.05814855 -0.02991797 -0.00989380
v -0.05983384 -0.02676882 -0.00859496
v -0.05953936 -0.02742023 -0.00859496
v -0.05910898 -0.02833141 -0.00729111
v -0.05857893 -0.02935848 -0.00599227
v -0.05907727 -0.02833141 -0.00859496
v -0.05809419 -0.02982206 -0.01379532
v -0.05741917 -0.03088909 -0.01509415
v -0.05698879 -0.03146457 -0.01769182
v -0.05643155 -0.03223188 -0.02029451
v -0.05633189 -0.03223188 -0.02289218
v -0.05584714 -0.03302317 -0.02289218
v -0.05386285 -0.03612836 -0.02419603
v -0.05578825 -0.03293125 -0.02490813
v -0.05325579 -0.03692764 -0.02502347
v -0.05286165 -0.03766298 -0.02419603
v -0.05220928 -0.03848623 -0.02419603
v -0.05183779 -0.03935744 -0.01509415
v -0.05126697 -0.04002884 -0.01509415
v -0.04770612 -0.04427700 -0.01379532
v -0.04945936 -0.04221486 -0.01379532
v -0.04705375 -0.04504031 -0.01379532
v -0.04648293 -0.04569172 -0.01379532
v -0.04577620 -0.04624722 -0.01639299
v -0.04580791 -0.04626720 -0.01509415
v -0.04499698 -0.04687066 -0.01769182
v -0.04426306 -0.04734623 -0.02159334
v -0.04491090 -0.04679473 -0.02159334
v -0.04574449 -0.04622324 -0.01769182
v -0.04565388 -0.04614331 -0.02159334
v -0.04562217 -0.04611534 -0.02289218
v -0.04627001 -0.04545594 -0.02289218
v -0.04623376 -0.04541997 -0.02419603
v -0.04675475 -0.04468863 -0.02501846
v -0.04596194 -0.04516420 -0.02531935
v -0.04470704 -0.04522414 -0.02592112
v -0.04340683 -0.04652697 -0.02585092
v -0.03821506 -0.05042744 -0.02598632
v -0.03041382 -0.05562675 -0.02605151
v -0.02261257 -0.05952723 -0.02591611
v -0.02781341 -0.05692557 -0.02606154
v -0.02521299 -0.05822440 -0.02600136
v -0.01871195 -0.06082605 -0.02594620
v -0.01560414 -0.06133360 -0.02598130
v -0.02521299 -0.03353071 -0.02603145
v -0.03416947 -0.02327597 -0.02608661
v -0.01741175 -0.03743118 -0.02587599
v -0.01871195 -0.03743118 -0.02592614
v -0.02001216 -0.03612836 -0.02594620
v -0.01560414 -0.04963216 -0.02597127
v -0.01560414 -0.03923755 -0.02583587
v -0.06131979 -0.02327597 -0.01119263
v -0.05982025 -0.02673285 -0.00989380
v -0.05854269 -0.02929853 -0.00859496
v -0.05952577 -0.02738426 -0.00989380
v -0.05896854 -0.02833141 -0.01249147
v -0.05847021 -0.02917065 -0.01379532
v -0.05807154 -0.02978209 -0.01509415
v -0.05732856 -0.03073723 -0.02029451
v -0.05694348 -0.03138864 -0.02029451
v -0.05692083 -0.03134868 -0.02159334
v -0.05686647 -0.03126076 -0.02419603
v -0.05627752 -0.03223188 -0.02419603
v -0.05581996 -0.03297921 -0.02419603
v -0.05725608 -0.03060935 -0.02419603
v -0.05717906 -0.03048546 -0.02505858
v -0.05465566 -0.03449384 -0.02513881
v -0.05350042 -0.03612836 -0.02527923
v -0.05251734 -0.03738723 -0.02540460
v -0.05208696 -0.03834236 -0.02517392
v -0.04798700 -0.04331387 -0.02490312
v -0.04681818 -0.04476856 -0.02419603
v -0.04684989 -0.04480852 -0.02289218
v -0.04691331 -0.04487646 -0.02029451
v -0.04697221 -0.04494440 -0.01769182
v -0.04699939 -0.04498037 -0.01639299
v -0.04702657 -0.04501234 -0.01509415
v -0.04645575 -0.04566375 -0.01509415
v -0.04642856 -0.04563178 -0.01639299
v -0.04630172 -0.04549191 -0.02159334
v -0.05124885 -0.03875799 -0.02550991
v -0.04600725 -0.04392532 -0.02590608
v -0.04860766 -0.04002884 -0.02608661
v -0.04730745 -0.04133166 -0.02609664
v -0.04600725 -0.04263049 -0.02610667
v -0.04470704 -0.04392532 -0.02610667
v -0.04211115 -0.04652697 -0.02608160
v -0.04081095 -0.04782580 -0.02606154
v -0.03951074 -0.04912462 -0.02602644
v -0.02911361 -0.05562675 -0.02607658
v -0.02651320 -0.05692557 -0.02606154
v -0.01611154 -0.06082605 -0.02601139
v -0.01741175 -0.06082605 -0.02600136
v -0.02131237 -0.05952723 -0.02601139
v -0.01560414 -0.06082605 -0.02601139
v -0.02521299 -0.03482954 -0.02604148
v -0.03301423 -0.02572976 -0.02609163
v -0.03546968 -0.02327597 -0.02610166
v -0.01560414 -0.04133166 -0.02587098
v -0.01560414 -0.04522414 -0.02592112
v -0.01560414 -0.04782580 -0.02595121
v -0.01560414 -0.04263049 -0.02589104
v -0.01560414 -0.04392532 -0.02590608
v -0.01560414 -0.05223381 -0.02599133
v -0.06127902 -0.02327597 -0.01275224
v -0.06023251 -0.02572976 -0.01119263
v -0.05980213 -0.02669688 -0.01119263
v -0.05950766 -0.02734829 -0.01119263
v -0.05948953 -0.02730833 -0.01249147
v -0.05892777 -0.02833141 -0.01379532
v -0.05888700 -0.02833141 -0.01509415
v -0.05844755 -0.02913068 -0.01509415
v -0.05792657 -0.02963023 -0.02159334
v -0.05730591 -0.03069727 -0.02159334
v -0.05728326 -0.03065331 -0.02289218
v -0.05781784 -0.02963023 -0.02419603
v -0.05853363 -0.02799571 -0.02512879
v -0.05742370 -0.02963023 -0.02529427
v -0.05600117 -0.03223188 -0.02516890
v -0.05827087 -0.02882696 -0.02419603
v -0.05863330 -0.02817555 -0.02419603
v -0.05645420 -0.03092107 -0.02543970
v -0.05510870 -0.03223188 -0.02579074
v -0.05250828 -0.03612836 -0.02592112
v -0.05120807 -0.03743118 -0.02605151
v -0.05123073 -0.03618831 -0.02613676
v -0.04508759 -0.04177926 -0.02614178
v -0.02911361 -0.05432792 -0.02608160
v -0.04422229 -0.04205101 -0.02614679
v -0.04340683 -0.03873001 -0.02616685
v -0.01560414 -0.06003477 -0.02601139
v -0.02781341 -0.05302510 -0.02608160
v -0.03736789 -0.03954527 -0.02614679
v -0.03722745 -0.03873001 -0.02614679
v -0.01560414 -0.05302510 -0.02599635
v -0.02651320 -0.03482954 -0.02606154
v -0.02781341 -0.03482954 -0.02607658
v -0.03301423 -0.02702858 -0.02609664
v -0.03561465 -0.02702858 -0.02611670
v -0.03691485 -0.02572976 -0.02612172
v -0.03691485 -0.02443093 -0.02611670
v -0.03691485 -0.02327597 -0.02611169
v -0.06019627 -0.02572976 -0.01249147
v -0.06093471 -0.02327597 -0.02419603
v -0.05978400 -0.02665692 -0.01249147
v -0.05944876 -0.02720442 -0.01509415
v -0.05866048 -0.02822750 -0.02289218
v -0.05832524 -0.02892287 -0.02159334
v -0.05830259 -0.02887491 -0.02289218
v -0.05920865 -0.02702858 -0.02419603
v -0.05980213 -0.02539406 -0.02509368
v -0.05877374 -0.02702858 -0.02535445
v -0.05779972 -0.02838736 -0.02549487
v -0.05640891 -0.02963023 -0.02592112
v -0.05380849 -0.03353071 -0.02600638
v -0.05510870 -0.03092906 -0.02606154
v -0.05243579 -0.03485751 -0.02611169
v -0.05168376 -0.03530910 -0.02614178
v -0.05046963 -0.03665589 -0.02614178
v -0.04959980 -0.03706352 -0.02614679
v -0.04552250 -0.04091204 -0.02614679
v -0.04081095 -0.03873001 -0.02616183
v -0.04860766 -0.03612836 -0.02616183
v -0.04990787 -0.03353071 -0.02617187
v -0.04470704 -0.04002884 -0.02615682
v -0.04860766 -0.03223188 -0.02617688
v -0.04860766 -0.02833141 -0.02618691
v -0.04211115 -0.03743118 -0.02616685
v -0.01560414 -0.05483147 -0.02600136
v -0.03171403 -0.03873001 -0.02611169
v -0.03041382 -0.03743118 -0.02610166
v -0.02651320 -0.03743118 -0.02607157
v -0.03951074 -0.03873001 -0.02615682
v -0.03821506 -0.03873001 -0.02615181
v -0.03821506 -0.03743118 -0.02615181
v -0.03728634 -0.03743118 -0.02614679
v -0.02651320 -0.03612836 -0.02606655
v -0.03041382 -0.03482954 -0.02609664
v -0.03744490 -0.03648404 -0.02614679
v -0.03865904 -0.03259555 -0.02614679
v -0.04470704 -0.02963023 -0.02617688
v -0.03951074 -0.02572976 -0.02613676
v -0.04600725 -0.02702858 -0.02617688
v -0.04696768 -0.02327597 -0.02615181
v -0.06090300 -0.02327597 -0.02444677
v -0.06083051 -0.02350377 -0.02419603
v -0.05958467 -0.02621731 -0.02419603
v -0.06002411 -0.02443093 -0.02532938
v -0.05900932 -0.02443093 -0.02595623
v -0.05770911 -0.02702858 -0.02598632
v -0.05640891 -0.02833141 -0.02608661
v -0.05770911 -0.02572976 -0.02609163
v -0.05630923 -0.02698063 -0.02612172
v -0.05558891 -0.02738026 -0.02614178
v -0.05195105 -0.03444189 -0.02614679
v -0.05123073 -0.03485751 -0.02615181
v -0.04998488 -0.03618831 -0.02615181
v -0.04860766 -0.03747115 -0.02615181
v -0.04340683 -0.03353071 -0.02617187
v -0.05120807 -0.02833141 -0.02618189
v -0.04990787 -0.02963023 -0.02618189
v -0.05120807 -0.03353071 -0.02616183
v -0.05120807 -0.03223188 -0.02616685
v -0.05120807 -0.02702858 -0.02618189
v -0.04860766 -0.02702858 -0.02618189
v -0.04470704 -0.03092906 -0.02617688
v -0.03951074 -0.03612836 -0.02615682
v -0.04860766 -0.02572976 -0.02617688
v -0.04860766 -0.02443093 -0.02616685
v -0.04976290 -0.02327597 -0.02616183
v -0.06035030 -0.02327597 -0.02544472
v -0.06024610 -0.02327597 -0.02550991
v -0.05900932 -0.02327597 -0.02607658
v -0.05886434 -0.02327597 -0.02609163
v -0.05580637 -0.02651305 -0.02614679
v -0.05207337 -0.03353071 -0.02615181
v -0.05250828 -0.02702858 -0.02617688
v -0.05250828 -0.02833141 -0.02617187
v -0.05380849 -0.02702858 -0.02616685
v -0.05380849 -0.02327597 -0.02616183
v -0.05120807 -0.02572976 -0.02617688
v -0.05761398 -0.02327597 -0.02612673
v -0.05741917 -0.02327597 -0.02613175
v -0.05687100 -0.02337588 -0.02614178
v -0.05618692 -0.02327597 -0.02615181
v -0.05510870 -0.02327597 -0.02615682
v -0.05689365 -0.02327597 -0.02614178
f 1 2 3
f 1 3 4
f 1 4 14
f 1 14 28
f 1 28 53
f 1 53 82
f 1 82 108
f 1 108 140
f 1 140 180
f 1 180 223
f 1 223 280
f 1 280 330
f 1 330 381
f 1 381 432
f 1 432 468
f 1 468 506
f 1 506 472
f 1 472 441
f 1 441 387
f 1 387 438
f 1 438 437
f 1 437 440
f 1 440 439
f 1 439 436
f 1 436 388
f 1 388 335
f 1 335 283
f 1 283 281
f 1 281 224
f 1 224 181
f 1 181 141
f 1 141 109
f 1 109 83
f 1 83 54
f 1 54 29
f 1 29 16
f 1 16 9
f 1 9 2
f 2 5 6
f 2 6 7
f 2 7 8
f 2 8 3
f 2 9 5
f 3 8 10
f 3 10 11
f 3 11 12
f 3 12 4
f 4 12 13
f 4 13 14
f 5 9 6
f 6 9 15
f 6 15 7
f 7 15 17
f 7 17 31
f 7 31 30
f 7 30 55
f 7 55 84
f 7 84 110
f 7 110 143
f 7 143 183
f 7 183 182
f 7 182 225
f 7 225 282
f 7 282 331
f 7 331 383
f 7 383 435
f 7 435 479
f 7 479 521
f 7 521 547
f 7 547 557
f 7 557 563
f 7 563 562
f 7 562 564
f 7 564 560
f 7 560 559
f 7 559 551
f 7 551 550
f 7 550 549
f 7 549 548
f 7 548 522
f 7 522 481
f 7 481 442
f 7 442 389
f 7 389 336
f 7 336 284
f 7 284 227
f 7 227 184
f 7 184 145
f 7 145 113
f 7 113 87
f 7 87 85
f 7 85 56
f 7 56 32
f 7 32 18
f 7 18 10
f 7 10 8
f 9 16 17
f 9 17 15
f 10 18 11
f 11 18 19
f 11 19 12
f 12 20 21
f 12 21 22
f 12 22 23
f 12 23 13
f 12 19 20
f 13 23 24
f 13 24 25
f 13 25 44
f 13 44 26
f 13 26 14
f 14 26 27
f 14 27 28
f 16 29 55
f 16 55 30
f 16 30 31
f 16 31 17
f 18 32 33
f 18 33 34
f 18 34 35
f 18 35 36
f 18 36 37
f 18 37 19
f 19 37 38
f 19 38 20
f 20 38 21
f 21 38 39
f 21 39 67
f 21 67 40
f 21 40 22
f 22 40 67
f 22 67 41
f 22 41 42
f 22 42 24
f 22 24 23
f 24 42 43
f 24 43 25
f 25 43 45
f 25 45 46
f 25 46 47
f 25 47 48
f 25 48 44
f 26 44 27
f 27 44 49
f 27 49 28
f 28 50 51
f 28 51 52
f 28 52 53
f 28 49 50
f 29 54 55
f 32 56 57
f 32 57 58
f 32 58 59
f 32 59 34
f 32 34 60
f 32 60 33
f 33 60 34
f 34 59 61
f 34 61 62
f 34 62 63
f 34 63 35
f 35 63 64
f 35 64 36
f 36 64 65
f 36 65 66
f 36 66 38
f 36 38 37
f 38 66 67
f 38 67 39
f 41 43 42
f 41 67 65
f 41 65 68
f 41 68 43
f 43 68 69
f 43 69 45
f 44 48 70
f 44 70 71
f 44 71 49
f 45 69 72
f 45 72 73
f 45 73 74
f 45 74 46
f 46 74 47
f 47 74 75
f 47 75 76
f 47 76 77
f 47 77 48
f 48 77 78
f 48 78 70
f 49 71 50
f 50 71 51
f 51 70 52
f 51 71 70
f 52 70 77
f 52 77 79
f 52 79 80
f 52 80 81
f 52 81 82
f 52 82 53
f 54 83 84
f 54 84 55
f 56 85 57
f 57 86 58
f 57 85 87
f 57 87 88
f 57 88 89
f 57 89 86
f 58 86 59
f 59 86 61
f 61 86 90
f 61 90 63
f 61 63 62
f 63 90 91
f 63 91 64
f 64 91 92
f 64 92 93
f 64 93 65
f 65 67 66
f 65 93 92
f 65 92 68
f 68 92 94
f 68 94 72
f 68 72 69
f 70 78 77
f 72 94 95
f 72 95 96
f 72 96 97
f 72 97 75
f 72 75 74
f 72 74 73
f 75 97 96
f 75 96 76
f 76 96 98
f 76 98 99
f 76 99 77
f 77 99 100
f 77 100 79
f 79 100 80
f 80 100 101
f 80 101 102
f 80 102 81
f 81 102 103
f 81 103 104
f 81 104 105
f 81 105 82
f 82 105 106
f 82 106 107
f 82 107 108
f 83 109 110
f 83 110 84
f 86 111 90
f 86 89 112
f 86 112 111
f 87 113 88
f 88 113 114
f 88 114 89
f 89 115 112
f 89 114 116
f 89 116 117
f 89 117 115
f 90 118 91
f 90 111 112
f 90 112 115
f 90 115 119
f 90 119 118
f 91 120 92
f 91 118 119
f 91 119 121
f 91 121 120
f 92 122 95
f 92 95 94
f 92 120 123
f 92 123 124
f 92 124 122
f 95 122 96
f 96 122 125
f 96 125 126
f 96 126 127
f 96 127 128
f 96 128 98
f 98 128 129
f 98 129 130
f 98 130 131
f 98 131 132
f 98 132 100
f 98 100 99
f 100 133 101
f 100 132 134
f 100 134 135
f 100 135 133
f 101 133 136
f 101 136 102
f 102 136 137
f 102 137 103
f 103 137 138
f 103 138 139
f 103 139 104
f 104 139 105
f 105 139 106
f 106 139 140
f 106 140 107
f 107 140 108
f 109 141 142
f 109 142 110
f 110 142 143
f 113 144 114
f 113 145 144
f 114 144 146
f 114 146 116
f 115 147 119
f 115 117 148
f 115 148 147
f 116 146 149
f 116 149 117
f 117 149 150
f 117 150 148
f 119 147 151
f 119 151 152
f 119 152 121
f 120 121 153
f 120 153 154
f 120 154 155
f 120 155 123
f 121 152 153
f 122 124 156
f 122 156 125
f 123 154 157
f 123 157 158
f 123 158 124
f 123 155 154
f 124 158 125
f 124 125 156
f 125 158 159
f 125 159 127
f 125 127 126
f 127 159 160
f 127 160 161
f 127 161 128
f 128 161 129
f 129 161 162
f 129 162 163
f 129 163 164
f 129 164 165
f 129 165 166
f 129 166 130
f 130 166 131
f 131 166 167
f 131 167 132
f 132 167 166
f 132 166 168
f 132 168 134
f 133 135 136
f 134 168 169
f 134 169 170
f 134 170 135
f 135 171 172
f 135 172 136
f 135 170 171
f 136 172 173
f 136 173 138
f 136 138 137
f 138 173 174
f 138 174 139
f 139 174 175
f 139 175 140
f 140 175 176
f 140 176 177
f 140 177 178
f 140 178 179
f 140 179 180
f 141 181 182
f 141 182 183
f 141 183 143
f 141 143 142
f 144 145 146
f 145 184 146
f 146 184 149
f 147 148 185
f 147 185 186
f 147 186 187
f 147 187 188
f 147 188 151
f 148 150 189
f 148 189 185
f 149 184 190
f 149 190 191
f 149 191 150
f 150 191 192
f 150 192 189
f 151 188 193
f 151 193 194
f 151 194 195
f 151 195 196
f 151 196 197
f 151 197 198
f 151 198 199
f 151 199 200
f 151 200 152
f 152 201 153
f 152 200 202
f 152 202 201
f 153 203 157
f 153 157 154
f 153 201 204
f 153 204 203
f 157 203 205
f 157 205 158
f 158 160 159
f 158 205 206
f 158 206 207
f 158 207 208
f 158 208 160
f 160 208 209
f 160 209 210
f 160 210 161
f 161 210 162
f 162 210 211
f 162 211 163
f 163 211 164
f 164 211 212
f 164 212 165
f 165 212 213
f 165 213 166
f 166 213 168
f 168 213 214
f 168 214 215
f 168 215 216
f 168 216 169
f 169 216 170
f 170 216 174
f 170 174 173
f 170 173 171
f 171 173 172
f 174 216 217
f 174 217 175
f 175 217 176
f 176 217 177
f 177 217 218
f 177 218 178
f 178 218 219
f 178 219 220
f 178 220 221
f 178 221 179
f 179 221 222
f 179 222 180
f 180 222 223
f 181 224 225
f 181 225 182
f 184 226 190
f 184 227 228
f 184 228 226
f 185 189 192
f 185 192 229
f 185 229 186
f 186 229 230
f 186 230 187
f 187 230 229
f 187 229 231
f 187 231 188
f 188 231 232
f 188 232 233
f 188 233 234
f 188 234 193
f 190 226 228
f 190 228 235
f 190 235 236
f 190 236 237
f 190 237 191
f 191 237 238
f 191 238 239
f 191 239 192
f 192 239 229
f 193 234 194
f 194 234 240
f 194 240 241
f 194 241 195
f 195 241 196
f 196 241 243
f 196 243 242
f 196 242 197
f 197 242 243
f 197 243 244
f 197 244 245
f 197 245 246
f 197 246 247
f 197 247 198
f 198 247 248
f 198 248 199
f 199 248 249
f 199 249 250
f 199 250 202
f 199 202 200
f 201 202 251
f 201 251 252
f 201 252 253
f 201 253 254
f 201 254 255
f 201 255 256
f 201 256 204
f 202 250 251
f 203 204 257
f 203 257 206
f 203 206 205
f 204 256 206
f 204 206 257
f 206 256 258
f 206 258 259
f 206 259 207
f 207 259 260
f 207 260 261
f 207 261 209
f 207 209 208
f 209 261 210
f 210 261 262
f 210 262 263
f 210 263 211
f 211 264 265
f 211 265 266
f 211 266 267
f 211 267 212
f 211 263 264
f 212 267 213
f 213 267 268
f 213 268 269
f 213 269 214
f 214 221 270
f 214 270 215
f 214 269 271
f 214 271 272
f 214 272 221
f 215 270 273
f 215 273 274
f 215 274 216
f 216 274 217
f 217 274 275
f 217 275 276
f 217 276 218
f 218 276 275
f 218 275 274
f 218 274 219
f 219 274 273
f 219 273 220
f 220 270 221
f 220 273 270
f 221 272 277
f 221 277 278
f 221 278 222
f 222 278 223
f 223 278 279
f 223 279 280
f 224 281 225
f 225 281 283
f 225 283 282
f 227 284 285
f 227 285 228
f 228 285 236
f 228 236 235
f 229 239 231
f 231 239 286
f 231 286 292
f 231 292 287
f 231 287 234
f 231 234 233
f 231 233 232
f 234 287 288
f 234 288 240
f 236 285 289
f 236 289 290
f 236 290 237
f 237 290 291
f 237 291 238
f 238 291 292
f 238 292 286
f 238 286 239
f 240 288 293
f 240 293 241
f 241 294 243
f 241 293 294
f 243 294 295
f 243 295 296
f 243 296 297
f 243 297 244
f 244 297 245
f 245 297 246
f 246 298 299
f 246 299 300
f 246 300 247
f 246 297 298
f 247 300 248
f 248 300 301
f 248 301 303
f 248 303 249
f 249 302 250
f 249 303 302
f 250 302 251
f 251 253 252
f 251 302 253
f 253 302 304
f 253 304 254
f 254 304 302
f 254 302 305
f 254 305 258
f 254 258 255
f 255 258 256
f 258 305 306
f 258 306 307
f 258 307 259
f 259 307 260
f 260 307 308
f 260 308 261
f 261 308 309
f 261 309 310
f 261 310 262
f 262 311 312
f 262 312 263
f 262 310 311
f 263 312 313
f 263 313 314
f 263 314 315
f 263 315 316
f 263 316 317
f 263 317 318
f 263 318 264
f 264 318 319
f 264 319 320
f 264 320 265
f 265 320 321
f 265 321 322
f 265 322 323
f 265 323 266
f 266 323 324
f 266 324 268
f 266 268 267
f 268 324 323
f 268 323 325
f 268 325 326
f 268 326 269
f 269 277 271
f 269 326 327
f 269 327 277
f 271 277 272
f 277 279 278
f 277 327 328
f 277 328 279
f 279 328 280
f 280 328 329
f 280 329 330
f 282 283 332
f 282 332 333
f 282 333 334
f 282 334 331
f 283 335 332
f 284 336 285
f 285 336 337
f 285 337 289
f 287 292 288
f 288 292 338
f 288 338 293
f 289 337 339
f 289 339 340
f 289 340 290
f 290 340 341
f 290 341 291
f 291 341 292
f 292 342 338
f 292 341 343
f 292 343 342
f 293 338 294
f 294 338 344
f 294 344 295
f 295 344 345
f 295 345 296
f 296 345 346
f 296 346 298
f 296 298 297
f 298 347 299
f 298 346 347
f 299 347 398
f 299 398 348
f 299 348 349
f 299 349 350
f 299 350 300
f 300 350 351
f 300 351 352
f 300 352 353
f 300 353 301
f 301 353 354
f 301 354 303
f 302 303 354
f 302 354 355
f 302 355 356
f 302 356 357
f 302 357 358
f 302 358 305
f 305 358 357
f 305 357 359
f 305 359 306
f 306 359 307
f 307 359 360
f 307 360 361
f 307 361 362
f 307 362 308
f 308 362 310
f 308 310 309
f 310 362 361
f 310 361 363
f 310 363 312
f 310 312 311
f 312 364 313
f 312 363 364
f 313 364 365
f 313 365 314
f 314 365 366
f 314 366 367
f 314 367 368
f 314 368 317
f 314 317 316
f 314 316 315
f 317 368 369
f 317 369 370
f 317 370 319
f 317 319 318
f 319 371 372
f 319 372 320
f 319 370 371
f 320 372 373
f 320 373 374
f 320 374 322
f 320 322 321
f 322 374 323
f 323 374 375
f 323 375 376
f 323 376 325
f 325 376 326
f 326 377 327
f 326 376 378
f 326 378 379
f 326 379 377
f 327 377 328
f 328 377 380
f 328 380 330
f 328 330 329
f 330 380 381
f 331 382 383
f 331 334 382
f 332 335 384
f 332 384 333
f 333 384 385
f 333 385 386
f 333 386 334
f 334 386 387
f 334 387 382
f 335 388 384
f 336 389 337
f 337 389 390
f 337 390 339
f 338 342 391
f 338 391 344
f 339 390 392
f 339 392 340
f 340 343 341
f 340 392 343
f 342 343 391
f 343 392 393
f 343 393 394
f 343 394 391
f 344 391 394
f 344 394 449
f 344 449 395
f 344 395 451
f 344 451 396
f 344 396 345
f 345 396 397
f 345 397 346
f 346 397 347
f 347 397 398
f 348 399 400
f 348 400 401
f 348 401 349
f 348 398 399
f 349 401 350
f 350 401 351
f 351 401 400
f 351 400 399
f 351 399 402
f 351 402 403
f 351 403 352
f 352 403 404
f 352 404 405
f 352 405 406
f 352 406 407
f 352 407 354
f 352 354 353
f 354 407 408
f 354 408 409
f 354 409 410
f 354 410 411
f 354 411 412
f 354 412 413
f 354 413 414
f 354 414 357
f 354 357 356
f 354 356 355
f 357 414 359
f 359 414 415
f 359 415 360
f 360 415 361
f 361 366 365
f 361 365 363
f 361 415 366
f 363 365 364
f 366 415 367
f 367 415 416
f 367 416 368
f 368 417 369
f 368 416 417
f 369 417 410
f 369 410 409
f 369 409 370
f 370 409 371
f 371 407 372
f 371 409 408
f 371 408 407
f 372 407 418
f 372 418 419
f 372 419 373
f 373 419 420
f 373 420 421
f 373 421 422
f 373 422 423
f 373 423 424
f 373 424 425
f 373 425 426
f 373 426 375
f 373 375 374
f 375 426 376
f 376 426 425
f 376 425 424
f 376 424 423
f 376 423 427
f 376 427 378
f 377 379 380
f 378 427 428
f 378 428 432
f 378 432 429
f 378 429 430
f 378 430 431
f 378 431 379
f 379 431 380
f 380 431 430
f 380 430 381
f 381 430 429
f 381 429 432
f 382 433 434
f 382 434 383
f 382 387 433
f 383 434 435
f 384 388 436
f 384 436 385
f 385 437 438
f 385 438 387
f 385 387 386
f 385 436 439
f 385 439 440
f 385 440 437
f 387 441 433
f 389 442 443
f 389 443 390
f 390 443 444
f 390 444 445
f 390 445 392
f 392 445 393
f 393 445 446
f 393 446 447
f 393 447 394
f 394 447 448
f 394 448 449
f 395 449 450
f 395 450 451
f 396 451 398
f 396 398 397
f 398 451 452
f 398 452 402
f 398 402 399
f 402 453 403
f 402 452 450
f 402 450 453
f 403 454 455
f 403 455 456
f 403 456 404
f 403 453 457
f 403 457 458
f 403 458 454
f 404 456 405
f 405 456 455
f 405 455 459
f 405 459 460
f 405 460 461
f 405 461 406
f 406 418 407
f 406 461 418
f 410 417 416
f 410 416 411
f 411 416 412
f 412 416 413
f 413 416 415
f 413 415 414
f 418 461 462
f 418 462 419
f 419 462 420
f 420 462 463
f 420 463 421
f 421 463 422
f 422 463 423
f 423 463 464
f 423 464 427
f 427 465 432
f 427 432 428
f 427 464 466
f 427 466 467
f 427 467 465
f 432 465 469
f 432 469 470
f 432 470 471
f 432 471 468
f 433 441 472
f 433 472 473
f 433 473 434
f 434 473 474
f 434 474 475
f 434 475 435
f 435 475 476
f 435 476 477
f 435 477 478
f 435 478 479
f 442 480 443
f 442 481 480
f 443 480 482
f 443 482 444
f 444 482 446
f 444 446 445
f 446 482 481
f 446 481 483
f 446 483 448
f 446 448 447
f 448 483 484
f 448 484 449
f 449 484 485
f 449 485 450
f 450 485 486
f 450 486 453
f 450 452 451
f 453 486 457
f 454 458 487
f 454 487 488
f 454 488 489
f 454 489 455
f 455 489 490
f 455 490 491
f 455 491 459
f 457 486 458
f 458 486 484
f 458 484 487
f 459 491 460
f 460 491 461
f 461 491 492
f 461 492 462
f 462 492 493
f 462 493 494
f 462 494 463
f 463 495 496
f 463 496 464
f 463 494 495
f 464 496 497
f 464 497 498
f 464 498 466
f 465 467 499
f 465 499 469
f 466 498 500
f 466 500 501
f 466 501 502
f 466 502 467
f 467 502 501
f 467 501 503
f 467 503 504
f 467 504 505
f 467 505 499
f 468 471 507
f 468 507 508
f 468 508 509
f 468 509 506
f 469 499 510
f 469 510 511
f 469 511 470
f 470 511 471
f 471 511 512
f 471 512 513
f 471 513 507
f 472 506 509
f 472 509 514
f 472 514 473
f 473 514 474
f 474 514 509
f 474 509 508
f 474 508 515
f 474 515 476
f 474 476 475
f 476 516 517
f 476 517 518
f 476 518 477
f 476 515 508
f 476 508 516
f 477 519 478
f 477 518 519
f 478 519 479
f 479 519 520
f 479 520 521
f 480 481 482
f 481 522 523
f 481 523 483
f 483 523 524
f 483 524 487
f 483 487 484
f 484 486 485
f 487 524 522
f 487 522 488
f 488 525 489
f 488 522 525
f 489 525 526
f 489 526 527
f 489 527 491
f 489 491 490
f 491 527 492
f 492 527 493
f 493 528 494
f 493 527 528
f 494 528 495
f 495 528 529
f 495 529 530
f 495 530 531
f 495 531 532
f 495 532 533
f 495 533 496
f 496 533 534
f 496 534 497
f 497 534 498
f 498 534 535
f 498 535 500
f 499 505 536
f 499 536 510
f 500 535 534
f 500 534 501
f 501 537 538
f 501 538 504
f 501 504 503
f 501 534 539
f 501 539 540
f 501 540 537
f 504 538 537
f 504 537 541
f 504 541 542
f 504 542 520
f 504 520 518
f 504 518 543
f 504 543 505
f 505 543 536
f 507 513 516
f 507 516 508
f 510 536 544
f 510 544 512
f 510 512 511
f 512 544 518
f 512 518 516
f 512 516 513
f 516 518 517
f 518 536 543
f 518 520 519
f 518 544 536
f 520 542 545
f 520 545 521
f 521 545 546
f 521 546 547
f 522 524 523
f 522 548 525
f 525 548 549
f 525 549 526
f 526 549 550
f 526 550 527
f 527 550 529
f 527 529 528
f 529 550 551
f 529 551 531
f 529 531 530
f 531 552 532
f 531 551 552
f 532 552 553
f 532 553 539
f 532 539 533
f 533 539 534
f 537 554 541
f 537 540 555
f 537 555 556
f 537 556 554
f 539 556 555
f 539 555 540
f 539 553 552
f 539 552 556
f 541 554 563
f 541 563 557
f 541 557 558
f 541 558 545
f 541 545 542
f 545 558 557
f 545 557 547
f 545 547 546
f 551 559 552
f 552 559 560
f 552 560 561
f 552 561 564
f 552 564 562
f 552 562 556
f 554 562 563
f 554 556 562
f 560 564 561

