# https://github.com/mikedh/trimesh
v -0.02936630 -0.02327198 -0.02289485
v -0.02940503 -0.02327198 -0.02419339
v -0.03625335 -0.00797871 -0.02481008
v -0.03623926 -0.00797871 -0.02419339
v -0.02943319 -0.02327198 0.00324138
v -0.02961628 -0.02327198 -0.02489029
v -0.03623574 -0.00806554 -0.02489531
v -0.03634489 -0.00797871 -0.02497552
v -0.03692586 -0.00797871 0.02259914
v -0.02951066 -0.02327198 0.02259914
v -0.02947897 -0.02327198 0.01480289
v -0.02993670 -0.02327198 -0.02528136
v -0.03661249 -0.00797871 -0.02524626
v -0.03701388 -0.00797871 0.02390270
v -0.02955643 -0.02327198 0.02390270
v -0.02951770 -0.02327198 0.02281974
v -0.03015852 -0.02327198 -0.02544180
v -0.03685544 -0.00797871 -0.02543177
v -0.03733781 -0.00797871 0.02473998
v -0.03009514 -0.02327198 0.02480014
v -0.03034513 -0.02327198 -0.02552703
v -0.03776385 -0.00797871 -0.02588300
v -0.03691177 -0.00882900 -0.02564735
v -0.03821453 -0.00797871 0.02491545
v -0.03039090 -0.02311779 0.02485529
v -0.03039442 -0.02327198 0.02487033
v -0.03157043 -0.02327198 -0.02600834
v -0.03821453 -0.00797871 -0.02601837
v -0.03821453 -0.00882900 0.02493551
v -0.03431328 -0.01922711 0.02503578
v -0.03171127 -0.02312677 0.02499568
v -0.06030873 -0.00797871 0.02472995
v -0.03171127 -0.02327198 0.02498565
v -0.03171127 -0.02312677 -0.02601837
v -0.03171127 -0.02327198 -0.02602338
v -0.03821453 -0.00882900 -0.02603341
v -0.03906309 -0.00797871 -0.02603842
v -0.06075942 -0.00797871 0.02472494
v -0.06205866 -0.00797871 0.02470990
v -0.06291074 -0.00797871 0.02469987
v -0.06160797 -0.00882900 0.02471491
v -0.06030873 -0.01792772 0.02470488
v -0.05900948 -0.02312677 0.02468483
v -0.05771024 -0.02327198 0.02469486
v -0.03301404 -0.02327198 -0.02606349
v -0.03301404 -0.02182738 -0.02604845
v -0.03691177 -0.01272867 -0.02604845
v -0.03951378 -0.00797871 -0.02604344
v -0.03821453 -0.01402805 -0.02607352
v -0.06423815 -0.00797871 0.02463970
v -0.06291074 -0.00882900 0.02469486
v -0.06160797 -0.01792772 0.02467480
v -0.06030873 -0.02052649 0.02468483
v -0.06030873 -0.02182738 0.02466978
v -0.06030873 -0.02312677 0.02465474
v -0.05900948 -0.02327198 0.02467982
v -0.03431328 -0.02327198 -0.02608856
v -0.03951378 -0.01142928 -0.02606850
v -0.05075981 -0.00797871 -0.02612867
v -0.03561253 -0.02327198 -0.02610360
v -0.06453039 -0.00797871 0.02461464
v -0.06361846 -0.01532894 0.02458455
v -0.06291074 -0.01532894 0.02464472
v -0.06291074 -0.01142928 0.02467480
v -0.06160797 -0.01922711 0.02466477
v -0.06160797 -0.02052649 0.02464472
v -0.06043548 -0.02327198 0.02463970
v -0.06030521 -0.02327198 0.02464973
v -0.05250974 -0.01142928 -0.02615374
v -0.05855880 -0.00797871 -0.02617379
v -0.03676741 -0.02327198 -0.02610861
v -0.05250974 -0.01402805 -0.02616376
v -0.06489658 -0.00797871 0.02457954
v -0.06358677 -0.01629300 0.02456951
v -0.06233682 -0.02052649 0.02458455
v -0.06227696 -0.02122559 0.02456450
v -0.06107630 -0.02312677 0.02459458
v -0.06106222 -0.02327198 0.02458957
v -0.05380899 -0.01402805 -0.02616878
v -0.05380899 -0.01662683 -0.02616878
v -0.05900948 -0.00882900 -0.02617379
v -0.06030873 -0.00797871 -0.02617379
v -0.04722826 -0.02327198 -0.02615374
v -0.04846413 -0.02327198 -0.02615875
v -0.06513600 -0.00797871 0.02393779
v -0.06488249 -0.00847571 0.02456951
v -0.06348818 -0.01715976 0.02452439
v -0.06360437 -0.01879298 0.02344645
v -0.06241428 -0.02153247 0.02390270
v -0.06153051 -0.02327198 0.02390270
v -0.05106614 -0.02327198 -0.02616376
v -0.05771024 -0.01662683 -0.02616878
v -0.06115729 -0.00797871 -0.02616878
v -0.06497756 -0.01012839 0.02374226
v -0.06503037 -0.00887691 0.02401300
v -0.06533670 -0.00797871 0.02259914
v -0.06478742 -0.00934247 0.02451938
v -0.06490362 -0.01142928 0.02344645
v -0.06368184 -0.01792772 0.02370215
v -0.06486137 -0.01208945 0.02326095
v -0.06361846 -0.01885885 0.02259914
v -0.06347762 -0.01950854 0.02259914
v -0.06310439 -0.02052649 0.02259914
v -0.06188261 -0.02327198 0.02259914
v -0.05380899 -0.02327198 -0.02616376
v -0.05900948 -0.01532894 -0.02616376
v -0.05510823 -0.02327198 -0.02615875
v -0.05874189 -0.02052649 -0.02614872
v -0.06163614 -0.00797871 -0.02616376
v -0.05982283 -0.01792772 -0.02614872
v -0.06486137 -0.01208945 0.02320579
v -0.06477334 -0.00797871 -0.00599379
v -0.06467475 -0.00882900 -0.00599379
v -0.06451279 -0.01402805 0.02259914
v -0.06379098 -0.01792772 0.02259914
v -0.06356564 -0.01859837 0.01518895
v -0.06282624 -0.02052649 0.00439954
v -0.06316073 -0.01922711 -0.00209316
v -0.06272061 -0.02052649 -0.00209316
v -0.06188261 -0.02327198 0.02245876
v -0.06240372 -0.02150403 0.00439954
v -0.06241428 -0.02152499 0.00570309
v -0.06212556 -0.02217618 0.00570309
v -0.05634762 -0.02327198 -0.02614872
v -0.05689689 -0.02327198 -0.02614371
v -0.05964678 -0.01984087 -0.02614371
v -0.06216781 -0.00797871 -0.02615374
v -0.06230513 -0.00851164 -0.02614872
v -0.06425575 -0.01142928 -0.01119296
v -0.06411844 -0.01272867 -0.00989442
v -0.06392830 -0.01402805 -0.00989442
v -0.06371705 -0.01532894 -0.00989442
v -0.06356564 -0.01600857 -0.01208539
v -0.06358677 -0.01612983 -0.00989442
v -0.06347762 -0.01678102 -0.00989442
v -0.06341776 -0.01792772 -0.00209316
v -0.06474517 -0.00797871 -0.00735751
v -0.06459377 -0.00882900 -0.00989442
v -0.06443884 -0.01012839 -0.00989442
v -0.06239315 -0.02148008 0.00310100
v -0.06328044 -0.01792772 -0.00989442
v -0.06306566 -0.01922711 -0.00729233
v -0.06265018 -0.02052649 -0.00599379
v -0.06163614 -0.02327198 0.00553764
v -0.06159741 -0.02327198 0.00310100
v -0.06161854 -0.02327198 0.00439954
v -0.05741800 -0.02327198 -0.02613368
v -0.05939327 -0.02052649 -0.02613869
v -0.06022775 -0.01933489 -0.02612867
v -0.06047422 -0.01792772 -0.02613368
v -0.06235794 -0.00797871 -0.02614872
v -0.06160797 -0.01402805 -0.02611864
v -0.06160797 -0.01532894 -0.02609357
v -0.06271004 -0.00797871 -0.02610861
v -0.06450926 -0.00882900 -0.01379505
v -0.06422759 -0.01142928 -0.01249150
v -0.06406210 -0.01272867 -0.01249150
v -0.06387197 -0.01402805 -0.01249150
v -0.06364663 -0.01544271 -0.01251155
v -0.06355508 -0.01595019 -0.01295276
v -0.06347058 -0.01651605 -0.01251155
v -0.06323115 -0.01792772 -0.01249150
v -0.06469236 -0.00797871 -0.00989442
v -0.06260089 -0.02052649 -0.00859588
v -0.06298820 -0.01922711 -0.01119296
v -0.06229809 -0.02126152 -0.00729233
v -0.06157276 -0.02327198 0.00180246
v -0.05761165 -0.02327198 -0.02612867
v -0.05886512 -0.02327198 -0.02609357
v -0.06030873 -0.02052649 -0.02609357
v -0.06160797 -0.01662683 -0.02605848
v -0.06297060 -0.00797871 -0.02606349
v -0.06459025 -0.00797871 -0.01424628
v -0.06447405 -0.00882900 -0.01509359
v -0.06416421 -0.01142928 -0.01509359
v -0.06435435 -0.01012839 -0.01379505
v -0.06465363 -0.00797871 -0.01164419
v -0.06419590 -0.01142928 -0.01379505
v -0.06403041 -0.01272867 -0.01379505
v -0.06384028 -0.01402805 -0.01379505
v -0.06354452 -0.01588432 -0.01379505
v -0.06342128 -0.01662683 -0.01379505
v -0.06319946 -0.01792772 -0.01379505
v -0.06296003 -0.01922711 -0.01249150
v -0.06134742 -0.02327198 -0.00989442
v -0.06253399 -0.02048907 -0.01249150
v -0.06249174 -0.02064925 -0.01114784
v -0.06136855 -0.02327198 -0.00881648
v -0.05900948 -0.02312677 -0.02608856
v -0.05900948 -0.02327198 -0.02607352
v -0.06030873 -0.02182738 -0.02592812
v -0.06160797 -0.01792772 -0.02600834
v -0.06291074 -0.01142928 -0.02583286
v -0.06391070 -0.00797871 -0.02540169
v -0.06455504 -0.00797871 -0.01554482
v -0.06443533 -0.00882900 -0.01639213
v -0.06393887 -0.01142928 -0.02289485
v -0.06405506 -0.01142928 -0.01899422
v -0.06428392 -0.01012839 -0.01639213
v -0.06412900 -0.01142928 -0.01639213
v -0.06441420 -0.00797871 -0.02029276
v -0.06399872 -0.01272867 -0.01509359
v -0.06373465 -0.01402805 -0.01769568
v -0.06369944 -0.01402805 -0.01899422
v -0.06293187 -0.01792772 -0.02419339
v -0.06289666 -0.01922711 -0.01509359
v -0.06292834 -0.01922711 -0.01379505
v -0.06237203 -0.02013279 -0.02419339
v -0.06249878 -0.02041272 -0.01509359
v -0.06251639 -0.02045165 -0.01379505
v -0.06131925 -0.02327198 -0.01119296
v -0.06190022 -0.02182738 -0.01379505
v -0.06128757 -0.02327198 -0.01249150
v -0.06024887 -0.02327198 -0.02550697
v -0.06035098 -0.02327198 -0.02544681
v -0.06127700 -0.02182738 -0.02529640
v -0.06160797 -0.01922711 -0.02583787
v -0.06259033 -0.01792772 -0.02536659
v -0.06379451 -0.01012839 -0.02528637
v -0.06386493 -0.00882900 -0.02535657
v -0.06417125 -0.00797871 -0.02459950
v -0.06437547 -0.00797871 -0.02159130
v -0.06412900 -0.01012839 -0.02159130
v -0.06390014 -0.01142928 -0.02419339
v -0.06388957 -0.01272867 -0.01899422
v -0.06396351 -0.01272867 -0.01639213
v -0.06360085 -0.01365081 -0.02419339
v -0.06334734 -0.01532894 -0.02419339
v -0.06357973 -0.01352656 -0.02490032
v -0.06245653 -0.01922711 -0.02520615
v -0.06232978 -0.02003997 -0.02499558
v -0.06266075 -0.01922711 -0.02419339
v -0.06207979 -0.02078248 -0.02419339
v -0.06124883 -0.02327198 -0.01379505
v -0.06090026 -0.02327198 -0.02444909
v -0.06107278 -0.02271809 -0.02506076
v -0.06166431 -0.02049506 -0.02542174
v -0.06363606 -0.01272867 -0.02503067
v -0.06372056 -0.01142928 -0.02519111
v -0.06428392 -0.00797871 -0.02419339
v -0.06431561 -0.00797871 -0.02334609
v -0.06419238 -0.00882900 -0.02419339
v -0.06404802 -0.01012839 -0.02419339
v -0.06373113 -0.01272867 -0.02419339
v -0.06381211 -0.01272867 -0.02159130
v -0.06093899 -0.02327198 -0.02419339
v -0.06113264 -0.02284983 -0.02419339
f 1 2 3
f 1 3 4
f 1 4 5
f 1 5 11
f 1 11 10
f 1 10 16
f 1 16 15
f 1 15 20
f 1 20 26
f 1 26 33
f 1 33 44
f 1 44 56
f 1 56 68
f 1 68 67
f 1 67 78
f 1 78 90
f 1 90 104
f 1 104 120
f 1 120 144
f 1 144 146
f 1 146 145
f 1 145 167
f 1 167 188
f 1 188 185
f 1 185 211
f 1 211 213
f 1 213 234
f 1 234 246
f 1 246 235
f 1 235 215
f 1 215 214
f 1 214 190
f 1 190 169
f 1 169 168
f 1 168 147
f 1 147 125
f 1 125 124
f 1 124 107
f 1 107 105
f 1 105 91
f 1 91 84
f 1 84 83
f 1 83 71
f 1 71 60
f 1 60 57
f 1 57 45
f 1 45 35
f 1 35 27
f 1 27 21
f 1 21 17
f 1 17 12
f 1 12 6
f 1 6 2
f 2 6 7
f 2 7 3
f 3 7 8
f 3 8 13
f 3 13 18
f 3 18 22
f 3 22 28
f 3 28 37
f 3 37 48
f 3 48 59
f 3 59 70
f 3 70 82
f 3 82 93
f 3 93 109
f 3 109 127
f 3 127 151
f 3 151 154
f 3 154 172
f 3 172 194
f 3 194 221
f 3 221 240
f 3 240 241
f 3 241 222
f 3 222 201
f 3 201 195
f 3 195 173
f 3 173 177
f 3 177 163
f 3 163 137
f 3 137 112
f 3 112 96
f 3 96 85
f 3 85 73
f 3 73 61
f 3 61 50
f 3 50 40
f 3 40 39
f 3 39 38
f 3 38 32
f 3 32 24
f 3 24 19
f 3 19 14
f 3 14 9
f 3 9 4
f 4 9 10
f 4 10 11
f 4 11 5
f 6 12 7
f 7 12 8
f 8 12 13
f 9 14 15
f 9 15 16
f 9 16 10
f 12 17 18
f 12 18 13
f 14 19 15
f 15 19 20
f 17 21 22
f 17 22 23
f 17 23 18
f 18 23 22
f 19 24 25
f 19 25 20
f 20 25 26
f 21 27 22
f 22 27 28
f 24 29 30
f 24 30 31
f 24 31 26
f 24 26 25
f 24 32 29
f 26 31 33
f 27 34 28
f 27 35 34
f 28 35 36
f 28 36 37
f 28 34 35
f 29 32 30
f 30 32 38
f 30 38 39
f 30 39 40
f 30 40 41
f 30 41 42
f 30 42 43
f 30 43 31
f 31 43 44
f 31 44 33
f 35 45 46
f 35 46 47
f 35 47 36
f 36 47 37
f 37 47 49
f 37 49 48
f 40 50 51
f 40 51 52
f 40 52 42
f 40 42 41
f 42 52 65
f 42 65 53
f 42 53 43
f 43 53 54
f 43 54 55
f 43 55 56
f 43 56 44
f 45 47 46
f 45 57 47
f 47 57 49
f 48 49 58
f 48 58 59
f 49 57 60
f 49 60 59
f 49 59 58
f 50 61 62
f 50 62 63
f 50 63 64
f 50 64 51
f 51 64 52
f 52 64 63
f 52 63 65
f 53 65 54
f 54 65 55
f 55 66 67
f 55 67 68
f 55 68 56
f 55 65 66
f 59 60 69
f 59 69 70
f 60 71 72
f 60 72 69
f 61 73 62
f 62 73 74
f 62 74 63
f 63 66 65
f 63 74 66
f 66 74 75
f 66 75 76
f 66 76 77
f 66 77 67
f 67 77 78
f 69 72 70
f 70 72 79
f 70 79 80
f 70 80 81
f 70 81 82
f 71 83 72
f 72 83 84
f 72 84 79
f 73 85 86
f 73 86 74
f 74 86 87
f 74 87 76
f 74 76 75
f 76 78 77
f 76 87 88
f 76 88 89
f 76 89 90
f 76 90 78
f 79 84 91
f 79 91 80
f 80 92 81
f 80 91 105
f 80 105 92
f 81 92 82
f 82 92 93
f 85 94 95
f 85 95 86
f 85 96 94
f 86 95 94
f 86 94 97
f 86 97 87
f 87 97 98
f 87 98 99
f 87 99 88
f 88 99 100
f 88 100 101
f 88 101 102
f 88 102 103
f 88 103 89
f 89 103 104
f 89 104 90
f 92 106 93
f 92 105 107
f 92 107 108
f 92 108 106
f 93 106 110
f 93 110 109
f 94 98 97
f 94 96 98
f 96 111 100
f 96 100 98
f 96 112 113
f 96 113 111
f 98 100 99
f 100 111 114
f 100 114 115
f 100 115 101
f 101 115 116
f 101 116 102
f 102 117 103
f 102 116 118
f 102 118 119
f 102 119 117
f 103 120 104
f 103 117 121
f 103 121 122
f 103 122 123
f 103 123 120
f 106 108 110
f 107 124 108
f 108 124 125
f 108 125 126
f 108 126 110
f 109 110 126
f 109 126 128
f 109 128 127
f 111 113 129
f 111 129 130
f 111 130 131
f 111 131 132
f 111 132 133
f 111 133 134
f 111 134 135
f 111 135 136
f 111 136 114
f 112 137 113
f 113 137 138
f 113 138 139
f 113 139 129
f 114 116 115
f 114 136 116
f 116 136 118
f 117 140 121
f 117 119 140
f 118 136 141
f 118 141 142
f 118 142 143
f 118 143 119
f 119 143 140
f 120 123 144
f 121 140 145
f 121 145 146
f 121 146 123
f 121 123 122
f 123 146 144
f 125 147 148
f 125 148 126
f 126 148 149
f 126 149 150
f 126 150 128
f 127 128 151
f 128 150 152
f 128 152 153
f 128 153 154
f 128 154 151
f 129 139 138
f 129 138 155
f 129 155 156
f 129 156 157
f 129 157 130
f 130 157 158
f 130 158 131
f 131 158 159
f 131 159 133
f 131 133 132
f 133 159 160
f 133 160 161
f 133 161 162
f 133 162 135
f 133 135 134
f 135 162 141
f 135 141 136
f 137 163 138
f 138 163 155
f 140 143 145
f 141 162 142
f 142 164 143
f 142 162 165
f 142 165 164
f 143 164 166
f 143 166 145
f 145 166 167
f 147 168 148
f 148 168 169
f 148 169 149
f 149 152 150
f 149 169 170
f 149 170 153
f 149 153 152
f 153 170 171
f 153 171 154
f 154 171 172
f 155 173 195
f 155 195 174
f 155 174 200
f 155 200 175
f 155 175 176
f 155 176 156
f 155 163 177
f 155 177 173
f 156 176 178
f 156 178 179
f 156 179 157
f 157 179 180
f 157 180 158
f 158 180 159
f 159 180 160
f 160 180 181
f 160 181 182
f 160 182 161
f 161 182 162
f 162 182 183
f 162 183 207
f 162 207 184
f 162 184 165
f 164 185 166
f 164 165 186
f 164 186 187
f 164 187 185
f 165 184 186
f 166 185 188
f 166 188 167
f 169 189 170
f 169 190 189
f 170 189 190
f 170 190 191
f 170 191 192
f 170 192 171
f 171 192 172
f 172 192 193
f 172 193 194
f 174 196 224
f 174 224 197
f 174 197 198
f 174 198 199
f 174 199 200
f 174 195 201
f 174 201 222
f 174 222 196
f 175 200 226
f 175 226 202
f 175 202 179
f 175 179 178
f 175 178 176
f 179 202 180
f 180 202 203
f 180 203 181
f 181 203 204
f 181 204 205
f 181 205 182
f 182 205 183
f 183 206 207
f 183 205 206
f 184 207 208
f 184 208 209
f 184 209 210
f 184 210 186
f 185 187 211
f 186 210 212
f 186 212 213
f 186 213 211
f 186 211 187
f 190 214 191
f 191 214 215
f 191 215 216
f 191 216 217
f 191 217 192
f 192 217 218
f 192 218 193
f 193 218 219
f 193 219 220
f 193 220 194
f 194 220 221
f 196 222 223
f 196 223 224
f 197 224 245
f 197 245 225
f 197 225 198
f 198 225 226
f 198 226 200
f 198 200 199
f 202 226 204
f 202 204 203
f 204 226 225
f 204 225 227
f 204 227 228
f 204 228 205
f 205 228 229
f 205 229 230
f 205 230 231
f 205 231 232
f 205 232 206
f 206 232 208
f 206 208 207
f 208 232 231
f 208 231 233
f 208 233 213
f 208 213 212
f 208 212 209
f 209 212 210
f 213 233 234
f 215 235 236
f 215 236 216
f 216 236 231
f 216 231 230
f 216 230 237
f 216 237 217
f 217 237 230
f 217 230 218
f 218 230 229
f 218 229 238
f 218 238 239
f 218 239 219
f 219 239 221
f 219 221 220
f 221 239 240
f 222 241 242
f 222 242 243
f 222 243 224
f 222 224 223
f 224 244 245
f 224 243 229
f 224 229 244
f 225 245 227
f 227 245 244
f 227 244 229
f 227 229 228
f 229 243 242
f 229 242 240
f 229 240 238
f 231 236 246
f 231 246 247
f 231 247 233
f 233 247 234
f 234 247 246
f 235 246 236
f 238 240 239
f 240 242 241

